<svg id="Layer_1" data-name="Layer 1" xmlns="http://www.w3.org/2000/svg" viewBox="0 0 1016.52 912.47"><title>bookshelf</title><path d="M1048.26,962.55c-9.5,25.72-28.58,33.74-55.06,33.69q-375.71-.75-751.41-.33c-4.28,0-8.72.19-12.81-.81-7.72-1.89-11.76-7.31-11.13-15.34s5.28-12.63,13.32-13.41c3.61-.34,7.27-.19,10.91-.19q376.69,0,753.4,0c4,0,8,.32,11.86-.45,6.94-1.4,11.33-5.86,10.92-13.2s-4.68-11.46-12.07-12c-3-.22-6-.13-8.93-.13H83.06c-2.32,0-4.64-.07-7,0-9.12.37-14.56,5.18-14.53,12.74S67.23,966,76.2,966.05c27.79.23,55.59.18,83.38.06,8,0,14.51,2.11,17.07,10.44,3,9.71-3.34,19-14.23,19.15-30.43.42-60.91,1-91.29-.32-23.62-1.07-40.21-21.14-39.36-44.08.85-22.75,19.21-40.2,42.9-40.7,6.54-.14,13.08,0,20.73,0v-769c0-20.74,3.65-24.45,24.06-24.45q108.69,0,217.38,0c18.06,0,22.41,4.3,22.42,22,0,18.77,0,37.54,0,56.83H519.48c-2.62-9.5-5.22-18.32-7.45-27.23-2.71-10.83.7-17.32,11.39-20.41q110.42-31.92,220.93-63.5c11.12-3.18,17.94.54,21.15,11.66q35.22,121.85,70.08,243.79c3.06,10.7-.64,18.37-9.24,20.91-9.11,2.69-16.16-1.93-19.54-13.14-3.23-10.71-6.22-21.5-9.66-33.48L601,370.91c40.49,141,80.75,281.09,121.35,422.39l195.73-56.2c-.9-3.7-1.53-6.8-2.4-9.84q-43.29-151-86.6-301.93c-.92-3.17-2.06-6.29-2.77-9.51-2.08-9.32,1.7-16.81,9.49-19.17,8.52-2.57,16.09,1.51,19.1,11,3.79,12,7.06,24.09,10.52,36.15q58.11,202.38,116.2,404.77c5.38,18.76,2.92,23.29-15.72,28.63q-49.53,14.19-99,28.42a24.16,24.16,0,0,0-9.47,4.9c46.22,0,92.45.77,138.64-.29,26.34-.6,43.85,9.25,52.27,34.41ZM523.83,791.72V778.91q0-91.81,0-183.62c0-11.09,5.36-17.57,14.22-17.86,9.27-.31,15.17,6.46,15.51,17.85.08,2.65,0,5.29,0,7.94V910H724.84Q640,614.82,555.71,321.31l-2.09.27v10.29q0,93.79,0,187.59c0,12.36-5.53,19.54-14.79,19.71s-14.91-6.87-14.95-19.26c-.06-22.83,0-45.66,0-68.49V432.85H359.27V641.62a64.62,64.62,0,0,1-.17,8.92c-1.18,8.31-6.2,13.1-14.49,13.72-7.73.57-14.2-5.76-15-14.14-.29-3-.12-6-.12-8.92V353.71H125.68V791.32H329.5c0-24.16-.1-47.6,0-71,.06-10.66,6.12-17.44,14.94-17.34s14.62,6.92,14.75,17.63c.16,12.23,0,24.48,0,36.72v34.43Zm-194.76-644H126v95.33H329.07Zm411.29-30.85-196.15,56.4L570.84,266,767,209.59C758,178.34,749.31,148,740.36,116.87ZM125.78,822.38v87.46h203V822.38ZM755,906.89l196.18-56.43L926.7,765.61,730.56,822C738.76,850.51,746.69,878.06,755,906.89ZM359.61,322.52H523.24V227.06H359.61ZM523.29,822.59H360.12v87.17H523.29Zm-194.44-500V274.31h-203v48.26ZM592.78,342.3,789,285.89c-4.81-16.61-9.18-31.71-13.78-47.62L579.1,294.6C583.69,310.62,588,325.73,592.78,342.3Zm-232.9,11v48.33h163.3V353.32Z" transform="translate(-31.74 -83.76)"/><path d="M781.74,702.24c-.56,8.24-4.37,13.83-12.1,15.4-8.31,1.68-14.39-2.34-16.94-10.21-4.18-12.87-7.7-26-11.44-39q-33.64-117.13-67.21-234.29c-1.08-3.77-2.37-7.8-2-11.58.62-7.42,5.33-12.31,12.67-13.2,8.33-1,13.93,3.3,16.31,11.32q7.74,26.13,15.25,52.32,31.6,110,63.14,220C780.28,696.19,781,699.41,781.74,702.24Z" transform="translate(-31.74 -83.76)"/><path d="M835.27,639.62c-.89,8.18-4.78,13.73-12.64,14.87-8.83,1.28-14.46-3.31-16.9-11.75q-10.18-35.18-20.27-70.37c-10.88-37.72-21.84-75.42-32.57-113.18-1.23-4.33-3.09-10-1.37-13.3,2.41-4.64,7.51-9.85,12.23-10.75,4.21-.8,9.84,3.41,14.09,6.46,2,1.43,2.43,5.25,3.25,8.08q26.2,90.81,52.3,181.65C834.21,634.17,834.71,637.11,835.27,639.62Z" transform="translate(-31.74 -83.76)"/><path d="M178.19,572.34q0-68.46,0-136.92a77.85,77.85,0,0,1,.28-9.91c1-7.57,5.68-11.95,13-12.72s12.92,2.79,15.19,10a36.37,36.37,0,0,1,1.23,10.74q.09,138.91,0,277.83A37.14,37.14,0,0,1,206.49,723c-2.43,7.22-8.15,10.22-15.58,9.3-7.06-.87-11.31-5.17-12.39-12.17a66.74,66.74,0,0,1-.32-9.91Q178.17,641.3,178.19,572.34Z" transform="translate(-31.74 -83.76)"/><path d="M456.9,612c0,34.39.08,68.79,0,103.18,0,11.78-6.65,18.37-16.63,17.2-8-.95-12.91-7-13-17.08-.2-15.54-.06-31.09-.06-46.63q0-76.89,0-153.79a69.8,69.8,0,0,1,.2-8.92c1.11-8.58,7.35-14.17,15.25-13.95s14,6.1,14.17,14.82c.34,15.87.15,31.75.16,47.62Q456.93,583.26,456.9,612Z" transform="translate(-31.74 -83.76)"/><path d="M276.57,572.39c0,32.06.35,64.13-.33,96.17a23.72,23.72,0,0,1-7.42,15.78c-6.92,5.9-17.8,1.39-20.72-7.47a31.91,31.91,0,0,1-1.24-9.76q-.11-94.2-.05-188.41c0-1.32,0-2.64.05-4,.73-9.9,6.79-16.37,15.18-16.23s14.4,6.6,14.45,16.7C276.67,507.6,276.56,540,276.57,572.39Z" transform="translate(-31.74 -83.76)"/></svg>