<svg id="Layer_1" data-name="Layer 1" xmlns="http://www.w3.org/2000/svg" viewBox="0 0 367.98 319.34"><title>calendar</title><path d="M356,222.91a6.51,6.51,0,0,1-2.2-5.25q.09-36.28,0-72.56a10.58,10.58,0,0,0-.41-4.25,5.06,5.06,0,0,0-5.64-3.44,4.91,4.91,0,0,0-4.66,4.64,26.72,26.72,0,0,0-.05,3.23q0,32.15,0,64.3v4.12c-4.43-1.91-8.44-3.88-12.79-4.53-3.1-.47-3.61-1.89-3.6-4.73q.13-51.36.05-102.74c0-8.17-1.77-10-9.81-10H84.52c-7.75,0-9.67,2-9.67,9.83,0,6.46-.09,12.93,0,19.39.05,2.28-.49,3.07-2.95,3-9.69-.16-19.4-.08-29.1,0-5.7,0-8.15,2.33-8.15,8q0,61.59,0,123.2c0,5.47,2.44,7.9,7.92,7.9q78.12,0,156.25,0c5.48,0,7.88-2.45,7.92-7.88.06-6.82.18-13.65-.06-20.47-.1-3,.62-3.81,3.67-3.78,14.61.17,29.21.08,43.81.08h14.15c-1.84,3.17-3.53,6-5.11,8.89a4.92,4.92,0,0,0,.53,5.71,5.12,5.12,0,0,0,5.44,1.92c2.35-.5,3.35-2.44,4.44-4.35a48.63,48.63,0,0,1,90.18,14.33,48.57,48.57,0,0,1-80.21,45.31,47.34,47.34,0,0,1-16-34.46c-.17-4.48-2.18-7-5.51-7s-5.26,2.62-5.28,7.06a67.88,67.88,0,0,0,2,14.36c-1.05.06-2,.17-2.91.17Q139,282.92,22.1,283c-3.11,0-3.75-1.06-3.75-3.94q.12-101.82,0-203.67c0-3.14.94-3.74,3.8-3.62,5.26.23,10.54.09,15.8.06,4.89,0,7.38-1.82,7.43-5.31s-2.49-5.43-7.3-5.45c-5.5,0-11-.14-16.51.05-2.45.09-3.3-.49-3.2-3.06.19-5.74.06-11.49.06-17.24,0-9.1,0-9.09,9-8.68a1.37,1.37,0,0,0,.35,0c1.56-.19,2.12.49,2.08,2.05-.09,2.63-.09,5.27,0,7.9A11.82,11.82,0,0,0,41.29,53.6c3.1.11,6.22.09,9.33,0A11.8,11.8,0,0,0,62.43,42.44c.2-2.62.06-5.26.13-7.89,0-.88-.39-2.27,1-2.33,3.45-.14,7.19-.8,10.3.26,2,.66.52,4.32.79,6.62.15,1.3,0,2.64.2,3.93a11.91,11.91,0,0,0,12,10.58c2.75.07,5.51.09,8.26,0a12,12,0,0,0,11.7-11.71c.17-3.18-1.44-7.63.7-9.2s6.42-.49,9.76-.56c.11,0,.24,0,.35,0,1.55-.21,2.13.42,2.07,2-.1,2.52-.07,5,0,7.55a11.93,11.93,0,0,0,11.81,11.94c2.64.08,5.28.06,7.91,0,7.12-.12,12-5,12.5-12.13.24-3.11-1.69-7.36,1-9,2.32-1.46,6.28-.24,9.5-.37,1.75-.07,2.32.55,2.28,2.25a73.38,73.38,0,0,0,.1,8.26,11.76,11.76,0,0,0,11.59,11c2.75.1,5.51.08,8.26,0,7-.16,11.79-5,12.12-12,.14-3.06-1.4-7.34.68-8.87s6.18-.51,9.39-.59c.24,0,.48,0,.72,0,1.57-.22,2.1.48,2.05,2-.1,2.39-.08,4.79,0,7.18.19,7.15,5.18,12.15,12.26,12.3,2.5.05,5,.05,7.53,0,7.15-.13,12-5.06,12.48-12.14.18-3.1-1.7-7.36.93-9,2.32-1.46,6.28-.22,9.5-.37,2-.1,2.46.71,2.37,2.5-.1,2.52-.09,5,0,7.55A11.82,11.82,0,0,0,266.19,53.6c2.63.1,5.27.06,7.9,0,7.47-.09,12.13-4.77,12.66-12.28.22-3.05-1.67-7.26,1.13-8.89,2.42-1.4,6.29-.25,9.52-.35,1.56-.05,2.14.48,2.08,2-.08,2.39-.09,4.79,0,7.18.3,7.38,5.28,12.2,12.64,12.31,2,0,4.07,0,6.11,0,8.73,0,13.4-4.76,13.43-13.6,0-8.26,0-8.18,8.36-8,2.38.07,3.09.94,3.06,3.22-.09,7.19-.25,14.38.06,21.55.15,3.48-.8,4.29-4.27,4.28q-135-.15-270.1-.07a27.94,27.94,0,0,0-4.3.14c-3,.47-4.68,2.36-4.57,5.45a4.81,4.81,0,0,0,4.62,5,36.28,36.28,0,0,0,4.3.14q134.88,0,269.74-.06c3.36,0,4.7.43,4.61,4.34-.31,13.52-.14,27.06-.1,40.59,0,3.89,2.15,6.23,5.43,6.16,3.08-.06,5.3-2.39,5.3-6,0-27.78.08-55.55,0-83.33,0-6.89-5.23-11.85-12.14-12.14a51.58,51.58,0,0,0-6.81,0c-2.42.22-3.22-.44-3.26-3-.1-6.61-5.05-11.4-11.67-11.64-3.1-.11-6.23-.12-9.34.06A12.25,12.25,0,0,0,300,15.19c-.7,2,.75,5-1.63,6-2,.78-4.49.16-6.77.17a11.37,11.37,0,0,0-1.43,0c-2.49.4-3.45-.34-3.59-3.16-.36-7-5.17-11.32-12.17-11.51-2.26-.07-4.55,0-6.81,0-7.88.1-12.53,4.44-12.91,12.24-.09,1.84-.48,2.59-2.41,2.47a61.19,61.19,0,0,0-7.54,0c-2.24.17-3-.42-3-2.86-.2-6.85-5.12-11.6-11.9-11.82-3-.09-6-.11-9,0C215.84,7,212,10.4,210.1,15c-.84,2.09,1,5.26-1.77,6.19-2.16.72-4.75.15-7.14.15a7.61,7.61,0,0,0-1.07,0c-2.56.43-3.47-.39-3.52-3.2-.12-6.48-5-11.17-11.46-11.43a94.89,94.89,0,0,0-9.69.07,12,12,0,0,0-10.47,9c-.46,1.8.59,4.41-1.06,5.28s-4,.28-6,.31a31.59,31.59,0,0,0-3.23,0c-2.08.26-2.78-.33-2.91-2.65-.4-7.53-5.25-11.93-12.81-12-2.52,0-5-.06-7.55,0A12.17,12.17,0,0,0,120,15.88c-.5,1.8.73,4.38-1,5.23s-4,.21-6,.23a25,25,0,0,0-2.87,0c-2.32.31-3.3-.25-3.34-2.95-.07-6.65-5-11.44-11.59-11.7-3.12-.11-6.24-.12-9.34,0A12,12,0,0,0,75.12,15.5c-.57,1.91.51,4.69-1.23,5.58s-4.21.24-6.36.26a13.5,13.5,0,0,0-1.8,0c-2.42.39-3.18-.51-3.32-3.05-.35-7-5.11-11.42-12-11.63-2.39-.07-4.79,0-7.18,0-8.38.06-12.78,4.1-13.34,12.54-.11,1.8-.71,2.28-2.33,2.15-1.31-.09-2.64.09-4,0-7.5-.69-13,2.08-15.92,9.23V284.17c2.53,7,7.52,9.61,14.93,9.6q118.53-.21,237.06-.15a5.35,5.35,0,0,1,5.31,3c13.44,21.49,33.06,31.83,58.15,28.88,24.64-2.89,41.7-17.06,49.33-40.7S373.8,240.21,356,222.91ZM74.88,249.77c0,1.82-.47,2.53-2.41,2.51q-12.39-.14-24.77,0c-1.69,0-2.32-.51-2.29-2.25.08-5.61.09-11.24,0-16.87,0-1.72.45-2.26,2.2-2.21,4.18.12,8.37,0,12.57,0s8.13.07,12.19,0c1.76,0,2.58.26,2.52,2.31C74.74,238.76,74.78,244.27,74.88,249.77ZM45.4,169c0-2.06.87-2.31,2.57-2.29q12.2.09,24.41,0c1.82,0,2.53.49,2.5,2.42q-.16,8.25,0,16.52c0,1.9-.59,2.47-2.45,2.41-4.07-.12-8.15,0-12.21,0s-8.38-.07-12.56,0c-1.68,0-2.29-.41-2.26-2.18C45.5,180.26,45.52,174.63,45.4,169Zm29.47,49.24c0,1.62-.65,2-2.14,2q-12.7-.08-25.45,0c-1.38,0-1.88-.42-1.86-1.83.06-5.86.07-11.72,0-17.57,0-1.93,1-2.06,2.47-2,4.06.06,8.12,0,12.18,0s8.13.06,12.19,0c1.69,0,2.66.19,2.63,2.27C74.76,206.77,74.79,212.51,74.87,218.25Zm0-64.82c0,1.74-.32,2.6-2.35,2.58q-12.36-.15-24.77,0c-2,0-2.36-.82-2.34-2.57.07-5.5.12-11,0-16.51-.06-2.05.79-2.33,2.5-2.29,4.08.1,8.15,0,12.21,0s8.14.12,12.2,0c2.11-.08,2.62.67,2.58,2.65C74.76,142.66,74.79,148.05,74.87,153.43Zm37.45,98.85c-4.07-.12-8.14,0-12.2,0s-7.9-.09-11.85,0c-2,.07-2.75-.49-2.7-2.6.13-5.5.11-11,0-16.51,0-1.71.41-2.25,2.19-2.23q12.55.13,25.13,0c1.81,0,2.18.61,2.16,2.26-.1,5.5-.13,11,0,16.52C115.11,251.86,114.26,252.34,112.32,252.28ZM85.59,201c0-1.7.53-2.29,2.26-2.27q12.36.1,24.74,0c1.88,0,2.49.58,2.46,2.45-.1,5.62-.11,11.23,0,16.85,0,1.79-.6,2.22-2.28,2.17-4.17-.11-8.36,0-12.55,0s-8.12-.09-12.18,0c-1.82,0-2.52-.4-2.47-2.35C85.7,212.27,85.66,206.65,85.59,201Zm29.47-15.61c0,2-.46,2.72-2.57,2.64-4.06-.16-8.13,0-12.2,0s-8.14-.07-12.21,0c-1.73,0-2.57-.27-2.52-2.31.15-5.5.16-11,0-16.51-.06-2.19.84-2.55,2.74-2.53q12,.14,24.06,0c2,0,2.76.43,2.7,2.56C114.91,174.66,114.92,180.05,115.06,185.43Zm0-32c0,2.14-.8,2.58-2.74,2.57q-12-.13-24.06,0c-2,0-2.74-.51-2.69-2.61.13-5.51.11-11,0-16.52,0-1.69.38-2.31,2.18-2.25,4.19.14,8.38,0,12.57,0s8.14.07,12.21,0c1.7,0,2.58.21,2.52,2.28C114.91,142.42,114.92,147.93,115.06,153.44Zm0-32c.06,2.19-.84,2.54-2.73,2.5-4-.12-8.12,0-12.18,0s-7.9-.08-11.83,0c-1.85,0-2.82-.24-2.76-2.46.16-5.49.15-11,0-16.5-.06-2.15.8-2.54,2.72-2.52q12,.12,24,0c1.89,0,2.82.29,2.76,2.49Q114.84,113.2,115.06,121.44Zm50.88-17c0-1.56.59-2,2.11-2q12.73.06,25.46,0c1.41,0,1.88.5,1.87,1.87,0,5.86,0,11.71,0,17.57,0,1.58-.55,2-2.08,2-4.18-.09-8.36,0-12.55,0s-8.37-.07-12.55,0c-1.71,0-2.3-.49-2.28-2.23C166,116,166,110.23,165.94,104.49Zm2.44,30.17c4.08,0,8.15,0,12.21,0s8.38.08,12.57,0c1.68,0,2.28.4,2.25,2.17-.1,5.63-.08,11.25,0,16.88,0,1.67-.47,2.32-2.22,2.32-8.39-.08-16.77-.06-25.14,0-1.55,0-2.12-.53-2.1-2.09.06-5.75.09-11.49,0-17.24C165.89,134.68,166.93,134.64,168.38,134.66Zm-2.45,34.52c0-1.87.56-2.49,2.45-2.47q12.39.14,24.78,0c1.7,0,2.27.51,2.24,2.24-.08,5.62-.09,11.25,0,16.88,0,1.69-.45,2.28-2.2,2.23-4.18-.11-8.37,0-12.56,0s-8.14-.08-12.21,0c-1.78,0-2.55-.38-2.51-2.37C166,180.19,166,174.69,165.93,169.18Zm0,31.88c0-1.66.47-2.31,2.23-2.29q12.56.12,25.1,0c1.89,0,2.13.86,2.12,2.39,0,5.62-.08,11.24,0,16.86,0,1.71-.45,2.28-2.21,2.23-4.18-.13-8.37,0-12.54,0s-8.14-.08-12.2,0c-1.76.05-2.58-.3-2.53-2.31C166,212.3,166,206.68,165.94,201.06Zm-10.71,48.28c0,2-.33,3-2.71,3q-12-.23-24,0c-2.35,0-2.78-.84-2.74-2.93.13-5.26.12-10.52,0-15.79,0-2,.43-2.74,2.56-2.65,4.06.17,8.13,0,12.2,0s8.14.12,12.21,0c2.1-.09,2.58.63,2.52,2.62C155.1,238.81,155.11,244.08,155.23,249.34Zm0-31.33c0,1.72-.47,2.25-2.22,2.23q-12.54-.13-25.1,0c-1.85,0-2.16-.75-2.14-2.33.06-5.5.09-11,0-16.5,0-2,.5-2.74,2.61-2.66,4.06.16,8.13.05,12.19.05s8.13.08,12.18,0c1.84,0,2.54.48,2.5,2.4Q155.07,209.59,155.22,218Zm-2.47-29.95c-4.07-.11-8.14,0-12.2,0s-8.38-.08-12.56,0c-1.75,0-2.27-.57-2.24-2.27q.14-8.43,0-16.87c0-1.79.71-2.21,2.35-2.2,8.25.06,16.51.09,24.77,0,2,0,2.38.74,2.35,2.52-.1,5.51-.12,11,0,16.51C155.28,187.73,154.52,188.1,152.75,188.06Zm2.46-34.66c0,1.71-.25,2.63-2.3,2.61q-12.39-.15-24.78,0c-2,0-2.41-.76-2.38-2.54.09-5.5.13-11,0-16.51,0-2.07.8-2.37,2.55-2.32,4.06.1,8.13,0,12.2,0s8.14.12,12.21,0c2.1-.08,2.6.63,2.54,2.63C155.1,142.63,155.14,148,155.21,153.4Zm0-31.79c.05,2-.77,2.34-2.52,2.32q-12.19-.11-24.39,0c-1.7,0-2.62-.21-2.58-2.28.13-5.62.12-11.24,0-16.86,0-2,.76-2.38,2.55-2.33,4.18.1,8.36,0,12.55,0,3.93,0,7.88.06,11.83,0,1.73,0,2.6.27,2.56,2.3Q155.05,113.19,155.23,121.61ZM196,249.7c0,1.7-.21,2.61-2.29,2.59q-12.72-.16-25.45,0c-2,0-2.39-.78-2.37-2.54.08-5.51.12-11,0-16.5,0-2.05.81-2.33,2.54-2.29,4.18.09,8.36,0,12.55,0s8.12.1,12.18,0c2-.07,3,.2,2.89,2.63C195.86,238.93,196,244.32,196,249.7Zm10.07-144.81c0-1.88.57-2.46,2.45-2.44q12.38.12,24.75,0c1.68,0,2.31.44,2.29,2.2-.1,5.61-.11,11.24,0,16.86,0,1.86-.5,2.48-2.41,2.42-4.18-.14-8.37,0-12.55,0-3.95,0-7.91-.1-11.84,0-2,.06-2.76-.41-2.7-2.55C206.23,115.9,206.21,110.39,206.11,104.89Zm27.2,115.31c-4.19-.1-8.36,0-12.55,0s-8.12-.08-12.17,0c-1.84.06-2.53-.45-2.48-2.38.1-5.49.08-11,0-16.49,0-1.71.27-2.6,2.31-2.57,8.37.11,16.73.07,25.09,0,1.56,0,2.08.54,2.07,2.06-.06,5.74-.09,11.47,0,17.2C235.62,219.83,235,220.24,233.31,220.2Zm-.11-32.15c-4.19-.06-8.38,0-12.56,0-4,0-7.91-.1-11.85,0-2,.06-2.75-.42-2.69-2.56.14-5.39.13-10.77,0-16.16,0-2.07.65-2.66,2.67-2.63,8.14.09,16.28.06,24.42,0,1.5,0,2.44.11,2.41,2.05-.11,5.75-.12,11.5,0,17.24C235.64,188,234.68,188.06,233.2,188.05Zm-.11-32q-12.17-.12-24.34,0c-2,0-2.7-.57-2.65-2.63.13-5.36.12-10.74,0-16.11,0-2,.47-2.72,2.57-2.65,4,.17,8.11,0,12.17,0s8.35.08,12.52,0c1.68,0,2.27.4,2.24,2.17q-.16,8.41,0,16.82C235.64,155.59,234.88,156,233.09,156Zm40.55,64.18c-4.18-.07-8.37,0-12.54,0s-8.38-.07-12.55,0c-1.73.05-2.27-.54-2.25-2.25.09-5.61.08-11.23,0-16.85,0-1.62.38-2.35,2.18-2.33,8.36.08,16.73.06,25.09,0,1.42,0,2.23.22,2.2,1.92-.07,5.85-.08,11.7,0,17.56C275.81,219.94,275.09,220.22,273.64,220.19Zm2.15-34.12c0,1.61-.55,2-2.07,2-4.17-.09-8.35,0-12.53,0s-8.11-.08-12.16,0c-1.86,0-2.81-.26-2.75-2.49.17-5.48.13-11,0-16.46,0-2,.73-2.41,2.53-2.4q12.35.12,24.69,0c1.64,0,2.32.38,2.28,2.17C275.69,174.61,275.7,180.34,275.79,186.07Zm0-32.54c0,1.83-.46,2.5-2.39,2.48q-12.36-.13-24.71,0c-1.93,0-2.42-.7-2.39-2.51.1-5.49.12-11,0-16.48,0-1.93.63-2.44,2.46-2.38,4.17.11,8.35,0,12.53,0s8.11.11,12.16,0c1.95-.07,2.4.61,2.36,2.43C275.68,142.55,275.69,148.05,275.79,153.53Zm-2.72-29.59c-3.94-.12-7.89,0-11.84,0s-8.13-.08-12.19,0c-1.89,0-2.82-.29-2.76-2.5.16-5.5.12-11,0-16.51,0-1.83.46-2.5,2.4-2.48q12.39.14,24.76,0c2,0,2.36.79,2.33,2.52-.09,5.5-.14,11,0,16.51C275.86,123.69,274.93,124,273.07,123.94Zm16.16-21.48q12,.11,24,0c1.89,0,2.79.3,2.73,2.49q-.24,8.27,0,16.51c.06,2.19-.83,2.53-2.71,2.49-4.07-.12-8.14,0-12.2,0s-8.15-.1-12.21,0c-1.95.06-2.44-.64-2.4-2.47.11-5.5.14-11,0-16.52C286.43,102.75,287.35,102.44,289.23,102.46ZM316,153.75c0,1.71-.52,2.26-2.25,2.26q-12.53-.12-25.07,0c-1.79,0-2.2-.72-2.17-2.36.08-5.6.1-11.22,0-16.83,0-1.82.68-2.2,2.31-2.17,4.17.09,8.35,0,12.53,0s8.12.07,12.17,0c1.7,0,2.57.21,2.51,2.28C315.85,142.52,315.9,148.14,316,153.75ZM286.49,169c0-1.78.68-2.24,2.32-2.23,8.35.06,16.7.08,25.06,0,1.86,0,2.13.75,2.11,2.32-.07,5.61-.09,11.23,0,16.84,0,1.73-.52,2.23-2.22,2.19-4.18-.11-8.35,0-12.54,0s-8.11-.06-12.17,0c-1.68,0-2.62-.2-2.58-2.29C286.62,180.16,286.59,174.56,286.49,169Zm24.12,38.63a61.91,61.91,0,0,0-22.17,6.57,13.88,13.88,0,0,1-1.91.67c0-4.94,0-9.57,0-14.21,0-1.42.61-1.83,1.94-1.83q12.74.06,25.47,0c1.58,0,2,.55,2.08,2.06C316.39,206.86,316.46,207,310.61,207.58ZM313.22,17.4c9.51.25,7.42-1.17,7.66,7.41.05,1.8,0,3.59,0,5.39,0,3.22-.09,6.46,0,9.68.08,2.06-.41,3.08-2.74,3-9.54-.24-7.77,1.25-7.91-7.58-.09-4.9.05-9.81-.05-14.72C310.16,18.39,310.77,17.34,313.22,17.4Zm-45.57.05H268c9.68.15,7.75-1.32,7.92,7.47.11,5,0,10,.05,15.07,0,2.1-.63,2.89-2.88,2.93-7.71.13-7.71.23-7.71-7.35V30.19c0-3.47.05-6.94,0-10.4C265.34,18.14,265.93,17.3,267.65,17.45Zm-47.3,17.88c-.11-4.9.07-9.82-.06-14.73-.06-2.23.54-3.26,3-3.19,9.48.22,7.49-1.12,7.72,7.39,0,1.8,0,3.59,0,5.39,0,3.23-.09,6.47,0,9.69.07,2.08-.49,3.07-2.8,3C218.52,42.67,220.52,44.1,220.35,35.33ZM178,17.39C186,17.07,186,17,186,24.9v5.37c0,3.34-.06,6.7,0,10,0,1.76-.49,2.48-2.42,2.6-8.14.45-8.13.52-8.13-7.67,0-5,.05-10,0-15.06C175.36,18.25,176,17.47,178,17.39Zm-45.35.06h.71c9.25.12,7.56-1.18,7.7,7.41.07,5,0,10,0,15.07,0,2.12-.66,2.92-2.89,3-7.8.21-7.8.29-7.8-7.63V29.89c0-3.35.06-6.7,0-10C130.39,18.19,131,17.33,132.69,17.45ZM88.15,17.4c7.9-.34,7.9-.41,7.9,7.53,0,5-.1,10.06,0,15.08.06,2.19-.68,2.94-2.88,2.88-9.35-.24-7.6,1.31-7.79-7.69,0-1.67,0-3.35,0-5,0-3.35.06-6.7,0-10.06C85.33,18.12,86.17,17.48,88.15,17.4Zm-44.74,0c8.35-.19,8.35-.27,8.35,8.15v5c0,3.22-.06,6.44,0,9.66.06,2-.75,2.62-2.74,2.69-8.49.28-8.49.33-8.49-8,0-4.89.1-9.78-.05-14.67C40.45,18,41.26,17.45,43.41,17.4Z" transform="translate(-7.64 -6.63)"/><path d="M349.91,250.71q-4.37-4.52-8.87-8.88c-4.35-4.2-8.57-4.21-12.87,0-3.76,3.68-7.44,7.45-11.17,11.15-1.94,1.94-3.89,5.3-5.89,5.35s-4-3.32-6-5.19c-.52-.49-1-1-1.53-1.51-3.85-3.47-8.1-3.57-11.84-.07-3.39,3.19-6.7,6.49-9.88,9.88-3.56,3.78-3.61,8.13,0,11.81,7.69,7.86,15.52,15.57,23.31,23.35A8.61,8.61,0,0,0,311,299a9.4,9.4,0,0,0,6.31-3c10.89-10.92,21.83-21.79,32.7-32.74C354,259.31,353.9,254.85,349.91,250.71Zm-10.43,7.93c-9,8.95-17.93,17.88-26.83,26.9-1.32,1.33-2,1.31-3.31,0q-8.28-8.48-16.75-16.72c-1.3-1.26-1.08-1.88.07-3.07,4.83-5,4.78-5.08,9.67-.19l1.52,1.53c5.07,5,9.17,5.05,14.16.08q6.5-6.44,12.93-12.92c3.64-3.64,3.62-3.62,7.41.1a31.66,31.66,0,0,0,3,2.28C340.41,257.65,340,258.16,339.48,258.64Z" transform="translate(-7.64 -6.63)"/></svg>