<svg viewBox="0 0 35 35" xmlns="http://www.w3.org/2000/svg">
	<path d="M35 33.2467C34.8696 33.3489 34.7265 33.3845 34.5596 33.3836C32.4524 33.3789 30.3462 33.3808 28.2391 33.3798C28.1597 33.3798 28.0777 33.3836 28.002 33.3639C27.8789 33.333 27.8096 33.2485 27.8114 33.1097C27.8123 32.9718 27.8789 32.8837 28.0066 32.8621C28.1178 32.8443 28.2327 32.8443 28.3467 32.8443C30.2031 32.8434 32.0595 32.8434 33.915 32.8434C34.0399 32.8434 34.1639 32.8434 34.338 32.8434C33.997 32.1071 33.6451 31.4168 33.3569 30.6993C33.1801 30.2584 32.9393 30.1215 32.4752 30.1309C30.7675 30.1646 29.0588 30.1487 27.351 30.1384C27.1276 30.1374 27.0136 30.1956 26.917 30.4151C26.5668 31.2104 26.1884 31.9927 25.7909 32.8434C26.1082 32.8434 26.3735 32.8434 26.6389 32.8434C26.8139 32.8434 26.9753 32.8884 26.9826 33.0966C26.9899 33.3245 26.8276 33.3808 26.6343 33.3798C26.2468 33.377 25.8593 33.3873 25.4727 33.3761C25.1645 33.3677 25.0651 33.2035 25.1982 32.9137C25.6687 31.8895 26.1492 30.8709 26.6215 29.8476C26.7009 29.6751 26.824 29.615 27.0008 29.615C29.0396 29.6169 31.0775 29.6188 33.1162 29.6131C33.3506 29.6122 33.46 29.7323 33.5502 29.9292C33.966 30.8371 34.3882 31.7432 34.814 32.6464C34.866 32.7561 34.8851 32.8912 35 32.9643C35 33.0591 35 33.1529 35 33.2467Z"  />
	<path d="M0 32.9653C0.375658 32.3547 0.618194 31.6766 0.938233 31.0378C1.12515 30.6646 1.30021 30.2838 1.46616 29.8992C1.55096 29.7032 1.67131 29.6141 1.88285 29.615C3.21498 29.6206 4.5471 29.6169 5.88014 29.6178C6.04882 29.6178 6.21568 29.6394 6.22297 29.8645C6.23118 30.1046 6.06979 30.1468 5.87923 30.1468C4.66108 30.1459 3.44201 30.1524 2.22386 30.1403C2.00138 30.1384 1.88011 30.1965 1.78346 30.4132C1.42695 31.2161 1.04947 32.0095 0.66196 32.8452C0.809671 32.8452 0.910879 32.8452 1.01118 32.8452C3.6189 32.8452 6.22662 32.8452 8.83434 32.8452C9.20727 32.8452 9.20727 32.8443 9.05226 32.5104C8.73314 31.8257 8.40124 31.1476 8.10218 30.4545C7.99823 30.2144 7.87605 30.1253 7.62075 30.1384C7.40648 30.1496 7.06273 30.2566 7.06182 29.8823C7.06091 29.5053 7.40648 29.6572 7.61984 29.6169C8.11585 29.524 8.36842 29.752 8.56263 30.2228C8.92461 31.1035 9.35954 31.9523 9.76164 32.8162C9.9522 33.226 9.86102 33.3798 9.42518 33.3798C6.42995 33.3808 3.43563 33.3789 0.440395 33.3836C0.273537 33.3836 0.130386 33.3498 0 33.2467C0 33.1529 0 33.0591 0 32.9653Z"  />
	<path d="M2.10717 20.7254C2.26673 21.2159 2.55121 21.4757 3.00346 21.532C3.09373 21.5433 3.18491 21.5479 3.27609 21.5479C12.7769 21.5489 22.2778 21.5489 31.7787 21.5479C32.4452 21.5479 32.7935 21.3003 32.9303 20.7245C32.8026 20.7245 32.6795 20.7245 32.5564 20.7245C30.2095 20.7245 27.8625 20.7244 25.5165 20.7235C25.4144 20.7235 25.3095 20.7291 25.2101 20.7085C25.088 20.6832 25.0132 20.5988 25.0132 20.46C25.0123 20.323 25.077 20.233 25.2047 20.2086C25.304 20.1898 25.408 20.1898 25.5101 20.1898C28.0048 20.1889 30.4994 20.1889 32.995 20.1898C33.4628 20.1898 33.5621 20.3183 33.4637 20.7835C33.295 21.5808 32.6932 22.0657 31.8571 22.0657C22.2988 22.0666 12.7414 22.0666 3.18308 22.0657C3.12655 22.0657 3.06911 22.0676 3.01258 22.0638C2.28679 22.0197 1.67589 21.4354 1.58015 20.6954C1.53274 20.3258 1.63668 20.203 1.99958 20.188C2.28132 20.1758 2.65698 20.3136 2.81928 20.1373C2.99708 19.9441 2.87216 19.5577 2.87216 19.2566C2.87581 14.4404 2.87399 9.62507 2.8749 4.80883C2.8749 4.69159 2.86669 4.57247 2.88493 4.45805C2.9059 4.32955 2.99525 4.25733 3.12746 4.25733C3.25694 4.25733 3.35176 4.31642 3.37182 4.45242C3.38824 4.56778 3.38732 4.68596 3.38732 4.80226C3.38824 9.79389 3.39188 14.7855 3.38003 19.7771C3.37912 20.1129 3.45024 20.2198 3.78486 20.1964C4.27267 20.1636 4.76413 20.1786 5.25376 20.1926C5.45253 20.1983 5.50541 20.127 5.49812 19.9328C5.48444 19.5821 5.48809 19.2294 5.49539 18.8786C5.51271 18.0298 6.02696 17.5046 6.85304 17.5008C7.86695 17.4952 8.88087 17.4952 9.89478 17.5008C10.7054 17.5055 11.2169 18.027 11.2351 18.8552C11.2424 19.1712 11.2561 19.4892 11.2315 19.8034C11.2078 20.1007 11.278 20.218 11.5962 20.1955C12.0612 20.1636 12.5299 20.187 12.9967 20.187C16.5281 20.187 20.0594 20.187 23.5917 20.187C23.671 20.187 23.7513 20.187 23.8306 20.187C24.0166 20.187 24.1935 20.2264 24.1862 20.4618C24.1789 20.6916 24.0029 20.7263 23.8169 20.7235C23.6008 20.7198 23.3838 20.7226 23.1677 20.7226C16.2983 20.7226 9.42885 20.7226 2.55942 20.7226C2.42356 20.7254 2.2877 20.7254 2.10717 20.7254ZM8.36388 20.1898C9.0687 20.1898 9.77351 20.1805 10.4783 20.1955C10.6944 20.2001 10.7482 20.1345 10.7382 19.9216C10.7209 19.5605 10.74 19.1966 10.7318 18.8345C10.7209 18.3515 10.4364 18.0429 9.96407 18.0373C8.89545 18.026 7.82683 18.0251 6.75913 18.0373C6.30232 18.0429 6.02422 18.3487 6.01328 18.8167C6.00416 19.1909 6.02058 19.5652 6.0069 19.9385C5.99961 20.1345 6.05431 20.1964 6.25035 20.1936C6.95425 20.1823 7.65907 20.1898 8.36388 20.1898Z"  />
	<path d="M17.5684 2.69757C22.5696 2.69757 27.5708 2.6985 32.5728 2.69475C32.6896 2.69475 32.8628 2.76791 32.9139 2.64129C32.9649 2.51561 32.8409 2.3843 32.757 2.27456C32.5263 1.97443 32.2173 1.87407 31.8534 1.87501C30.3381 1.88063 28.8227 1.87688 27.3082 1.87688C25.1773 1.87688 23.0474 1.87688 20.9165 1.87594C20.8144 1.87594 20.7086 1.88251 20.6111 1.85812C20.488 1.82811 20.426 1.73338 20.4314 1.59644C20.4369 1.47451 20.4953 1.39385 20.6065 1.36853C20.694 1.34883 20.787 1.34696 20.8773 1.34696C24.5345 1.34602 28.1917 1.34414 31.8489 1.34789C32.7206 1.34883 33.3451 1.87219 33.4792 2.68819C33.5421 3.07273 33.4318 3.2078 33.0607 3.2228C32.7789 3.23406 32.4106 3.09618 32.24 3.27626C32.0705 3.45541 32.1926 3.83245 32.1917 4.12227C32.189 8.94976 32.1908 13.7782 32.1872 18.6057C32.1872 18.8233 32.2756 19.1478 31.9373 19.1544C31.5936 19.1619 31.6756 18.8364 31.6756 18.6179C31.672 13.6141 31.6702 8.61117 31.6811 3.60735C31.682 3.28283 31.5963 3.21342 31.2918 3.21436C21.5739 3.2228 11.856 3.22186 2.13818 3.22186C1.56831 3.22186 1.47804 3.099 1.62757 2.52968C1.81996 1.79622 2.40168 1.3554 3.20953 1.34883C4.14412 1.34227 5.07779 1.34696 6.01238 1.34696C9.22553 1.34696 12.4378 1.34508 15.6509 1.35165C15.8807 1.35165 16.001 1.31038 16.0822 1.05151C16.2773 0.424039 16.8827 0.00760161 17.5183 9.82248e-05C18.1656 -0.00740516 18.7765 0.415598 18.9872 1.0562C19.0546 1.26254 19.1212 1.37416 19.3519 1.35634C19.506 1.34508 19.6127 1.45482 19.6063 1.62177C19.5999 1.7859 19.4932 1.87032 19.3355 1.87688C19.2333 1.88157 19.1303 1.87876 19.0282 1.87876C13.7872 1.87876 8.54716 1.88063 3.30618 1.87501C2.89679 1.87501 2.5348 1.94816 2.28042 2.30645C2.20838 2.40775 2.0935 2.5278 2.14912 2.64692C2.202 2.75947 2.35518 2.69569 2.46277 2.69569C5.86922 2.6985 9.27568 2.6985 12.6821 2.6985C14.3097 2.69757 15.939 2.69757 17.5684 2.69757ZM18.5094 1.34602C18.4219 0.873305 18.0726 0.566604 17.6113 0.537528C17.1563 0.50939 16.704 0.791705 16.57 1.17063C16.5126 1.33289 16.5846 1.34789 16.7077 1.34696C17.3067 1.34508 17.9067 1.34602 18.5094 1.34602Z"  />
	<path d="M22.1119 32.8105C21.7098 31.9523 21.3159 31.127 20.9393 30.2922C20.8564 30.1084 20.7278 30.1478 20.6001 30.1478C19.1194 30.1459 17.6386 30.1468 16.1579 30.1459C16.0667 30.1459 15.9737 30.1543 15.8853 30.1384C15.7439 30.1131 15.6637 30.0136 15.6701 29.8673C15.6756 29.7388 15.7494 29.6488 15.8807 29.63C15.9591 29.6188 16.0394 29.6188 16.1187 29.6188C17.6788 29.6178 19.2397 29.6235 20.7998 29.6131C21.0752 29.6113 21.2302 29.6957 21.3505 29.9639C21.7827 30.9291 22.2423 31.881 22.6881 32.8405C22.8669 33.226 22.7711 33.3808 22.3526 33.3808C19.1404 33.3827 15.9281 33.3827 12.7168 33.3808C12.2937 33.3808 12.1971 33.2298 12.3758 32.8452C12.8299 31.8651 13.2921 30.8887 13.7416 29.9058C13.8365 29.6976 13.9678 29.6028 14.1912 29.616C14.4182 29.6291 14.6471 29.6141 14.8741 29.6225C15.0318 29.6282 15.133 29.7144 15.1294 29.887C15.1257 30.0577 15.0154 30.174 14.8677 30.1384C14.2304 29.9864 14.0398 30.4198 13.8392 30.8981C13.5967 31.4768 13.3195 32.0405 13.0478 32.6051C12.9657 32.7768 12.9602 32.848 13.1809 32.848C16.1196 32.8424 19.0583 32.8434 21.997 32.8424C22.0189 32.8424 22.0408 32.8312 22.1119 32.8105Z"  />
	<path d="M28.7606 27.0489C27.7823 27.0489 26.8039 27.0507 25.8256 27.0479C25.4262 27.047 25.3396 26.9251 25.4572 26.5293C25.7526 25.5369 26.059 24.5474 26.3435 23.5513C26.4228 23.2728 26.5468 23.1555 26.8441 23.1593C28.1406 23.1743 29.4381 23.1724 30.7347 23.1612C31.0027 23.1584 31.1495 23.2353 31.2289 23.5148C31.5188 24.5334 31.8306 25.5454 32.1297 26.5611C32.2391 26.9316 32.1525 27.0479 31.7641 27.0489C30.7629 27.0507 29.7618 27.0489 28.7606 27.0489ZM28.7789 26.5171C29.6214 26.5171 30.4648 26.5077 31.3073 26.5227C31.5598 26.5274 31.5781 26.4542 31.5088 26.231C31.2644 25.4535 31.0328 24.6712 30.8076 23.8871C30.7602 23.723 30.6818 23.678 30.5213 23.6789C29.3706 23.6855 28.2209 23.6864 27.0702 23.678C26.8896 23.677 26.8185 23.7352 26.7684 23.9134C26.5486 24.6862 26.3161 25.4563 26.0754 26.2235C26.0043 26.4495 26.0307 26.5264 26.2851 26.5217C27.1158 26.5077 27.9473 26.5171 28.7789 26.5171Z"  />
	<path d="M6.24847 27.0489C5.27012 27.0489 4.29176 27.0507 3.31341 27.0479C2.90767 27.047 2.82378 26.9316 2.94049 26.5386C3.24138 25.5238 3.55048 24.5108 3.84499 23.4932C3.91428 23.2531 4.03464 23.1584 4.28356 23.1602C5.60292 23.1706 6.92319 23.1696 8.24256 23.1602C8.49786 23.1584 8.62916 23.239 8.70483 23.5045C8.9957 24.523 9.31209 25.5332 9.61389 26.548C9.72422 26.9185 9.63213 27.0451 9.25191 27.046C8.25076 27.0507 7.24962 27.0489 6.24847 27.0489ZM3.48027 26.5171C5.30659 26.5171 7.0937 26.5161 8.8799 26.518C9.11605 26.518 9.02943 26.3726 8.99661 26.261C8.76045 25.4685 8.51245 24.6797 8.28815 23.8834C8.23709 23.7014 8.14864 23.6798 7.99728 23.6808C6.84752 23.6845 5.69683 23.6864 4.54707 23.6798C4.38841 23.6789 4.30635 23.7202 4.25803 23.8852C4.01002 24.7463 3.75107 25.6045 3.48027 26.5171Z"  />
	<path d="M14.74 26.5124C15.7786 26.5124 16.7797 26.5124 17.78 26.5124C18.0991 26.5124 18.4173 26.5124 18.7364 26.5133C18.9197 26.5142 19.0592 26.5902 19.051 26.7956C19.0428 26.9785 18.9106 27.0451 18.7401 27.0451C17.3168 27.0442 15.8925 27.0461 14.4692 27.0442C14.2003 27.0442 14.0899 26.8969 14.1674 26.6324C14.4838 25.5594 14.8084 24.4893 15.1276 23.4182C15.1823 23.2353 15.2971 23.1574 15.4822 23.1584C16.849 23.1612 18.2158 23.1612 19.5826 23.1574C19.7886 23.1565 19.8926 23.2597 19.9491 23.451C20.2591 24.5015 20.5755 25.5491 20.8846 26.6005C20.9767 26.9147 20.8873 27.032 20.5637 27.0451C20.4269 27.0507 20.2901 27.0498 20.1533 27.0442C20.0002 27.0376 19.8898 26.972 19.8807 26.7956C19.8725 26.6399 19.9555 26.5311 20.0923 26.5283C20.3211 26.5246 20.3111 26.4402 20.2518 26.2526C20.0075 25.475 19.775 24.6928 19.5552 23.9078C19.5023 23.7202 19.4139 23.6817 19.2434 23.6836C18.1045 23.6902 16.9657 23.6864 15.8269 23.6883C15.7202 23.6883 15.5926 23.6451 15.5452 23.8065C15.2798 24.6937 15.0145 25.5857 14.74 26.5124Z"  />
	<path d="M19.0728 7.51849C16.5444 7.51849 14.0151 7.51849 11.4867 7.51849C11.3846 7.51849 11.2788 7.52693 11.1803 7.50536C11.0527 7.47722 10.9962 7.37499 11.0062 7.24274C11.0153 7.12738 11.0709 7.03921 11.1886 7.02327C11.2898 7.01014 11.3928 7.01295 11.4958 7.01295C16.5417 7.01295 21.5875 7.01295 26.6343 7.01295C26.6799 7.01295 26.7255 7.01483 26.7711 7.01295C26.9562 7.00545 27.1385 7.03171 27.134 7.27088C27.1294 7.50817 26.9443 7.52037 26.762 7.52037C24.1989 7.51755 21.6359 7.51849 19.0728 7.51849Z"  />
	<path d="M15.1603 9.13547C12.8936 9.13547 10.6269 9.13547 8.3602 9.13547C8.25807 9.13547 8.15322 9.14204 8.05383 9.12515C7.92345 9.10358 7.85962 9.0051 7.86418 8.87379C7.86874 8.74342 7.93165 8.64963 8.06751 8.63556C8.15778 8.62618 8.24987 8.62993 8.34105 8.62993C12.8973 8.62993 17.4535 8.62993 22.0106 8.62993C22.079 8.62993 22.1474 8.63181 22.2158 8.62993C22.3781 8.62618 22.4848 8.69934 22.4884 8.87098C22.492 9.06137 22.3781 9.13922 22.2021 9.13641C22.1228 9.13453 22.0425 9.13641 21.9632 9.13641C19.6947 9.13547 17.428 9.13547 15.1603 9.13547Z"  />
	<path d="M13.6413 10.2432C15.371 10.2432 17.0998 10.2432 18.8294 10.2432C18.9315 10.2432 19.0346 10.2413 19.1367 10.2497C19.2707 10.261 19.34 10.3482 19.3455 10.4814C19.3519 10.6305 19.2799 10.7281 19.1321 10.7468C19.0428 10.7581 18.9507 10.7534 18.8595 10.7534C15.3555 10.7534 11.8515 10.7534 8.34748 10.7534C8.2563 10.7534 8.16421 10.76 8.07485 10.7468C7.92897 10.7252 7.85602 10.6268 7.86514 10.4776C7.87335 10.3473 7.94355 10.2591 8.0785 10.2497C8.18062 10.2432 8.28274 10.2432 8.38577 10.2432C10.1373 10.2422 11.8898 10.2432 13.6413 10.2432Z"  />
	<path d="M19.9272 11.8601C21.6587 11.8601 23.3893 11.8601 25.1208 11.8601C25.2229 11.8601 25.3269 11.8554 25.4281 11.8705C25.5566 11.8892 25.6305 11.9783 25.6323 12.1106C25.6341 12.2447 25.5539 12.331 25.4326 12.3572C25.3451 12.376 25.2512 12.3666 25.16 12.3666C21.6405 12.3666 18.1219 12.3666 14.6024 12.3666C14.5231 12.3666 14.4419 12.3722 14.3635 12.3619C14.2158 12.3422 14.1447 12.2456 14.1501 12.0956C14.1556 11.9614 14.224 11.8761 14.3589 11.8648C14.4492 11.8573 14.5413 11.8592 14.6325 11.8592C16.3968 11.8601 18.162 11.8601 19.9272 11.8601Z"  />
	<path d="M12.8234 13.4771C14.3023 13.4771 15.7813 13.4771 17.2602 13.4771C17.3514 13.4771 17.4426 13.4781 17.5328 13.479C17.6824 13.4818 17.769 13.5597 17.7735 13.7135C17.7781 13.8823 17.6906 13.9733 17.5264 13.9817C17.4471 13.9855 17.3669 13.9836 17.2876 13.9836C14.3069 13.9836 11.3263 13.9836 8.34653 13.9836C8.25535 13.9836 8.16326 13.992 8.0739 13.977C7.92984 13.9536 7.85598 13.8551 7.86601 13.706C7.87513 13.5747 7.94443 13.4884 8.0812 13.4809C8.17238 13.4752 8.26264 13.4762 8.35382 13.4762C9.84278 13.4771 11.3336 13.4771 12.8234 13.4771Z"  />
	<path d="M23.0008 13.4771C24.229 13.4771 25.4581 13.4771 26.6863 13.4771C26.7656 13.4771 26.8458 13.479 26.9252 13.4771C27.0856 13.4734 27.1969 13.5437 27.2005 13.7144C27.2051 13.9001 27.0939 13.9845 26.9161 13.9836C26.5295 13.9827 26.1429 13.9836 25.7563 13.9836C23.6181 13.9836 21.48 13.9836 19.3409 13.9836C19.2497 13.9836 19.1576 13.9902 19.0683 13.977C18.9215 13.9555 18.854 13.8551 18.8631 13.705C18.8713 13.57 18.9406 13.4884 19.0765 13.4799C19.1677 13.4743 19.2579 13.4762 19.3491 13.4762C20.5673 13.4771 21.7836 13.4771 23.0008 13.4771Z"  />
	<path d="M17.531 34.9978C16.5298 34.9978 15.5287 34.9968 14.5275 34.9987C14.3379 34.9987 14.1282 35.0015 14.1172 34.7473C14.1063 34.466 14.3269 34.4622 14.5293 34.4622C16.5316 34.4622 18.5339 34.4622 20.5362 34.4622C20.7222 34.4622 20.9356 34.4547 20.9447 34.7154C20.9547 35.0015 20.735 34.9987 20.5344 34.9978C19.5333 34.9978 18.5321 34.9978 17.531 34.9978Z"  />
	<path d="M4.95838 34.9978C3.98003 34.9978 3.00168 34.9978 2.02241 34.9978C1.93123 34.9978 1.83914 35.0025 1.74979 34.9912C1.60846 34.9734 1.51819 34.8862 1.51272 34.7389C1.50634 34.5898 1.59296 34.4988 1.73337 34.4744C1.81088 34.4613 1.89203 34.4631 1.97135 34.4631C3.95085 34.4622 5.93126 34.4631 7.91076 34.4631C7.97914 34.4631 8.04844 34.4594 8.115 34.4707C8.25177 34.4932 8.34751 34.5635 8.34842 34.723C8.35024 34.8974 8.25268 34.9771 8.09768 34.9949C8.01926 35.0034 7.93902 34.9987 7.85879 34.9987C6.8932 34.9978 5.92579 34.9978 4.95838 34.9978Z"  />
	<path d="M30.0436 34.9978C29.0534 34.9978 28.0641 34.9978 27.0739 34.9978C26.9499 34.9978 26.8195 35.0165 26.7192 34.9134C26.6362 34.8289 26.6316 34.722 26.6718 34.6207C26.7292 34.4772 26.8596 34.4641 26.9872 34.4641C27.6127 34.4622 28.2391 34.4631 28.8646 34.4631C30.2296 34.4631 31.5954 34.4631 32.9604 34.4631C33.0516 34.4631 33.1428 34.4603 33.233 34.4697C33.3889 34.4857 33.4938 34.5701 33.4874 34.7389C33.481 34.9049 33.3734 34.9912 33.2175 34.995C32.9558 35.0015 32.6942 34.9978 32.4325 34.9978C31.6365 34.9978 30.8405 34.9978 30.0436 34.9978Z"  />
	<path d="M23.7859 10.2432C24.798 10.2432 25.8101 10.2441 26.8222 10.2422C27 10.2422 27.1896 10.2394 27.1997 10.4833C27.2088 10.7206 27.0383 10.7543 26.8486 10.7543C25.8821 10.7515 24.9156 10.7534 23.9482 10.7534C22.9024 10.7534 21.8557 10.7534 20.8098 10.7534C20.6621 10.7534 20.4898 10.774 20.447 10.5789C20.3859 10.2985 20.5555 10.2413 20.7843 10.2422C21.7845 10.245 22.7857 10.2432 23.7859 10.2432Z"  />
	<path d="M17.5703 28.013C18.2979 28.013 19.0255 28.014 19.7531 28.0121C19.9327 28.0121 20.1224 28.0159 20.1278 28.2569C20.1333 28.5158 19.9409 28.5317 19.7449 28.5308C18.2669 28.5289 16.7888 28.528 15.3108 28.5308C15.1248 28.5308 14.9425 28.5101 14.9343 28.2822C14.9251 28.0215 15.1239 28.0102 15.319 28.0112C16.0694 28.0149 16.8198 28.013 17.5703 28.013Z"  />
	<path d="M6.27589 28.5308C5.53734 28.5308 4.79787 28.5298 4.05932 28.5317C3.86511 28.5317 3.67364 28.5223 3.68367 28.2522C3.69278 27.9962 3.88973 28.0149 4.06024 28.0149C5.53825 28.014 7.01626 28.0149 8.49428 28.014C8.67116 28.014 8.86538 28.0121 8.87358 28.2532C8.88179 28.5101 8.69122 28.5336 8.49336 28.5327C7.7539 28.5289 7.01535 28.5308 6.27589 28.5308Z"  />
	<path d="M28.7835 28.5308C28.0559 28.5308 27.3282 28.5298 26.6006 28.5317C26.4119 28.5327 26.2049 28.5383 26.1922 28.2813C26.1794 28.013 26.3864 28.013 26.5769 28.013C28.0549 28.014 29.533 28.013 31.011 28.014C31.1842 28.014 31.3784 28.0018 31.383 28.2578C31.3875 28.528 31.1924 28.5317 31.0009 28.5317C30.2615 28.5298 29.522 28.5308 28.7835 28.5308Z"  />
	<path d="M10.4884 11.8601C11.216 11.8601 11.9436 11.8601 12.6712 11.8601C12.8563 11.8601 13.066 11.8423 13.0578 12.1209C13.0496 12.3948 12.838 12.3676 12.6548 12.3676C11.1995 12.3676 9.74433 12.3676 8.28911 12.3676C8.0949 12.3676 7.86148 12.3985 7.86786 12.104C7.87516 11.8048 8.12043 11.863 8.30461 11.862C9.03313 11.8583 9.76074 11.8601 10.4884 11.8601Z"  />
	<path d="M8.88816 7.51849C8.63833 7.51849 8.3885 7.51755 8.13867 7.51849C7.97819 7.51943 7.8706 7.44627 7.86513 7.27744C7.85875 7.08892 7.96998 7.01107 8.14778 7.01201C8.64745 7.01389 9.1462 7.01295 9.64586 7.01201C9.80542 7.01201 9.91301 7.07673 9.91757 7.25212C9.92304 7.44345 9.81454 7.52036 9.63674 7.51849C9.38782 7.51661 9.13799 7.51849 8.88816 7.51849Z"  />
	<path d="M24.601 8.62993C24.8508 8.62993 25.1007 8.63274 25.3505 8.62899C25.511 8.62712 25.6213 8.69277 25.6295 8.86253C25.6386 9.04918 25.5301 9.13547 25.3523 9.13547C24.8527 9.13547 24.3539 9.13453 23.8542 9.13641C23.6755 9.13641 23.5716 9.05575 23.578 8.86535C23.5844 8.68808 23.6938 8.62899 23.8524 8.62993C24.1013 8.6318 24.3512 8.62993 24.601 8.62993Z"  />
</svg>
