<svg viewBox="0 0 35 33" xmlns="http://www.w3.org/2000/svg">
	<path d="M35 15.504C34.8091 15.9715 34.4435 16.1136 33.9624 16.1059C32.9504 16.0905 31.9385 16.1007 30.8692 16.1007C30.8692 16.2677 30.8692 16.4098 30.8692 16.5519C30.8692 21.3025 30.8701 26.0523 30.8658 30.803C30.8658 31.0504 30.8521 31.3106 30.7767 31.5427C30.6132 32.0469 30.2254 32.3046 29.7074 32.3697C29.5953 32.3842 29.4797 32.3808 29.3658 32.3808C21.4484 32.3817 13.5318 32.3808 5.61437 32.3825C5.2274 32.3825 4.86611 32.3252 4.5639 32.0598C4.25998 31.7935 4.13584 31.4476 4.13498 31.0555C4.1307 29.8595 4.12899 28.6635 4.13498 27.4675C4.13669 27.072 4.32076 26.8554 4.62383 26.8502C4.93803 26.8451 5.12723 27.0763 5.12809 27.4846C5.13066 28.6464 5.13408 29.8081 5.12552 30.9708C5.12381 31.2627 5.23681 31.3791 5.52961 31.3783C8.09285 31.3731 10.6561 31.3749 13.2185 31.374C13.2733 31.374 13.3272 31.3646 13.4214 31.3552C13.4214 31.1951 13.4214 31.0504 13.4214 30.9066C13.4214 26.9538 13.4205 23.0011 13.4222 19.0484C13.4222 18.2804 13.7253 17.8104 14.3254 17.658C14.477 17.6195 14.6405 17.6169 14.7989 17.6161C16.8039 17.6135 18.809 17.6126 20.814 17.6152C21.7318 17.6161 22.1967 18.0818 22.1975 19.0081C22.2001 22.972 22.1984 26.9367 22.1984 30.9006C22.1984 31.0452 22.1984 31.1908 22.1984 31.356C22.3439 31.3637 22.4543 31.374 22.5648 31.374C24.8318 31.3749 27.0988 31.3749 29.3658 31.374C29.8436 31.374 29.871 31.3457 29.871 30.868C29.871 25.9582 29.8701 21.0483 29.8752 16.1384C29.8752 15.9149 29.8127 15.766 29.6398 15.6162C25.6836 12.1814 21.7326 8.73977 17.7799 5.29986C17.6951 5.22623 17.6061 5.15688 17.4931 5.06442C17.0488 5.44968 16.6113 5.82723 16.1755 6.20649C12.567 9.34762 8.9601 12.4896 5.34725 15.6256C5.18459 15.7668 5.12209 15.9055 5.12295 16.1179C5.1298 18.9431 5.12723 21.7683 5.12723 24.5935C5.12723 24.6842 5.1298 24.7758 5.12637 24.8666C5.11182 25.2116 4.9406 25.4111 4.65123 25.4214C4.35415 25.4325 4.16923 25.251 4.13669 24.9068C4.12642 24.7938 4.1307 24.6791 4.1307 24.5652C4.1307 21.9113 4.1307 19.2564 4.1307 16.6024C4.1307 16.4552 4.1307 16.3071 4.1307 16.1161C3.99458 16.1093 3.87472 16.099 3.75572 16.099C2.82169 16.0973 1.88765 16.0973 0.953621 16.0982C0.647128 16.0982 0.362038 16.0451 0.161705 15.7823C-0.092564 15.4475 -0.0489016 15.028 0.30639 14.7138C1.19334 13.9287 2.09055 13.1557 2.98435 12.3774C3.66326 11.7867 4.34559 11.1994 5.01593 10.6001C5.11353 10.5128 5.21199 10.3621 5.21284 10.2397C5.22568 8.80483 5.22055 7.36911 5.21884 5.93339C5.21884 5.88973 5.20171 5.84692 5.19058 5.79298C5.08442 5.77929 4.9834 5.76901 4.88409 5.75446C4.41493 5.68426 4.17094 5.44197 4.14697 4.96682C4.12385 4.51222 4.12556 4.05505 4.14183 3.60045C4.16323 3.01486 4.47058 2.7409 5.0947 2.73662C6.0176 2.73063 6.9405 2.73491 7.86255 2.73491C8.75121 2.73491 9.63987 2.73319 10.5285 2.73576C11.2528 2.73833 11.5456 3.03027 11.5482 3.74856C11.5499 4.11155 11.5482 4.4737 11.5482 4.8932C11.6655 4.80416 11.7451 4.75108 11.817 4.68858C13.4856 3.24173 15.1525 1.7906 16.821 0.342036C17.3493 -0.116847 17.6558 -0.114278 18.1917 0.351454C20.6239 2.46694 23.0545 4.58414 25.4859 6.70048C25.5287 6.73815 25.5724 6.77496 25.6143 6.81348C25.9045 7.07974 25.9559 7.35284 25.7598 7.58657C25.5535 7.83227 25.2667 7.82542 24.9508 7.55146C24.0981 6.81434 23.2488 6.07208 22.3978 5.33153C20.7746 3.91893 19.1514 2.50546 17.5008 1.06974C12.1492 5.72621 6.80438 10.3784 1.38168 15.0974C2.28746 15.0974 3.09137 15.0802 3.89355 15.1051C4.28138 15.117 4.56904 15.0066 4.86611 14.7463C8.82655 11.2816 12.7998 7.83056 16.768 4.37524C17.3544 3.86499 17.6421 3.86242 18.2191 4.36411C22.2651 7.88707 26.3112 11.4092 30.3607 14.9287C30.4488 15.0057 30.5721 15.0879 30.6791 15.0896C31.6217 15.1025 32.5652 15.0965 33.5891 15.0965C33.453 14.9672 33.3717 14.8833 33.2835 14.8071C31.2134 13.0041 29.1432 11.2011 27.0731 9.39898C27.0132 9.34676 26.9507 9.29625 26.8942 9.2406C26.6545 9.00345 26.6237 8.72692 26.8103 8.51204C26.9978 8.29544 27.2837 8.27403 27.5423 8.4932C28.1852 9.03855 28.8171 9.59589 29.4523 10.1498C31.162 11.6386 32.8725 13.1248 34.5779 14.6179C34.7355 14.7558 34.8587 14.9338 34.9983 15.0939C35 15.2309 35 15.367 35 15.504ZM21.195 31.3594C21.195 31.2327 21.195 31.1334 21.195 31.0333C21.195 27.0489 21.195 23.0644 21.195 19.0809C21.195 18.6357 21.1616 18.6015 20.7061 18.6015C18.7824 18.6006 16.8587 18.6006 14.935 18.6015C14.4453 18.6015 14.4239 18.6246 14.4239 19.128C14.4239 23.0781 14.4239 27.0283 14.4239 30.9785C14.4239 31.1 14.4239 31.2225 14.4239 31.3594C16.6883 31.3594 18.916 31.3594 21.195 31.3594ZM9.60048 5.79898C8.4781 5.79898 7.36086 5.79898 6.24191 5.79898C6.24191 7.04635 6.24191 8.26633 6.24191 9.53083C6.33522 9.4572 6.39601 9.41182 6.45251 9.36303C7.35316 8.57967 8.23411 7.77235 9.16215 7.02409C9.57908 6.68678 9.73746 6.33149 9.60048 5.79898ZM10.526 3.76825C8.7221 3.76825 6.93537 3.76825 5.15891 3.76825C5.15891 4.11669 5.15891 4.43859 5.15891 4.7468C6.96704 4.7468 8.74607 4.7468 10.526 4.7468C10.526 4.40692 10.526 4.09272 10.526 3.76825Z"  />
</svg>
