<svg viewBox="0 0 35 35" xmlns="http://www.w3.org/2000/svg">
	<path d="M0 4.09631C0.252461 3.28424 0.83303 2.93791 1.64965 2.78297C5.79657 1.99824 9.9362 1.17524 14.0795 0.366817C14.6382 0.257447 15.1969 0.153546 15.7556 0.0441771C16.8666 -0.172739 17.6559 0.421501 17.7625 1.5553C17.768 1.60998 17.7798 1.66375 17.7935 1.74943C18.4488 1.74943 19.0959 1.74943 19.7439 1.74943C19.8806 1.74943 20.0182 1.74396 20.154 1.75581C20.4639 1.78133 20.6489 1.97181 20.6507 2.25526C20.6526 2.53689 20.4712 2.74286 20.1622 2.76565C19.8788 2.78661 19.5926 2.77385 19.3082 2.77476C18.8088 2.77568 18.3093 2.77476 17.7862 2.77476C17.7862 12.4102 17.7862 22.0183 17.7862 31.6492C17.9074 31.6556 18.0177 31.6665 18.128 31.6665C20.1331 31.6674 22.1382 31.6683 24.1433 31.6665C24.7767 31.6665 24.928 31.5143 24.928 30.879C24.9289 27.6317 24.9289 24.3852 24.928 21.1379C24.928 21.0267 24.9189 20.9155 24.9125 20.7697C24.7676 20.7697 24.6455 20.7697 24.5233 20.7697C23.2018 20.7697 21.8802 20.7706 20.5587 20.7687C19.7767 20.7678 19.3565 20.3477 19.3556 19.5657C19.3538 18.0044 19.3538 16.4441 19.3556 14.8829C19.3565 14.0826 19.7749 13.6716 20.5842 13.6707C21.8939 13.6698 23.2045 13.6707 24.5142 13.6707C24.6382 13.6707 24.7612 13.6707 24.9298 13.6707C24.9298 13.5212 24.9298 13.3991 24.9298 13.2779C24.9298 10.0424 24.9298 6.80685 24.9298 3.57134C24.9298 2.91694 24.7849 2.77568 24.1205 2.77476C23.6083 2.77385 23.0952 2.77932 22.5829 2.77294C22.1947 2.76747 21.9532 2.55238 21.965 2.24068C21.9769 1.94082 22.2029 1.7549 22.5848 1.75125C23.1425 1.74578 23.7012 1.74487 24.259 1.75034C25.3254 1.76036 25.9524 2.38833 25.9542 3.46197C25.9588 5.96835 25.9561 8.47473 25.9561 10.9811C25.9561 11.7449 25.9561 12.5077 25.9561 13.2715C25.9561 13.3936 25.9561 13.5148 25.9561 13.6543C26.3325 13.6543 26.6706 13.6543 27.0634 13.6543C27.0634 13.2624 27.0744 12.8677 27.0607 12.4749C27.0416 11.9463 27.2248 11.5316 27.7169 11.3056C28.2118 11.0786 28.6384 11.2317 29.0339 11.5735C30.8358 13.1293 32.6477 14.6741 34.4431 16.2363C34.6664 16.4304 34.8168 16.7084 35 16.9481C35 17.1304 35 17.3127 35 17.495C34.8414 17.7119 34.7175 17.9671 34.5206 18.1393C32.6823 19.7379 30.8312 21.3211 28.9838 22.9097C28.6065 23.2341 28.1863 23.3535 27.7206 23.1402C27.2448 22.9224 27.0452 22.5269 27.0598 22.0083C27.0707 21.6027 27.0616 21.1971 27.0616 20.797C26.6651 20.797 26.3179 20.797 25.9542 20.797C25.9542 20.9711 25.9542 21.1187 25.9542 21.2664C25.9542 24.4654 25.9542 27.6654 25.9542 30.8644C25.9542 32.0912 25.3573 32.6918 24.1369 32.6927C22.1555 32.6936 20.175 32.6927 18.1936 32.6927C18.0605 32.6927 17.9265 32.6927 17.7917 32.6927C17.778 32.7766 17.768 32.8203 17.7634 32.865C17.6595 34.0225 16.8775 34.6158 15.7464 34.3953C14.5862 34.1692 13.4251 33.9432 12.2649 33.7172C8.72767 33.0272 5.19231 32.3236 1.65057 31.6592C0.832118 31.5061 0.253372 31.1561 0 30.3459C0 25.4926 0 20.6393 0 15.7852C0.185016 15.5755 0.378236 15.3805 0.695407 15.5072C1.00893 15.6329 1.02716 15.9 1.02716 16.1871C1.02443 20.7332 1.02534 25.2784 1.02534 29.8245C1.02534 30.365 1.14655 30.5099 1.66697 30.6111C6.41269 31.5352 11.1593 32.4594 15.905 33.3845C16.4738 33.4957 16.7353 33.2961 16.7353 32.7237C16.7362 22.3901 16.7362 12.0566 16.7353 1.723C16.7353 1.14516 16.4774 0.94374 15.9123 1.05402C11.1657 1.98093 6.41998 2.90601 1.67335 3.82927C1.14929 3.93134 1.02534 4.07535 1.02534 4.60943C1.02534 7.54873 1.02716 10.488 1.01987 13.4273C1.01987 13.6005 0.989792 13.8037 0.896828 13.9405C0.680824 14.2585 0.31626 14.1911 0 13.8028C0 10.5682 0 7.33182 0 4.09631ZM20.3956 19.7452C20.5505 19.7452 20.6845 19.7452 20.8175 19.7452C22.8901 19.7452 24.9617 19.7434 27.0343 19.7461C27.726 19.7471 28.0787 20.1043 28.0851 20.8016C28.0888 21.1889 28.0842 21.5763 28.0879 21.9627C28.0888 22.0438 28.1125 22.1249 28.1371 22.2808C30.1267 20.5701 32.0616 18.9067 34.0239 17.2197C32.0434 15.519 30.1103 13.8584 28.1772 12.1978C28.1462 12.2179 28.1161 12.2379 28.0851 12.258C28.0851 12.6982 28.086 13.1384 28.0851 13.5786C28.0824 14.3588 27.7443 14.696 26.9577 14.696C24.897 14.6969 22.8363 14.696 20.7756 14.696C20.6544 14.696 20.5332 14.696 20.3956 14.696C20.3956 16.3876 20.3956 18.0354 20.3956 19.7452Z"  />
	<path d="M14.8332 17.2553C14.8332 17.5515 14.8387 17.8468 14.8314 18.143C14.8077 19.1237 13.8416 19.8756 12.8892 19.6541C12.6094 19.5885 12.4453 19.4016 12.469 19.1155C12.4918 18.8338 12.6668 18.6634 12.963 18.6479C13.0879 18.6415 13.2155 18.6525 13.3367 18.6288C13.6265 18.5723 13.8051 18.4036 13.8061 18.0919C13.8079 17.5114 13.8134 16.9308 13.8042 16.3511C13.7988 16.0021 13.5882 15.8225 13.2009 15.7997C12.6695 15.7688 12.438 15.5992 12.4617 15.2593C12.4854 14.9184 12.7579 14.7544 13.2638 14.7744C14.1943 14.8118 14.8259 15.4671 14.8323 16.4031C14.835 16.6865 14.8332 16.9709 14.8332 17.2553Z"  />
</svg>
