<svg viewBox="0 0 35 35" xmlns="http://www.w3.org/2000/svg">
	<path d="M21.2598 35C15.7682 35 10.2767 35 4.78516 35C3.91016 34.6956 3.79167 33.9783 3.86914 33.1771C3.26849 33.1406 2.70339 33.2619 2.26406 32.8043C1.83385 32.3559 1.95872 31.7908 1.91042 31.2375C1.78372 31.2375 1.68255 31.2284 1.5832 31.2393C0.845833 31.3168 0.303516 31.0479 0 30.3516C0 20.5306 0 10.7096 0 0.888672C0.179557 0.475781 0.475781 0.179557 0.888672 0C7.77018 0 14.6517 0 21.5332 0C22.4583 0.320833 22.5148 1.08464 22.451 1.91771C23.0152 1.94505 23.5685 1.84206 24.0096 2.25039C24.4553 2.66328 24.3861 3.21471 24.3988 3.76159C24.5611 3.76159 24.685 3.77161 24.8072 3.75977C25.7478 3.66771 26.3931 4.23281 26.3275 5.29102C26.2828 6.00469 26.3184 6.72383 26.3202 7.44115C26.3202 7.54961 26.3311 7.65807 26.3384 7.78385C26.4514 7.78385 26.5298 7.78294 26.6082 7.78385C30.4199 7.83307 33.6492 10.2949 34.681 13.9562C34.825 14.4658 34.8961 14.9962 35.0009 15.5167C35.0009 15.9952 35.0009 16.4737 35.0009 16.9522C34.9799 17.0397 34.9599 17.1281 34.938 17.2147C34.7512 17.9512 34.6126 18.7031 34.3647 19.4186C34.0612 20.2954 33.5435 21.0656 32.9337 21.7665C32.7232 22.009 32.4324 22.0318 32.2064 21.8458C31.9712 21.6517 31.9457 21.3883 32.1417 21.1212C32.2018 21.0383 32.272 20.9635 32.3358 20.8833C32.8717 20.2116 33.2874 19.4751 33.5645 18.6402C33.4523 18.602 33.3594 18.5628 33.2637 18.5382C31.1764 17.9858 29.0865 17.4398 27.002 16.8775C26.7704 16.8146 26.6319 16.8592 26.4687 17.0233C24.9448 18.5591 23.4126 20.0858 21.8832 21.6161C21.813 21.6863 21.7483 21.7629 21.6553 21.8641C21.998 22.1047 22.3079 22.359 22.6506 22.5568C25.0715 23.9595 27.5388 24.0424 30.0444 22.7874C30.4318 22.5932 30.707 22.6461 30.8583 22.9505C31.0069 23.2495 30.9012 23.4919 30.5329 23.6879C29.7445 24.109 28.9133 24.4143 28.0292 24.5465C27.4714 24.6303 26.9062 24.6714 26.3193 24.7333C26.3193 24.8536 26.3193 24.9776 26.3193 25.1007C26.3193 26.6036 26.3257 28.1066 26.3111 29.6096C26.3092 29.7965 26.2464 30.0362 26.1224 30.1611C24.51 31.7844 22.8831 33.3904 21.2598 35ZM25.2756 24.6194C21.3874 24.1126 18.1827 20.6017 18.0751 16.3908C17.9831 12.7805 20.66 8.46471 25.2921 7.83216C25.2921 6.97083 25.2921 6.10586 25.2921 5.24089C25.2921 4.78789 25.2911 4.78698 24.8382 4.78698C18.3458 4.78698 11.8535 4.78698 5.3612 4.78698C4.88906 4.78698 4.88724 4.78789 4.88724 5.26003C4.88724 14.6799 4.88724 24.099 4.88724 33.5189C4.88724 33.9737 4.88906 33.9746 5.34297 33.9746C10.2858 33.9746 15.2296 33.9746 20.1724 33.9746C20.2927 33.9746 20.413 33.9746 20.5598 33.9746C20.5598 33.8033 20.5598 33.6802 20.5598 33.5563C20.5598 32.5427 20.557 31.5292 20.5607 30.5147C20.5643 29.6935 21.0328 29.2186 21.8513 29.2132C22.7737 29.2068 23.6961 29.2113 24.6194 29.2113C24.8327 29.2113 25.046 29.2113 25.2738 29.2113C25.2757 27.6628 25.2756 26.1516 25.2756 24.6194ZM1.92682 30.1893C1.92682 30.0371 1.92682 29.9022 1.92682 29.7682C1.92682 27.5014 1.92682 25.2346 1.92682 22.9669C1.92682 16.4163 1.92682 9.86654 1.92773 3.31589C1.92773 2.39805 2.39896 1.92773 3.3168 1.92682C4.3987 1.925 5.48151 1.92409 6.56341 1.92773C6.98268 1.92956 7.18503 2.10091 7.18867 2.43815C7.19232 2.78268 6.99909 2.94948 6.57708 2.9513C5.54076 2.95404 4.50352 2.95221 3.46719 2.95221C2.95312 2.95221 2.95312 2.95221 2.95312 3.45898C2.95312 12.857 2.95312 22.2551 2.95312 31.6531C2.95312 31.7443 2.92669 31.8491 2.96315 31.9229C3.00417 32.0077 3.0944 32.1152 3.1737 32.1253C3.39336 32.1526 3.61849 32.1344 3.86367 32.1344C3.86367 31.9284 3.86367 31.7698 3.86367 31.6112C3.86367 22.8056 3.86367 14 3.86458 5.19349C3.86458 4.19544 4.30299 3.76068 5.30378 3.76068C11.1818 3.76068 17.0598 3.76068 22.9378 3.76068C23.0708 3.76068 23.2039 3.76068 23.3306 3.76068C23.4454 2.97591 23.4254 2.95039 22.7181 2.95039C18.4461 2.95039 14.1741 2.95039 9.90208 2.95039C9.77721 2.95039 9.65052 2.95495 9.52656 2.94401C9.24219 2.9194 9.1 2.75078 9.08542 2.4737C9.07083 2.19844 9.19479 2.00794 9.46823 1.94779C9.59948 1.91862 9.73984 1.92591 9.87565 1.92591C13.578 1.925 17.2803 1.925 20.9827 1.925C21.1258 1.925 21.268 1.925 21.4138 1.925C21.422 1.79102 21.4293 1.71172 21.4311 1.63242C21.4411 1.02357 21.4411 1.02357 20.8214 1.02357C14.3965 1.02357 7.97161 1.02357 1.54674 1.02357C1.02721 1.02357 1.02721 1.02357 1.02721 1.54674C1.02721 10.8427 1.02721 20.1378 1.02721 29.4337C1.02539 30.2641 1.02539 30.2641 1.92682 30.1893ZM29.0901 9.27865C26.2792 8.15664 22.2715 8.96602 20.1888 12.3658C18.2674 15.5021 19.1479 19.2637 20.9581 21.0747C20.9918 21.0456 21.0273 21.0173 21.0592 20.9854C22.6944 19.3512 24.3305 17.7178 25.9592 16.079C26.0759 15.9624 26.1643 15.8065 26.2327 15.6543C27.1469 13.6345 28.0556 11.6129 28.9643 9.59036C29.0117 9.48919 29.0491 9.38255 29.0901 9.27865ZM30.0371 9.70339C29.1065 11.7742 28.185 13.8214 27.2553 15.8904C29.4711 16.4773 31.6404 17.0516 33.8105 17.6267C34.4677 14.6672 32.9674 11.1699 30.0371 9.70339ZM21.5897 33.0103C22.5158 32.1116 23.4792 31.1764 24.4471 30.2385C23.594 30.2385 22.7299 30.2322 21.8659 30.2486C21.7729 30.2504 21.6034 30.3835 21.6016 30.4582C21.5824 31.3523 21.5897 32.2474 21.5897 33.0103Z"  />
	<path d="M14.8394 24.0397C15.5012 24.0397 16.1137 24.0379 16.7271 24.0406C17.2557 24.0424 17.418 24.2047 17.4189 24.737C17.4207 26.2062 17.4198 27.6755 17.4198 29.1448C17.4198 29.2678 17.4198 29.3909 17.4198 29.5285C17.582 29.5458 17.7169 29.5476 17.8472 29.5759C18.1161 29.6333 18.2638 29.8065 18.2547 30.0845C18.2456 30.3607 18.0915 30.5265 17.8172 30.5666C17.7051 30.5831 17.5902 30.5794 17.4763 30.5794C14.5259 30.5803 11.5764 30.5803 8.62602 30.5803C8.60324 30.5803 8.58045 30.5803 8.55766 30.5803C8.07186 30.5767 7.85584 30.4263 7.84673 30.0863C7.83761 29.7454 8.04269 29.5859 8.52667 29.5531C8.57042 29.5504 8.61326 29.5394 8.68527 29.5267C8.68527 28.6353 8.68527 27.7484 8.68527 26.8625C8.68527 26.5553 8.6798 26.2472 8.68709 25.9401C8.69621 25.5409 8.87759 25.3586 9.27863 25.3558C9.92485 25.3504 10.5711 25.354 11.2592 25.354C11.2592 25.1271 11.2592 24.9366 11.2592 24.747C11.2592 23.9495 11.2565 23.1519 11.261 22.3553C11.2638 21.8841 11.426 21.7255 11.9027 21.7237C12.6656 21.72 13.4294 21.72 14.1923 21.7237C14.6799 21.7255 14.8376 21.8887 14.8394 22.3854C14.8413 22.9177 14.8394 23.4527 14.8394 24.0397ZM13.794 29.5349C13.794 27.2699 13.794 25.0241 13.794 22.7664C13.2909 22.7664 12.8078 22.7664 12.3083 22.7664C12.3083 25.0305 12.3083 27.2754 12.3083 29.5349C12.8133 29.5349 13.2954 29.5349 13.794 29.5349ZM14.8631 29.5303C15.3745 29.5303 15.8657 29.5303 16.3698 29.5303C16.3698 28.0364 16.3698 26.5653 16.3698 25.0952C15.853 25.0952 15.3608 25.0952 14.8631 25.0952C14.8631 26.5872 14.8631 28.0492 14.8631 29.5303ZM11.2346 26.4058C10.7151 26.4058 10.222 26.4058 9.73345 26.4058C9.73345 27.464 9.73345 28.494 9.73345 29.5367C10.2411 29.5367 10.7269 29.5367 11.2346 29.5367C11.2346 28.4903 11.2346 27.4604 11.2346 26.4058Z"  />
	<path d="M13.3282 8.45376C14.9561 8.45376 16.5849 8.45467 18.2128 8.45285C18.4762 8.45285 18.7168 8.47837 18.8271 8.77095C18.9465 9.08723 18.7715 9.40259 18.4342 9.46275C18.3458 9.47824 18.2529 9.47824 18.1626 9.47915C14.9406 9.48006 11.7186 9.48006 8.49661 9.47824C8.39452 9.47824 8.29062 9.47368 8.19218 9.4509C7.91054 9.38801 7.79843 9.18202 7.81757 8.91952C7.83489 8.6716 7.96887 8.49113 8.2414 8.46379C8.35442 8.45285 8.46835 8.45376 8.58228 8.45376C10.1637 8.45376 11.746 8.45376 13.3282 8.45376Z"  />
	<path d="M12.167 12.2135C13.3738 12.2135 14.5806 12.2135 15.7874 12.2144C15.9013 12.2144 16.0161 12.2126 16.1282 12.2281C16.3962 12.2664 16.5238 12.4469 16.5348 12.6984C16.5457 12.9491 16.4372 13.1432 16.1756 13.2088C16.0781 13.2335 15.9733 13.238 15.8712 13.238C13.4121 13.2398 10.9539 13.2398 8.49478 13.238C8.39269 13.238 8.28879 13.2335 8.19035 13.2125C7.92512 13.156 7.80936 12.9618 7.81574 12.7139C7.82212 12.4505 7.95428 12.2573 8.2423 12.2254C8.35532 12.2126 8.46926 12.2144 8.58319 12.2144C9.7772 12.2135 10.9721 12.2135 12.167 12.2135Z"  />
	<path d="M11.6065 17.0042C10.5711 17.0042 9.53474 17.0115 8.49932 16.9978C8.31794 16.9951 8.07641 16.9568 7.97341 16.8383C7.86404 16.7125 7.83578 16.4628 7.86677 16.2841C7.90961 16.0389 8.13474 15.9779 8.37263 15.9779C9.87472 15.9806 11.3777 15.9788 12.8798 15.9788C13.5288 15.9788 14.1777 15.977 14.8267 15.9797C15.2396 15.9815 15.4492 16.1583 15.4455 16.4892C15.4419 16.8173 15.2286 17.0005 14.8166 17.0024C13.7466 17.0069 12.6765 17.0042 11.6065 17.0042Z"  />
</svg>
