<svg id="Layer_1" data-name="Layer 1" xmlns="http://www.w3.org/2000/svg" viewBox="0 0 1046.78 996.68">
	<title>
		report-card
	</title>
	<path class="cls-1" d="M1061.66,727.82c-6.44-57.27-32.75-103.77-76.86-140.32-5.53-4.58-7.69-9-7.66-16.12q.33-235.63.16-471.25c0-39.57-18.71-58.45-57.92-58.45H417.5c-3.41,0-6.82-.11-10.23.14-28,2-47.13,22.09-47.35,50.15-.19,23.87,0,47.71-.11,71.57,0,6.57,1.45,12.16,7.34,15.76,11,6.66,23.15-1.2,23.32-15.43.27-21.47.08-42.93.08-64.4,0-22.17,4.88-27.1,26.89-27.13H919.29c22.1,0,27.33,5.21,27.33,27V561.92c-3.9-1.58-6.73-2.62-9.46-3.82C846,517.68,738.39,546.4,680.41,627.37c-40.88,57.11-50.4,119.9-31.17,187.26,1,3.63,5.29,8.59-3.69,8.56-78.68-.13-157.39,0-236.1-.27-12.6,0-18.79-7.33-18.87-20.4-.14-25.55,0-51.11-.06-76.66,0-3.44.11-6.55,2.73-9.41,35.37-38.24,41.62-98.59,7.23-146.7-3.9-5.46-2.65-7.42,2.45-10.53,25-15.19,49.75-30.74,74.57-46.2,9.87-6.17,19.31-13,25.88-22.78,3-4.52,6.54-5.91,11.86-5.75,12.25.38,24.52.33,36.79.08,16.42-.35,27.22-10.09,27.71-26.45q1-32.16,0-64.4c-.52-16.17-10.58-25.55-26.81-26.18-11.56-.43-23.29,1-34.72-.32-25.63-3-47.75,5.18-69.22,18-18.6,11.1-37.88,21.16-57.79,32.13,2.46,1.39,6.55,0,13.07-3.63,14-7.83,28.11-15.33,41.91-23.46,22-12.92,44.65-22.63,71.27-19.11,10.72,1.41,21.79.13,32.67.24,16.72.19,24.93,6.55,26.68,23.21a291.66,291.66,0,0,1-.06,62.24c-1.85,16.91-11,24.35-28.06,24.95-10.2.33-20.43.17-30.66.06-7.28-.06-13.28,2-17.81,8.07-5.62,7.45-12.9,13.06-20.7,18Q443.35,531,406.72,553.41c-12.3,7.47-13,10.72-5.67,22.83,27.87,46,25.72,91.66-6.65,134.26-4.34,5.7-6.71,11.59-6.69,18.77.09,23.86-.16,47.7.11,71.56.19,17.32,7,24.3,24.33,24.36q114,.28,228,0c13.39,0,14.81-2.21,11-15.44a207,207,0,0,1-4.52-97.07c24.6-128.59,159.71-203,281.54-155.13,21.68,8.51,21.71,8.51,21.71-14.81q0-219.32,0-438.6a97.78,97.78,0,0,0-.41-13.26c-1.5-11.29-7.31-17.78-18.27-20.7-6.36-1.69-12.85-1.36-19.31-1.36H424.26c-3.41,0-6.82,0-10.23.08-18,.85-26,8.87-26.23,26.84-.25,20.45,0,40.91-.09,61.34,0,5.12-.08,10.3-3,14.8-2.62,4-6.28,6.31-11.21,5.6s-8-3.63-9.38-8.3a31.06,31.06,0,0,1-1-9.1c-.05-22.83-.3-45.69.06-68.51.38-24.36,15.57-41.71,39.62-46.18,6.41-1.2,12.88-1.2,19.37-1.2H913.87a112.8,112.8,0,0,1,16.33.71c28.07,4.23,43.31,21.36,44.24,49.83.14,4.09.06,8.18.06,12.27q0,229-.22,458c0,12.35,3.65,20.94,13.2,28.93,33.13,27.69,54.54,63.09,65.94,104.68,2.59,9.52,3.14,19.5,6.82,28.74a2.45,2.45,0,0,0,1.31,1,.87.87,0,0,0,.36.08h0a2.22,2.22,0,0,0,1.45-.3A1.84,1.84,0,0,0,1061.66,727.82ZM854.52,454c-28.23-.08-56.43,0-84.66,0-28.55,0-57.13-.05-85.69,0-12,0-19,5.51-19.28,14.81-.24,9.76,7,15.79,19.5,15.82q85.17.07,170.35,0c12,0,18.87-5.51,19.09-15C874.05,459.51,867.37,454,854.52,454Zm2.81-193.47c-1-.09-2.05,0-3.08,0q-84.86,0-169.67,0c-12.63,0-19.88,6-19.69,15.73.19,9.3,7.2,14.84,19.26,14.89,28.28.06,56.56,0,84.84,0,29.29,0,58.61.11,87.9-.05,10.83-.06,16.78-5.62,16.91-14.89C873.91,267.07,867.8,261.23,857.33,260.5ZM579.66,200c-.54-15.85-11.37-25.59-27.19-25.78q-31.12-.36-62.32,0c-15.65.19-26.81,10.31-27.27,25.86-.66,21.76-.66,43.61,0,65.37.46,15.33,11,25.09,26.32,25.58,10.55.33,21.13.06,31.69.06v.05c10.55,0,21.11.22,31.66-.05,16.15-.38,26.62-9.68,27.14-25.72C580.4,243.59,580.4,221.74,579.66,200Zm-31.88,58.39c-5.18,6.11-17.16,1.8-26.16,2s-20.83,3.87-26.56-1.47c-5.86-5.51-.71-17.4-1.14-26.46,0-8.75-3.44-20.45.87-25.55,5.1-6,17.15-1.69,26.18-1.94s21.06-3,26.54,1.56c5.78,4.82,1.58,17.23,1.74,26.29C549.44,241.54,552.2,253.13,547.78,258.37Zm31.69,326.81c-.54-14.75-11.34-24.3-26.15-24.54-21.11-.33-42.25-.3-63.36,0-15.65.22-26.67,10.47-27.11,26-.6,21.8-.63,43.61.06,65.38.49,15.27,11.1,24.9,26.51,25.42,10.55.35,21.1,0,31.66,0v.06c10.55,0,21.14.24,31.66-.06C568.53,677,579,668,579.55,652.57Q580.74,618.91,579.47,585.18Zm-32,60.19c-4.85,4.31-16.17,1.31-24.63,1.53-.68,0-1.36,0-2,0v-.74c-8.78,0-20.65,3.47-25.56-.9-5.83-5.15-1.8-17.26-1.77-26.32s-4.06-21.05,1.77-26.26c5-4.45,16.78-1.47,25.56-1.47,9.16,0,21.44-3.19,26.62,1.41,6,5.4,1.77,18,1.83,27.33C549.25,628.71,553.13,640.3,547.45,645.37ZM389.81,234.48c-2.18-7.78-7.55-12.11-15.9-11.43S361,228.59,360,236.74a80.36,80.36,0,0,0-.13,9.19c0,60-.14,120,.16,179.92,0,6.71-2,10.23-7.8,13.39-32.57,17.68-64.83,35.87-97.31,53.65-29.59,16.2-44.43,40.88-44.29,74.73.16,34.06-.06,68.15.16,102.22a18.15,18.15,0,0,1-5.24,13.53q-49.67,53.63-99,107.56-45.09,49.29-90,98.78c4.5.44,6.63-3.11,9-5.78,17-19.06,34.63-37.53,51.79-56.43,41.89-46.14,84.19-91.91,126.35-137.78,7-7.58,10.31-15.3,10.2-25.53-.32-32-.08-64.06-.13-96.08-.06-31.67,12.87-55.83,40.83-71.48,30.32-17,60.46-34.34,91.25-50.38,12.79-6.68,17.73-15.08,17.51-29.73-.82-55.52-.33-111.08-.33-166.63,0-4.09-.24-8.21.55-12.25,1.2-5.89,4.42-10.23,10.74-10.53,6.74-.32,10.72,3.71,12.44,10,1.2,4.31.87,8.78.87,13.2,0,51.14,0,102.24.09,153.35,0,7.15.7,11.43,2.75,13.2,0-58,0-114.6,0-171.19C390.52,241.9,390.8,238,389.81,234.48Z" transform="translate(-16.61 -41.66)" />
	<path class="cls-1" d="M360.41,835.69c2.27-2.21,4.56-3.44,6.85-3.5C316.07,888,265.56,943,215.05,998c-10.12,11.05-20.16,22.18-30.41,33.11-7.88,8.35-16.34,9.41-23.35,3.28-7.36-6.5-7.2-15.2,1-24.14q94.95-103.62,190.13-207c5.48-5.94,8.15-11.7,7.63-19.8-.68-10.85-.16-21.76-.16-33.35-5,1.25-7.37,5.21-10.58,7.85-16.7,13.67-35.05,17.35-55.29,9.33-10.28-4.09-14.29-12.25-10.74-20.84,3.32-8.12,11.34-11.4,21.33-7.72,10.14,3.71,18.57,1.7,26.26-5.45,11.94-11.16,24.3-21.9,35.92-33.41,29-28.72,34.06-70.83,13-105.82-3.16-5.24-6.7-10.25-9.92-15.44-9.82-15.81-6.77-30.41,8.94-40.31,27.88-17.59,56.05-34.74,83.95-52.33,27.05-17.1,34.36-44.7,20.32-73.5-3.19-6.52-6.33-7.53-12.58-4-68.29,38-136.77,75.63-205,113.76-16,9-24.11,23.56-24.14,42.16,0,38.15-.13,76.31.09,114.47a25.29,25.29,0,0,1-7.07,18.4Q140.65,799.14,47,901.17C35.18,914,27,913.61,16.61,899.94a2.57,2.57,0,0,1,2-.05c15.79,9.3,17.65,9.46,29.87-4,33.79-37.36,68.15-74.21,102-111.52q37.71-41.61,76.17-82.56c8.21-8.75,12.57-17.75,12.41-30-.52-35.43-.19-70.85-.19-106.28,0-20.95,9-36.58,27.38-46.78,67.23-37.47,134.68-74.56,202-111.84,8.92-4.94,13.23-3.47,17.87,5.75,13.47,26.73,5.73,57.36-19.28,73.67-24.25,15.84-49.07,30.79-73.61,46.14-1.45.9-2.95,1.72-4.4,2.62-25.33,15.82-27.73,25.58-11.34,50.57,17.78,27.08,23.48,55.41,11.29,86.37-6.19,15.71-17,27.87-29.24,38.81-8.4,7.5-16.72,15-24.82,22.83-8.42,8.15-18.24,11.18-30,7.91-9.95-2.79-16.39,0-18.54,7.14s2.53,14.35,12.11,17.24q28.14,8.5,50.51-10.91c3.22-2.81,6.33-8.1,10.91-6.06,4.42,2,2.83,7.86,3.05,12.17.17,3.41-.46,6.9.11,10.23,3.38,18.92-6.11,32.1-18.38,45-37.37,39.14-73.31,79.61-110,119.4-18.9,20.51-37.5,41.35-56.87,61.47a179.47,179.47,0,0,0-15.82,18.71c-4,5.51-3.19,11,1.5,15.69,4.5,4.47,9.71,4.39,15,1.25,3.84-2.29,6.79-5.65,9.73-8.95,28.31-31.77,57.63-62.61,86.19-94.14,26.51-29.27,53.64-58,79.88-87.47Q357.09,838.88,360.41,835.69Z" transform="translate(-16.61 -41.66)" />
	<path class="cls-1" d="M880.1,830.29c-2.81-12.25-5.83-24.44-8.81-36.66q-13.29-55-26.67-109.91c-4.75-19.28-18.65-31-36.55-31-17.42-.08-32.1,11.4-36.6,29.73q-18,73.19-35.4,146.57c-2.7,11.31,1.67,19.47,11,21.52,8.56,1.88,15.76-3.52,18.6-14.49,3.9-15.13,7.8-30.27,11.12-45.52,1.1-5,3-6.79,8-6.68q23,.41,46,0c4.85,0,7.09,1.15,8.23,6.38,3.44,15.93,7.53,31.72,11.65,47.49,2.59,9.81,10.5,14.89,18.82,12.65C878.08,848,882.37,840.19,880.1,830.29Zm-93.93-77.51c4.07-17.21,8.05-34.12,12.09-51,1-3.95,2.21-7.82,3.08-11.78.79-3.73,2.64-6.49,6.63-6.46s5.67,2.89,6.54,6.52c5,20.72,10.15,41.4,15.36,62.73Z" transform="translate(-16.61 -41.66)" />
	<path class="cls-1" d="M992.88,710.2c-.74,7-3.93,12.25-11.1,14.16a40.31,40.31,0,0,1-7.07.87c-7.63.68-18.11-3.44-22.22,1.83-3.85,4.93-1.2,14.92-1.45,22.69-.33,10.36-6,17-14.78,17.26-9.22.27-15.33-6.49-15.93-17.29-.46-8,3.63-18.76-1.77-23.37-4.56-3.93-15-.82-22.78-1.15-10.77-.43-16.77-5.92-16.9-15.05s5.72-14.81,16.39-15.55c8.07-.54,18.6,3.44,23.59-1.61s1.06-15.49,1.5-23.56c.57-10.12,6.73-16.8,15.49-16.75s14.67,6.77,15.22,16.91c.46,8-3.55,18.49,1.63,23.46s15.58,1,23.65,1.58C986.71,695.34,993,701.28,992.88,710.2Z" transform="translate(-16.61 -41.66)" />
	<path class="cls-1" d="M1063.38,775.22a4.17,4.17,0,0,1-1.75.3c-2.78,30.68-12.9,58.91-28.61,85.26-5.75,9.62-14.1,12.43-22.12,7.77s-9.87-13.72-4.25-23.18c18.19-30.66,26.7-63.71,26-99.28-1.77-89.81-72.74-165.33-164.43-174.9C779.87,562,694,624.13,675,711c-26.32,120.44,68.07,230.1,190.8,221.32a174.12,174.12,0,0,0,85.75-29.64c2.53-1.7,5-3.52,7.55-5.24,9.66-6.49,19-5.73,24.19,2,5.1,7.55,2.92,16-6.08,22.77a205,205,0,0,1-72.14,34.64,211.54,211.54,0,0,1-234.43-95.65c-3.5-5.75-7.23-7.58-13.78-7.55-78.35.24-156.71-.11-235.06.33-21.2.11-40.42-2.7-53.6-21.74a9.08,9.08,0,0,1,5.54,3.22c11.92,12.92,27,15.08,43.75,15,77-.46,154,.06,231-.44,12.68-.08,20.65,4,27.57,14.73,32.29,50.1,78.28,81,136.61,92.27,56.08,10.82,108.31-.33,156-32a59.54,59.54,0,0,0,9.65-7.52c4.61-4.64,6-10.2,2.32-15.74-3.93-5.92-9.82-6.82-16.26-4.17a34.19,34.19,0,0,0-6.9,4.36C870.31,963.65,749,937.91,694.07,846c-43.58-72.87-31.55-167.43,28.64-225.6,69.14-66.82,175-70.42,248.27-8,62.83,53.56,83.43,143.7,45.24,220-2.29,4.55-4.72,9.08-6.73,13.77-4.07,9.36-2.73,16.2,3.73,19.83,6.06,3.41,12.08,1.28,17.7-7.37,13.2-20.26,20.87-42.76,25.75-66.3,1.14-5.64,1.17-11.56,3.87-16.85a2.11,2.11,0,0,1,1.09-.68.39.39,0,0,1,.25-.06A2,2,0,0,1,1063.38,775.22Z" transform="translate(-16.61 -41.66)" />
	<path d="M1063.38,740.45c-2.4-3.71-.08-8.07-1.45-12h0a2.34,2.34,0,0,0-.25-.68c-6.44-57.27-32.75-103.77-76.86-140.32-5.53-4.58-7.69-9-7.66-16.12q.33-235.63.16-471.25c0-39.57-18.71-58.45-57.92-58.45H417.5c-3.41,0-6.82-.11-10.23.14-28,2-47.13,22.09-47.35,50.15-.19,23.87,0,47.71-.11,71.57,0,6.57,1.45,12.16,7.34,15.76,11,6.66,23.15-1.2,23.32-15.43.27-21.47.08-42.93.08-64.4,0-22.17,4.88-27.1,26.89-27.13H919.29c22.1,0,27.33,5.21,27.33,27V561.92c-3.9-1.58-6.73-2.62-9.46-3.82C846,517.68,738.39,546.4,680.41,627.37c-40.88,57.11-50.4,119.9-31.17,187.26,1,3.63,5.29,8.59-3.69,8.56-78.68-.13-157.39,0-236.1-.27-12.6,0-18.79-7.33-18.87-20.4-.14-25.55,0-51.11-.06-76.66,0-3.44.11-6.55,2.73-9.41,35.37-38.24,41.62-98.59,7.23-146.7-3.9-5.46-2.65-7.42,2.45-10.53,25-15.19,49.75-30.74,74.57-46.2,9.87-6.17,19.31-13,25.88-22.78,3-4.52,6.54-5.91,11.86-5.75,12.25.38,24.52.33,36.79.08,16.42-.35,27.22-10.09,27.71-26.45q1-32.16,0-64.4c-.52-16.17-10.58-25.55-26.81-26.18-11.56-.43-23.29,1-34.72-.32-25.63-3-47.75,5.18-69.22,18-18.6,11.1-37.88,21.16-57.79,32.13-.22.13-.46.24-.68.38v-.88c0-58,0-114.6,0-171.19,0-3.73.28-7.66-.71-11.15-2.18-7.78-7.55-12.11-15.9-11.43S361,228.59,360,236.74a80.36,80.36,0,0,0-.13,9.19c0,60-.14,120,.16,179.92,0,6.71-2,10.23-7.8,13.39-32.57,17.68-64.83,35.87-97.31,53.65-29.59,16.2-44.43,40.88-44.29,74.73.16,34.06-.06,68.15.16,102.22a18.15,18.15,0,0,1-5.24,13.53q-49.67,53.63-99,107.56-45.09,49.29-90,98.78v10.23C27,913.61,35.18,914,47,901.17q93.72-101.91,187.39-203.9a25.29,25.29,0,0,0,7.07-18.4c-.22-38.16-.14-76.32-.09-114.47,0-18.6,8.1-33.19,24.14-42.16,68.21-38.13,136.69-75.77,205-113.76,6.25-3.49,9.39-2.48,12.58,4,14,28.8,6.73,56.4-20.32,73.5-27.9,17.59-56.07,34.74-83.95,52.33-15.71,9.9-18.76,24.5-8.94,40.31,3.22,5.19,6.76,10.2,9.92,15.44,21,35,16,77.1-13,105.82-11.62,11.51-24,22.25-35.92,33.41-7.69,7.15-16.12,9.16-26.26,5.45-10-3.68-18-.4-21.33,7.72-3.55,8.59.46,16.75,10.74,20.84,20.24,8,38.59,4.34,55.29-9.33,3.21-2.64,5.59-6.6,10.58-7.85,0,11.59-.52,22.5.16,33.35.52,8.1-2.15,13.86-7.63,19.8q-95.32,103.26-190.13,207c-8.18,8.94-8.34,17.64-1,24.14,7,6.13,15.47,5.07,23.35-3.28,10.25-10.93,20.29-22.06,30.41-33.11,50.51-55,101-110,152.21-165.85.19-.19.35-.35.52-.54.13.19.27.41.41.6h0c13.18,19,32.4,21.85,53.6,21.74,78.35-.44,156.71-.09,235.06-.33,6.55,0,10.28,1.8,13.78,7.55a211.54,211.54,0,0,0,234.43,95.65,205,205,0,0,0,72.14-34.64c9-6.73,11.18-15.22,6.08-22.77-5.23-7.72-14.53-8.48-24.19-2-2.53,1.72-5,3.54-7.55,5.24a174.12,174.12,0,0,1-85.75,29.64C743.08,941.12,648.69,831.46,675,711c19-86.89,104.86-149,193.23-139.83,91.69,9.57,162.66,85.09,164.43,174.9.68,35.57-7.83,68.62-26,99.28-5.62,9.46-3.63,18.6,4.25,23.18s16.37,1.85,22.12-7.77c15.71-26.35,25.83-54.58,28.61-85.26a3.75,3.75,0,0,0,.25-.71c1-2.94.19-6,.46-9a.21.21,0,0,1,0-.13c0-.17,0-.3,0-.47.27-3.46-1.07-7.11,1-10.41Zm-514-336.58c-.19,14.65-.06,29.29-.06,43.94,0,.68.25,1.58-.08,2-6.63,8.89-16,2-23.86,4-3,.77-6.47.5-5.43-4.47,1.8-8.51.93-17.07-.82-25.36s-4.91-16.12-8-25.91c11.21,0,21.71.13,32.21-.06C547.67,398,549.5,399.34,549.42,403.87Z" transform="translate(-16.61 -41.66)" />
	<path class="cls-2" d="M1063.38,728.2v12.25c-3-3.68-2.57-7.83-1.83-12,0-.19.08-.41.11-.6A1.84,1.84,0,0,1,1063.38,728.2Z" transform="translate(-16.61 -41.66)" />
	<path class="cls-3" d="M1061.65,765.33c-.1-3.63-1.57-7.49,1.74-10.56V765A1,1,0,0,1,1061.65,765.33Z" transform="translate(-16.61 -41.66)" />
	<path class="cls-4" d="M1063.38,765v10.23a4.17,4.17,0,0,1-1.75.3v-.65c0-3.19,0-6.36,0-9.55.25-.05.49-.08.74-.14S1063.05,765.05,1063.38,765Z" transform="translate(-16.61 -41.66)" />
	<path d="M579.66,200c-.54-15.85-11.37-25.59-27.19-25.78q-31.12-.36-62.32,0c-15.65.19-26.81,10.31-27.27,25.86-.66,21.76-.66,43.61,0,65.37.46,15.33,11,25.09,26.32,25.58,10.55.33,21.13.06,31.69.06v.05c10.55,0,21.11.22,31.66-.05,16.15-.38,26.62-9.68,27.14-25.72C580.4,243.59,580.4,221.74,579.66,200Zm-31.88,58.39c-5.18,6.11-17.16,1.8-26.16,2s-20.83,3.87-26.56-1.47c-5.86-5.51-.71-17.4-1.14-26.46,0-8.75-3.44-20.45.87-25.55,5.1-6,17.15-1.69,26.18-1.94s21.06-3,26.54,1.56c5.78,4.82,1.58,17.23,1.74,26.29C549.44,241.54,552.2,253.13,547.78,258.37Z" transform="translate(-16.61 -41.66)" />
	<path d="M579.47,585.18c-.54-14.75-11.34-24.3-26.15-24.54-21.11-.33-42.25-.3-63.36,0-15.65.22-26.67,10.47-27.11,26-.6,21.8-.63,43.61.06,65.38.49,15.27,11.1,24.9,26.51,25.42,10.55.35,21.1,0,31.66,0v.06c10.55,0,21.14.24,31.66-.06C568.53,677,579,668,579.55,652.57Q580.74,618.91,579.47,585.18Zm-32,60.19c-4.85,4.31-16.17,1.31-24.63,1.53-.68,0-1.36,0-2,0v-.74c-8.78,0-20.65,3.47-25.56-.9-5.83-5.15-1.8-17.26-1.77-26.32s-4.06-21.05,1.77-26.26c5-4.45,16.78-1.47,25.56-1.47,9.16,0,21.44-3.19,26.62,1.41,6,5.4,1.77,18,1.83,27.33C549.25,628.71,553.13,640.3,547.45,645.37Z" transform="translate(-16.61 -41.66)" />
	<path d="M873.83,469.57c-.22,9.52-7,15-19.09,15q-85.17.07-170.35,0c-12.46,0-19.74-6.06-19.5-15.82.25-9.3,7.23-14.78,19.28-14.81,28.56-.08,57.14,0,85.69,0,28.23,0,56.43-.05,84.66,0C867.37,454,874.05,459.51,873.83,469.57Z" transform="translate(-16.61 -41.66)" />
	<path class="cls-5" d="M873.8,276.18c-.13,9.27-6.08,14.83-16.91,14.89-29.29.16-58.61.05-87.9.05-28.28,0-56.56.06-84.84,0-12.06-.05-19.07-5.59-19.26-14.89-.19-9.73,7.06-15.73,19.69-15.73q84.81-.13,169.67,0c1,0,2-.06,3.08,0C867.8,261.23,873.91,267.07,873.8,276.18Z" transform="translate(-16.61 -41.66)" />
	<path d="M880.1,830.29c-2.81-12.25-5.83-24.44-8.81-36.66q-13.29-55-26.67-109.91c-4.75-19.28-18.65-31-36.55-31-17.42-.08-32.1,11.4-36.6,29.73q-18,73.19-35.4,146.57c-2.7,11.31,1.67,19.47,11,21.52,8.56,1.88,15.76-3.52,18.6-14.49,3.9-15.13,7.8-30.27,11.12-45.52,1.1-5,3-6.79,8-6.68q23,.41,46,0c4.85,0,7.09,1.15,8.23,6.38,3.44,15.93,7.53,31.72,11.65,47.49,2.59,9.81,10.5,14.89,18.82,12.65C878.08,848,882.37,840.19,880.1,830.29Zm-93.93-77.51c4.07-17.21,8.05-34.12,12.09-51,1-3.95,2.21-7.82,3.08-11.78.79-3.73,2.64-6.49,6.63-6.46s5.67,2.89,6.54,6.52c5,20.72,10.15,41.4,15.36,62.73Z" transform="translate(-16.61 -41.66)" />
	<path d="M992.88,710.2c-.74,7-3.93,12.25-11.1,14.16a40.31,40.31,0,0,1-7.07.87c-7.63.68-18.11-3.44-22.22,1.83-3.85,4.93-1.2,14.92-1.45,22.69-.33,10.36-6,17-14.78,17.26-9.22.27-15.33-6.49-15.93-17.29-.46-8,3.63-18.76-1.77-23.37-4.56-3.93-15-.82-22.78-1.15-10.77-.43-16.77-5.92-16.9-15.05s5.72-14.81,16.39-15.55c8.07-.54,18.6,3.44,23.59-1.61s1.06-15.49,1.5-23.56c.57-10.12,6.73-16.8,15.49-16.75s14.67,6.77,15.22,16.91c.46,8-3.55,18.49,1.63,23.46s15.58,1,23.65,1.58C986.71,695.34,993,701.28,992.88,710.2Z" transform="translate(-16.61 -41.66)" />
</svg>
