<svg viewBox="0 0 35 34"  xmlns="http://www.w3.org/2000/svg">
<path d="M0 12.7841C0.202344 12.4159 0.507682 12.2956 0.928776 12.2983C3.99219 12.3129 7.0556 12.3056 10.119 12.3056C10.2548 12.3056 10.3915 12.3056 10.5547 12.3056C10.5547 11.7961 10.5547 11.3039 10.5547 10.7662C10.3387 10.7662 10.1354 10.7789 9.93398 10.7634C9.48646 10.7288 9.21849 10.4645 9.20938 10.0142C9.19479 9.30874 9.19297 8.60144 9.20938 7.89598C9.22031 7.39741 9.52018 7.13764 10.0652 7.134C11.2492 7.12762 12.4341 7.13126 13.6181 7.13126C14.721 7.13126 15.8238 7.13126 16.985 7.13126C16.985 6.97449 16.985 6.84324 16.985 6.7129C16.985 4.76512 16.985 2.81733 16.985 0.869543C16.985 0.755611 16.9805 0.641679 16.9896 0.527747C17.016 0.201444 17.2165 -0.00181076 17.5027 1.216e-05C17.7753 0.00274653 17.9676 0.193241 18.0049 0.502226C18.0159 0.591549 18.0186 0.681783 18.0286 0.818502C18.1572 0.818502 18.2766 0.818502 18.3969 0.818502C19.5699 0.818502 20.743 0.81759 21.916 0.819413C22.6379 0.820325 22.9924 1.16212 22.9979 1.87853C23.0052 2.77814 23.0061 3.67775 22.9979 4.57827C22.9906 5.28465 22.6479 5.61824 21.9379 5.62098C20.7648 5.62553 19.5918 5.62189 18.4188 5.62189C18.2966 5.62189 18.1745 5.62189 18.0332 5.62189C18.0332 6.13595 18.0332 6.609 18.0332 7.13126C18.1763 7.13126 18.3085 7.13126 18.4397 7.13126C20.5579 7.13126 22.6762 7.13035 24.7944 7.13126C25.5564 7.13126 25.7943 7.37006 25.7952 8.13204C25.7961 8.7017 25.7979 9.27137 25.7943 9.84012C25.7906 10.5091 25.5345 10.7625 24.8618 10.7698C24.7279 10.7716 24.5939 10.7698 24.4389 10.7698C24.4389 11.293 24.4389 11.777 24.4389 12.3038C24.5811 12.3038 24.7142 12.3038 24.8464 12.3038C27.9216 12.3038 30.996 12.3102 34.0712 12.2965C34.4932 12.2947 34.7967 12.4177 35 12.7823C35 13.5115 35 14.2406 35 14.9698C34.815 15.4219 34.4322 15.5176 33.9773 15.4766C33.9773 15.6616 33.9773 15.7965 33.9773 15.9323C33.9773 21.5141 33.9773 27.0968 33.9773 32.6785C33.9773 33.5016 33.713 33.7714 32.9018 33.7714C22.6279 33.7714 12.353 33.7714 2.07904 33.7714C1.30703 33.7714 1.02266 33.4906 1.02266 32.7287C1.02174 30.1201 1.02266 27.5115 1.02266 24.9029C1.02266 24.8117 1.01536 24.7188 1.02904 24.6294C1.07096 24.3587 1.22865 24.1983 1.50573 24.1828C1.78555 24.1673 1.96055 24.3177 2.02891 24.5775C2.0599 24.696 2.04805 24.8263 2.04805 24.9512C2.04896 27.4121 2.04896 29.8721 2.04896 32.3331C2.04896 32.4643 2.04896 32.5965 2.04896 32.7241C4.91641 32.7241 7.73464 32.7241 10.5665 32.7241C10.5665 26.9764 10.5665 21.2516 10.5665 15.5067C7.72279 15.5067 4.89635 15.5067 2.04896 15.5067C2.04896 15.658 2.04896 15.7828 2.04896 15.9077C2.04896 17.9585 2.04896 20.0083 2.04805 22.0591C2.04805 22.1731 2.05898 22.2906 2.03438 22.4C1.97604 22.6634 1.80195 22.8275 1.52943 22.822C1.24323 22.8165 1.06732 22.6488 1.02813 22.3599C1.01445 22.2587 1.02266 22.1548 1.02266 22.0527C1.02266 19.991 1.02266 17.9293 1.02266 15.8667C1.02266 15.7473 1.02266 15.6279 1.02266 15.4775C0.542318 15.5203 0.183203 15.4055 0 14.9716C0 14.2425 0 13.5133 0 12.7841ZM13.8897 30.4418C13.8897 30.3279 13.8897 30.2039 13.8897 30.08C13.8897 28.2461 13.8888 26.4113 13.8906 24.5775C13.8915 23.8091 14.2042 23.4892 14.9616 23.4883C16.6478 23.4856 18.3331 23.4865 20.0193 23.4883C20.7986 23.4892 21.1076 23.8037 21.1085 24.5939C21.1094 26.4168 21.1085 28.2397 21.1085 30.0626C21.1085 30.1966 21.1085 30.3306 21.1085 30.4546C21.8358 30.6369 22.0719 30.9367 22.0737 31.6458C22.0746 32.0059 22.0737 32.365 22.0737 32.7259C22.5358 32.7259 22.9514 32.7259 23.3734 32.7259C23.3734 25.4069 23.3734 18.1098 23.3734 10.7716C23.2221 10.7716 23.0891 10.7716 22.9551 10.7716C21.577 10.7716 20.1979 10.7725 18.8198 10.7707C18.684 10.7707 18.5436 10.7725 18.4124 10.7425C18.1572 10.685 18.0277 10.5082 18.0332 10.2475C18.0387 9.98686 18.1736 9.81642 18.4324 9.76811C18.5655 9.7435 18.704 9.74715 18.8408 9.74715C20.6746 9.74624 22.5085 9.74624 24.3432 9.74624C24.4754 9.74624 24.6076 9.74624 24.7525 9.74624C24.7525 9.19754 24.7525 8.69988 24.7525 8.18035C19.9117 8.18035 15.0883 8.18035 10.2557 8.18035C10.2557 8.70626 10.2557 9.21121 10.2557 9.74624C10.407 9.74624 10.5301 9.74624 10.654 9.74624C12.4195 9.74624 14.185 9.74624 15.9514 9.74715C16.0763 9.74715 16.2039 9.7435 16.326 9.76264C16.6004 9.80548 16.7499 9.97592 16.7526 10.253C16.7553 10.5301 16.6059 10.7024 16.3333 10.7516C16.2112 10.7734 16.0836 10.7707 15.9587 10.7707C14.649 10.7716 13.3383 10.7716 12.0285 10.7716C11.8973 10.7716 11.766 10.7716 11.6266 10.7716C11.6266 18.1216 11.6266 25.4179 11.6266 32.7296C12.0613 32.7296 12.476 32.7296 12.9254 32.7296C12.9254 32.3859 12.9254 32.0587 12.9254 31.7315C12.9254 30.934 13.1177 30.6706 13.8897 30.4418ZM24.4444 15.4957C24.4444 21.2643 24.4444 26.9965 24.4444 32.725C27.29 32.725 30.1091 32.725 32.9255 32.725C32.9255 26.971 32.9255 21.2397 32.9255 15.4957C30.0918 15.4957 27.2827 15.4957 24.4444 15.4957ZM20.0612 30.4609C20.0612 28.4639 20.0612 26.5089 20.0612 24.5383C19.3749 24.5383 18.7104 24.5383 18.0378 24.5383C18.0378 26.528 18.0378 28.4922 18.0378 30.4609C18.7223 30.4609 19.3794 30.4609 20.0612 30.4609ZM14.9379 24.5337C14.9379 26.5171 14.9379 28.4794 14.9379 30.4527C15.6251 30.4527 16.2887 30.4527 16.9559 30.4527C16.9559 28.4639 16.9559 26.5016 16.9559 24.5337C16.2695 24.5337 15.6133 24.5337 14.9379 24.5337ZM18.0332 1.86394C18.0332 2.77996 18.0332 3.67319 18.0332 4.56551C19.3557 4.56551 20.6555 4.56551 21.9579 4.56551C21.9579 3.6504 21.9579 2.7672 21.9579 1.86394C20.6491 1.86394 19.3566 1.86394 18.0332 1.86394ZM10.562 13.3538C7.38008 13.3538 4.21276 13.3538 1.04544 13.3538C1.04544 13.7257 1.04544 14.0738 1.04544 14.432C4.22461 14.432 7.38281 14.432 10.562 14.432C10.562 14.0629 10.562 13.7165 10.562 13.3538ZM24.4371 13.3492C24.4371 13.7147 24.4371 14.0611 24.4371 14.4257C27.6217 14.4257 30.7882 14.4257 33.9536 14.4257C33.9536 14.0492 33.9536 13.702 33.9536 13.3492C30.7736 13.3492 27.6135 13.3492 24.4371 13.3492ZM21.0292 31.5346C18.6621 31.5346 16.3142 31.5346 13.969 31.5346C13.969 31.9484 13.969 32.3313 13.969 32.7186C16.3361 32.7186 18.6849 32.7186 21.0292 32.7186C21.0292 32.3067 21.0292 31.9229 21.0292 31.5346Z" />
<path d="M6.34195 21.6836C5.59 21.6836 4.83896 21.6873 4.08701 21.6827C3.51279 21.6791 3.22477 21.3919 3.22021 20.8214C3.21474 20.1041 3.21383 19.3858 3.22021 18.6685C3.22477 18.1152 3.51005 17.8254 4.06695 17.8227C5.59273 17.8163 7.11943 17.8163 8.64521 17.8227C9.18115 17.8254 9.46826 18.1089 9.47646 18.6485C9.48831 19.3886 9.49013 20.1296 9.47555 20.8697C9.46552 21.4011 9.16839 21.6781 8.63063 21.6818C7.86774 21.6882 7.10484 21.6836 6.34195 21.6836ZM8.43284 20.6445C8.43284 20.0284 8.43284 19.4542 8.43284 18.8681C7.9051 18.8681 7.40016 18.8681 6.88609 18.8681C6.88609 19.4724 6.88609 20.0539 6.88609 20.6445C7.41292 20.6445 7.91057 20.6445 8.43284 20.6445ZM5.81057 20.6427C5.81057 20.0302 5.81057 19.456 5.81057 18.8672C5.28557 18.8672 4.78245 18.8672 4.27021 18.8672C4.27021 19.4724 4.27021 20.0548 4.27021 20.6427C4.79156 20.6427 5.28831 20.6427 5.81057 20.6427Z" />
<path d="M6.34557 26.8115C5.59362 26.8115 4.84166 26.8151 4.09062 26.8106C3.51367 26.8069 3.22565 26.5234 3.22018 25.9529C3.2138 25.2356 3.2138 24.5173 3.22018 23.8C3.22474 23.2449 3.51002 22.9533 4.06328 22.9505C5.58997 22.9441 7.11575 22.9441 8.64244 22.9505C9.1802 22.9523 9.46731 23.234 9.47734 23.7727C9.4901 24.5128 9.49101 25.2538 9.47643 25.9939C9.4664 26.5271 9.17018 26.806 8.63515 26.8096C7.87135 26.8151 7.10846 26.8106 6.34557 26.8115ZM6.88059 23.9951C6.88059 24.5921 6.88059 25.1754 6.88059 25.7624C7.41015 25.7624 7.91601 25.7624 8.43554 25.7624C8.43554 25.1654 8.43554 24.5911 8.43554 23.9951C7.91145 23.9951 7.40651 23.9951 6.88059 23.9951ZM4.25651 25.7651C4.7888 25.7651 5.29283 25.7651 5.80507 25.7651C5.80507 25.1626 5.80507 24.5802 5.80507 24.0014C5.27461 24.0014 4.77148 24.0014 4.25651 24.0014C4.25651 24.5957 4.25651 25.1599 4.25651 25.7651Z" />
<path d="M17.4936 20.6628C15.1293 20.66 13.1989 18.7168 13.2071 16.3497C13.2153 13.9991 15.143 12.065 17.4864 12.055C19.837 12.0449 21.7884 13.9973 21.7903 16.3598C21.7921 18.7287 19.8589 20.6655 17.4936 20.6628ZM17.5082 19.6356C19.3002 19.6301 20.7567 18.1699 20.7649 16.3707C20.7731 14.5715 19.2792 13.0721 17.49 13.0813C15.7045 13.0913 14.2407 14.5615 14.2334 16.3543C14.2261 18.1599 15.7045 19.641 17.5082 19.6356Z" />
<path d="M28.6344 26.8115C27.8824 26.8115 27.1305 26.8151 26.3794 26.8106C25.8243 26.8069 25.529 26.5271 25.5208 25.9757C25.509 25.2465 25.5099 24.5173 25.5208 23.7882C25.529 23.2322 25.8161 22.9524 26.3758 22.9496C27.8906 22.9442 29.4055 22.9442 30.9203 22.9496C31.4936 22.9515 31.7752 23.2404 31.7798 23.8182C31.7853 24.5246 31.7853 25.231 31.7798 25.9374C31.7752 26.528 31.489 26.8078 30.8902 26.8106C30.1374 26.8142 29.3854 26.8115 28.6344 26.8115ZM26.5626 25.7669C27.0885 25.7669 27.5935 25.7669 28.1139 25.7669C28.1139 25.1681 28.1139 24.5857 28.1139 23.9996C27.5825 23.9996 27.0785 23.9996 26.5626 23.9996C26.5626 24.6003 26.5626 25.1745 26.5626 25.7669ZM30.7316 25.7688C30.7316 25.1508 30.7316 24.5775 30.7316 23.9987C30.2039 23.9987 29.6999 23.9987 29.1967 23.9987C29.1967 24.6057 29.1967 25.1873 29.1967 25.7688C29.7235 25.7688 30.2185 25.7688 30.7316 25.7688Z" />
<path d="M28.6344 21.6836C27.8824 21.6836 27.1314 21.6873 26.3794 21.6818C25.8234 21.6781 25.529 21.3974 25.5199 20.8469C25.5081 20.1177 25.509 19.3886 25.5199 18.6603C25.5281 18.1034 25.8134 17.8245 26.3748 17.8227C27.8897 17.8172 29.4045 17.8172 30.9194 17.8227C31.4936 17.8245 31.7743 18.1134 31.7789 18.6913C31.7844 19.3977 31.7844 20.1041 31.7789 20.8095C31.7743 21.3992 31.4881 21.6791 30.8893 21.6827C30.1373 21.6873 29.3854 21.6836 28.6344 21.6836ZM28.1194 20.6455C28.1194 20.033 28.1194 19.4587 28.1194 18.8663C27.5935 18.8663 27.0876 18.8663 26.5681 18.8663C26.5681 19.4697 26.5681 20.0521 26.5681 20.6455C27.0931 20.6455 27.5907 20.6455 28.1194 20.6455ZM29.1985 18.8663C29.1985 19.4505 29.1985 20.0403 29.1985 20.6336C29.7208 20.6336 30.2239 20.6336 30.7362 20.6336C30.7362 20.0348 30.7362 19.4615 30.7362 18.8663C30.2221 18.8663 29.7272 18.8663 29.1985 18.8663Z" />
<path d="M18.0077 16.3497C18.2501 16.3497 18.4433 16.3379 18.6347 16.3525C18.9556 16.3762 19.1524 16.5876 19.1452 16.8784C19.1379 17.1691 18.9355 17.3615 18.6056 17.3697C18.2528 17.3788 17.9001 17.3779 17.5474 17.3697C17.1955 17.3624 17.0023 17.1983 16.9932 16.8574C16.9768 16.2322 16.9786 15.6051 16.9932 14.9798C17.0005 14.6526 17.2183 14.4566 17.5091 14.463C17.7971 14.4694 17.994 14.6681 18.004 15.0026C18.0177 15.4337 18.0077 15.8648 18.0077 16.3497Z" />
<path d="M9.3827 14.6375C8.88124 14.6539 8.44178 14.4971 8.06979 14.1643C7.81815 13.94 7.78441 13.6346 7.97679 13.4121C8.16279 13.1969 8.44087 13.1796 8.70892 13.3665C9.19306 13.7048 9.60243 13.7048 10.082 13.3693C10.361 13.1742 10.6537 13.2006 10.8351 13.4376C11.0092 13.6656 10.9719 13.9446 10.7266 14.1634C10.3428 14.5044 9.89145 14.6585 9.3827 14.6375Z" />
</svg>
