<svg viewBox="0 0 35 35" xmlns="http://www.w3.org/2000/svg">
	<path d="M15.5864 34.9954C15.3759 34.9171 15.1562 34.856 14.9547 34.7585C14.0487 34.3201 13.551 33.5946 13.4653 32.5912C13.4142 31.9897 13.3623 31.3882 13.3286 30.7857C13.3167 30.5852 13.2401 30.4941 13.0533 30.4194C12.4207 30.166 11.7935 29.8981 11.1737 29.6137C10.81 29.4469 10.7034 29.1598 10.8501 28.8709C10.995 28.5847 11.2794 28.5255 11.6404 28.6786C12.3623 28.9839 13.0825 29.2947 13.8171 29.5672C14.1389 29.6866 14.3075 29.8643 14.3312 30.2025C14.3814 30.9179 14.447 31.6324 14.4926 32.3488C14.5582 33.3832 15.1443 33.9483 16.1862 33.9528C17.1205 33.9565 18.0548 33.9583 18.9892 33.9528C20.0092 33.9464 20.5944 33.3732 20.65 32.3579C20.6901 31.6306 20.7521 30.9033 20.794 30.176C20.814 29.837 20.9799 29.6511 21.2981 29.5299C21.9881 29.2683 22.6717 28.9867 23.3444 28.6832C23.6462 28.5474 23.8777 28.5674 24.122 28.7853C24.6917 29.2929 25.2687 29.7923 25.8484 30.289C26.5694 30.906 27.3752 30.8796 28.0461 30.2161C28.7425 29.5271 29.4362 28.8345 30.1244 28.1382C30.7643 27.4902 30.8026 26.69 30.2229 25.9928C29.7352 25.4058 29.2393 24.8253 28.7361 24.252C28.5119 23.9968 28.4882 23.758 28.6313 23.4436C28.9567 22.7309 29.2566 22.0064 29.5401 21.2763C29.665 20.9546 29.8655 20.8088 30.2001 20.7897C30.9393 20.7477 31.6777 20.6867 32.416 20.6447C33.3476 20.5919 33.9428 19.9977 33.9537 19.0699C33.9647 18.0792 33.9638 17.0876 33.9547 16.0969C33.9465 15.1637 33.3713 14.5676 32.436 14.4983C31.7205 14.4455 31.0059 14.3817 30.2894 14.3416C29.8974 14.3197 29.685 14.1456 29.5501 13.7665C29.2995 13.0611 29.0096 12.3675 28.6997 11.6858C28.5511 11.3595 28.5721 11.1153 28.8118 10.8501C29.3159 10.2923 29.8063 9.72177 30.294 9.15033C30.912 8.42577 30.8837 7.62467 30.2201 6.95388C29.531 6.25758 28.8382 5.56493 28.1409 4.87592C27.4928 4.23522 26.6916 4.19785 25.9961 4.7784C25.4191 5.26053 24.8448 5.74538 24.2824 6.24483C24.0071 6.48908 23.7528 6.51368 23.4146 6.35601C22.7255 6.03429 22.0218 5.74174 21.3108 5.47106C20.9781 5.34437 20.8104 5.15298 20.7913 4.80028C20.7502 4.06114 20.6883 3.32292 20.6463 2.58469C20.5935 1.65417 20.0037 1.05994 19.0712 1.04627C18.0804 1.0326 17.0886 1.03442 16.0978 1.04536C15.1598 1.0563 14.5673 1.62956 14.499 2.56373C14.4461 3.27917 14.3832 3.9937 14.3431 4.71005C14.3212 5.10195 14.1462 5.31248 13.7688 5.45009C13.0232 5.7226 12.2894 6.03429 11.5675 6.36422C11.2402 6.51368 10.9941 6.48543 10.7298 6.25212C10.1756 5.76179 9.60952 5.28422 9.04255 4.80757C8.30968 4.19238 7.51939 4.22246 6.84577 4.88959C6.15027 5.57951 5.45659 6.27217 4.76748 6.96847C4.1285 7.61373 4.09295 8.42486 4.67633 9.11296C5.17767 9.70354 5.6863 10.2877 6.20314 10.8646C6.43102 11.1198 6.44743 11.3586 6.30614 11.6721C5.98984 12.3766 5.69633 13.0921 5.42834 13.8157C5.30984 14.1374 5.13027 14.307 4.793 14.3297C4.07745 14.3799 3.36281 14.4455 2.64635 14.4911C1.60812 14.5567 1.04753 15.1409 1.04479 16.1835C1.04206 17.1177 1.04115 18.0518 1.04479 18.986C1.04844 20.004 1.61997 20.591 2.63723 20.6466C3.36463 20.6867 4.09204 20.7486 4.81944 20.7906C5.15852 20.8106 5.34357 20.9774 5.46571 21.2946C5.74464 22.0146 6.03997 22.7291 6.36357 23.4299C6.51488 23.7571 6.48571 24.0041 6.25236 24.2684C5.76196 24.8235 5.28432 25.3885 4.80759 25.9554C4.1923 26.6872 4.22238 27.4783 4.88962 28.1509C5.57145 28.8381 6.25601 29.5235 6.94421 30.2052C7.58228 30.8377 8.2951 30.8978 9.03708 30.3884C9.33789 30.1815 9.64052 30.2034 9.82464 30.444C10.0133 30.691 9.94223 31.009 9.6469 31.2442C8.71349 31.9851 7.32979 31.9778 6.43831 31.1558C5.57601 30.361 4.74469 29.5289 3.94984 28.6677C3.10485 27.7527 3.11852 26.3555 3.92249 25.3785C4.32083 24.8945 4.72646 24.417 5.14485 23.9513C5.29161 23.789 5.29617 23.6669 5.20501 23.4737C4.98716 23.0116 4.79209 22.5377 4.6107 22.0592C4.54324 21.8815 4.45482 21.815 4.26796 21.8058C3.66544 21.7749 3.06292 21.7293 2.46131 21.6819C1.20704 21.5835 0.369349 20.879 0.0576055 19.6686C0.0466671 19.6267 0.0193212 19.5894 -0.000732422 19.5493C-0.000732422 18.2277 -0.000732422 16.9062 -0.000732422 15.5847C0.0402864 15.469 0.0840398 15.3541 0.121413 15.2375C0.438625 14.2523 1.32372 13.5432 2.33187 13.4676C2.95627 13.4202 3.57976 13.3646 4.20415 13.3272C4.40104 13.3154 4.50222 13.2507 4.57241 13.0574C4.75198 12.5671 4.94796 12.0823 5.16491 11.6074C5.24694 11.4279 5.21504 11.3267 5.09381 11.1918C4.67541 10.7261 4.26523 10.2531 3.86051 9.77554C2.96721 8.72471 2.99638 7.29748 3.94893 6.30862C4.68362 5.5467 5.43289 4.79754 6.19402 4.06296C7.18394 3.10874 8.60775 3.07411 9.66513 3.95998C10.1364 4.35461 10.6058 4.75197 11.0661 5.15845C11.2038 5.27967 11.3059 5.30427 11.4836 5.22316C11.9996 4.98711 12.5264 4.77202 13.0578 4.57334C13.2502 4.50134 13.3158 4.40109 13.3277 4.20423C13.3641 3.57993 13.4188 2.95563 13.468 2.33224C13.5492 1.32698 14.2392 0.454782 15.2054 0.132151C15.3321 0.0893159 15.4588 0.0437466 15.5855 0C16.9072 0 18.2289 0 19.5507 0C19.5899 0.0200505 19.6281 0.0473921 19.6701 0.0583288C20.8824 0.370935 21.5852 1.20577 21.6836 2.45983C21.731 3.06135 21.7766 3.66286 21.8076 4.26529C21.8176 4.4503 21.8796 4.54144 22.0583 4.6098C22.5469 4.79481 23.0309 4.9944 23.5031 5.21769C23.6936 5.30792 23.8039 5.2742 23.9488 5.14569C24.4 4.74559 24.8621 4.35643 25.3243 3.96909C26.3962 3.06955 27.8164 3.10692 28.8227 4.07937C29.5675 4.79936 30.3012 5.53212 31.0214 6.27764C32.0076 7.2993 32.0404 8.71651 31.1198 9.79832C30.7142 10.275 30.2912 10.738 29.8956 11.2237C29.8263 11.3085 29.8072 11.4908 29.8464 11.5983C30.0296 12.0996 30.2301 12.5954 30.4507 13.0811C30.4981 13.1859 30.6467 13.2999 30.7588 13.3126C31.3814 13.3801 32.0076 13.4102 32.6302 13.4685C33.6329 13.5624 34.3493 14.0773 34.7796 14.9841C34.8707 15.1764 34.9273 15.3842 34.9993 15.5856C34.9993 16.9071 34.9993 18.2287 34.9993 19.5502C34.9792 19.5894 34.9519 19.6267 34.9409 19.6686C34.6274 20.8799 33.7906 21.5844 32.5409 21.6828C31.9511 21.7293 31.3614 21.7767 30.7698 21.8049C30.5601 21.815 30.4516 21.8769 30.3751 22.0866C30.1992 22.5659 30.0004 23.038 29.7826 23.5001C29.6942 23.6879 29.7197 23.8 29.85 23.9467C30.2511 24.3978 30.6403 24.8581 31.0277 25.3211C31.9356 26.4065 31.89 27.8283 30.9019 28.8436C30.1955 29.569 29.4781 30.2854 28.7535 30.9926C27.7107 32.0106 26.286 32.0508 25.183 31.1056C24.7163 30.7055 24.2505 30.3045 23.7929 29.8944C23.6671 29.7814 23.5687 29.7541 23.4064 29.8279C22.9625 30.0302 22.5122 30.2207 22.0546 30.3911C21.8732 30.4586 21.8167 30.5543 21.8067 30.7374C21.7721 31.3736 21.731 32.0097 21.6736 32.6441C21.5834 33.6493 21.0611 34.3593 20.1541 34.7858C19.9618 34.8761 19.7521 34.9298 19.5498 35C18.2299 34.9954 16.9081 34.9954 15.5864 34.9954Z"  />
	<path d="M23.2779 17.2762C23.2196 15.458 22.3627 13.8248 20.6481 12.6537C20.6007 12.6218 20.5506 12.5945 20.5032 12.5635C20.1705 12.342 20.0793 12.0622 20.2498 11.7888C20.4212 11.5145 20.722 11.4689 21.0556 11.6721C21.824 12.1397 22.4739 12.7385 23.0017 13.4657C26.0161 17.6226 23.6124 23.4263 18.5379 24.2484C14.756 24.8608 11.1172 22.0756 10.7207 18.266C10.3114 14.3334 13.1472 10.9603 17.1005 10.6778C17.2253 10.6687 17.3511 10.6632 17.476 10.6696C17.7887 10.686 18.0102 10.8938 18.0238 11.1727C18.0366 11.4516 17.8333 11.6712 17.5188 11.7122C17.0567 11.7724 16.5854 11.7879 16.1342 11.8927C13.4771 12.5115 11.5912 15.0215 11.7306 17.7247C11.8774 20.57 13.9794 22.8749 16.7477 23.2276C20.2006 23.6678 23.2624 20.9929 23.2779 17.2762Z"  />
</svg>
