<svg viewBox="0 0 35 48" xmlns="http://www.w3.org/2000/svg">
	<path d="M16.9418 47.6085C15.7801 47.1113 14.637 46.567 13.4542 46.1269C10.4501 45.0086 7.31716 44.7197 4.13706 44.7619C3.74777 44.7668 3.32375 44.7086 2.97537 44.5486C2.45961 44.3118 2.23397 43.8271 2.23397 43.253C2.23397 42.1372 2.22653 41.0226 2.23892 39.9068C2.2414 39.6551 2.17198 39.5311 1.92773 39.4307C0.666854 38.9075 0.0246353 37.9504 0.00851782 36.5829C0.0023188 36.056 0.0271149 35.5291 0.0035586 35.0034C-0.0509928 33.7574 0.492041 32.8362 1.56075 32.2597C2.10007 31.9696 2.27116 31.6224 2.24884 31.0211C2.19925 29.6598 2.24512 28.2948 2.22777 26.9323C2.21909 26.2528 2.41746 25.6925 2.95801 25.256C3.05844 25.1755 3.11175 25.0019 3.13158 24.8643C3.16134 24.651 3.13406 24.4316 3.14646 24.2146C3.20473 23.2438 3.87547 22.5508 4.84003 22.5235C5.59755 22.5012 6.38855 22.681 7.10639 22.5148C7.81928 22.3499 8.43298 21.7933 9.13719 21.5428C10.0943 21.2031 11.0911 20.9663 12.0805 20.7308C13.1827 20.4692 13.8088 19.8232 13.8175 18.8115C13.8187 18.6553 13.7282 18.4408 13.6079 18.3491C12.1598 17.2556 11.3378 15.8025 11.0564 13.9924C10.9076 13.9478 10.7465 13.9081 10.5902 13.8511C9.69511 13.5213 9.14711 12.884 9.05289 11.9368C8.9909 11.3083 9.03801 10.6685 9.04297 10.0325C9.04421 9.92587 9.06033 9.80809 9.10868 9.71634C9.45458 9.07288 9.53889 8.38975 9.51409 7.66819C9.5017 7.30492 9.76577 7.0768 10.1439 7.05324C10.5469 7.02845 10.7787 7.24789 10.8742 7.62355C10.8928 7.6967 10.8866 7.77729 10.889 7.85416C10.9262 9.01957 10.925 9.01957 12.2206 9.29233C12.2206 8.74682 12.2069 8.2137 12.2255 7.68058C12.2392 7.29625 12.2355 6.89579 12.3421 6.53253C12.7946 4.99641 14.7485 4.50793 15.9611 5.61135C16.3962 6.00685 16.7979 6.4445 17.2616 6.80032C18.5957 7.82316 20.0859 8.2323 21.7584 7.85788C22.4552 7.70166 22.9895 7.95334 23.3962 8.54473C23.5251 8.73318 23.7408 8.91915 23.9528 8.98114C24.2727 9.07536 24.5529 8.93403 24.5554 8.54473C24.5653 7.18094 24.5678 5.8184 24.5529 4.45462C24.548 4.02936 24.3037 3.77644 23.871 3.70701C22.8085 3.53716 22.4688 3.19993 22.2828 2.14982C22.1898 1.62662 21.9357 1.39602 21.3976 1.39478C19.2131 1.38982 17.0285 1.37742 14.8453 1.39974C13.0934 1.4171 11.5684 2.60979 11.0577 4.30584C10.837 5.03856 10.5456 5.28032 10.072 5.12411C9.617 4.97409 9.49302 4.5724 9.72982 3.86943C10.4254 1.82251 11.8387 0.57031 13.9464 0.0942251C14.0481 0.0719086 14.146 0.0309951 14.2452 0C16.8178 0 19.3904 0 21.963 0C22.6771 0.275236 23.3615 0.655856 23.5251 1.44437C23.6578 2.08287 23.9392 2.31347 24.5517 2.46225C25.3885 2.66558 25.9551 3.51856 25.9527 4.39882C25.9477 5.97709 25.8894 7.55413 25.8845 9.1324C25.8807 10.0908 25.9477 11.0479 25.9589 12.0063C25.9688 12.9225 25.5311 13.5114 24.6806 13.8536C24.5492 13.9069 24.4079 14.0854 24.3818 14.2255C24.0297 16.0889 23.0887 17.5606 21.4894 18.5834C21.1881 18.7756 21.1422 18.9826 21.2265 19.2752C21.4311 19.9869 21.8849 20.4617 22.6077 20.6415C23.2672 20.8064 23.9615 20.8721 24.5938 21.1052C25.5609 21.4622 26.4845 21.9346 27.4342 22.34C27.6636 22.438 27.9202 22.5161 28.1682 22.5248C28.7868 22.5446 29.408 22.5074 30.0266 22.5148C31.1189 22.5272 31.8442 23.224 31.8442 24.3163C31.8442 24.8196 31.9496 25.1866 32.3277 25.5722C32.9836 26.2392 32.81 27.1356 32.6823 27.9526C32.6563 28.1225 32.2459 28.3171 31.9955 28.3456C31.6458 28.3853 31.4326 28.1014 31.3904 27.7629C31.3508 27.4418 31.3731 27.1133 31.3681 26.7884C31.3644 26.4934 31.228 26.3136 30.9218 26.3099C27.252 26.2628 23.6553 26.631 20.2607 28.1745C19.8875 28.3444 19.7499 28.5465 19.7512 28.973C19.7685 34.226 19.7623 39.4803 19.7623 44.7334C19.7623 44.9007 19.7623 45.0693 19.7623 45.3198C23.4892 43.6882 27.3747 43.3113 31.3458 43.3721C31.3458 42.1124 31.3458 40.9086 31.3458 39.6328C30.9404 39.6328 30.5436 39.6378 30.1469 39.6316C29.0212 39.6142 28.3554 38.9621 28.3331 37.8425C28.3207 37.2078 28.3182 36.5717 28.3343 35.937C28.3703 34.5261 29.3187 33.6024 30.7309 33.5826C31.3669 33.5739 31.3669 33.5739 31.3669 32.9589C31.3669 32.339 31.3607 31.7191 31.3694 31.0992C31.3768 30.5698 31.6644 30.2475 32.0946 30.2636C32.5137 30.2785 32.7976 30.5798 32.7493 31.0992C32.6959 31.6571 32.8993 31.9572 33.3878 32.2213C34.5036 32.8263 35.0677 33.7809 34.9933 35.0827C34.966 35.5613 34.9908 36.0436 34.9883 36.5234C34.9797 37.9442 34.3164 38.9212 32.9947 39.4679C32.9241 39.4964 32.8559 39.5299 32.7617 39.5733C32.7617 40.6879 32.7617 41.8025 32.7617 42.917C32.7604 44.2697 32.2099 44.8015 30.8648 44.7718C27.6834 44.7024 24.5542 45.0247 21.5427 46.1219C20.9054 46.3538 20.3029 46.6799 19.678 46.9477C19.1412 47.1783 18.5957 47.3878 18.0551 47.6072C17.6856 47.6085 17.3137 47.6085 16.9418 47.6085ZM3.65354 39.6328C3.65354 40.9172 3.65354 42.1199 3.65354 43.2555C5.63971 43.408 7.60108 43.5022 9.54757 43.7254C11.4965 43.9486 13.3761 44.5015 15.2321 45.3235C15.2321 45.0495 15.2321 44.8648 15.2321 44.6813C15.2321 39.8002 15.2333 34.9203 15.2296 30.0392C15.2296 29.5011 15.3895 28.813 15.123 28.4647C14.8081 28.053 14.1224 27.9018 13.5745 27.6972C10.6002 26.5876 7.50065 26.2789 4.35279 26.3037C3.69569 26.3086 3.62874 26.3756 3.62751 27.0215C3.62627 28.9891 3.62627 30.9567 3.62751 32.9242C3.62751 33.5739 3.62751 33.5739 4.27592 33.5838C5.66326 33.6036 6.61667 34.5186 6.6613 35.901C6.68362 36.5817 6.68362 37.2648 6.65883 37.9454C6.62163 38.9596 5.9509 39.6031 4.93426 39.6291C4.51892 39.6415 4.10359 39.6328 3.65354 39.6328ZM10.4291 10.1961C10.4291 10.6202 10.4291 10.9747 10.4291 11.3306C10.4303 12.3038 10.6287 12.5109 11.6118 12.5654C12.1115 12.5927 12.3433 12.8097 12.3966 13.2994C12.4128 13.4531 12.4252 13.6081 12.4462 13.7618C12.8132 16.4906 15.113 18.4049 17.9336 18.328C20.6525 18.2549 22.8494 16.167 23.0602 13.4568C23.1197 12.6968 23.2387 12.5766 24.0235 12.5319C24.3174 12.5146 24.5554 12.4328 24.5628 12.0918C24.574 11.5227 24.5653 10.9537 24.5653 10.3747C23.5697 10.4962 22.8135 10.1974 22.2593 9.40143C22.1936 9.30721 21.9853 9.27497 21.8452 9.27621C21.136 9.28489 20.4182 9.40143 19.7214 9.32085C17.8629 9.10636 16.4062 8.11204 15.1589 6.77429C14.8676 6.46062 14.5415 6.30936 14.1237 6.47426C13.7145 6.63667 13.6166 6.9801 13.6191 7.37931C13.6228 8.04509 13.6327 8.7121 13.6191 9.37788C13.598 10.4032 12.7835 10.9871 11.8102 10.6797C11.3713 10.5396 10.9399 10.3747 10.4291 10.1961ZM16.6268 29.2495C16.6268 29.4478 16.6268 29.6462 16.6268 29.8446C16.6268 35.0319 16.6268 40.218 16.6268 45.4053C16.6268 46.1343 16.6764 46.1864 17.4005 46.2112C17.5083 46.2149 17.6175 46.2149 17.7253 46.205C18.3415 46.1492 18.3688 46.1182 18.3688 45.5095C18.3688 40.2601 18.3688 35.0121 18.3688 29.7627C18.3688 29.5817 18.3688 29.4019 18.3688 29.2495C17.7699 29.2495 17.2344 29.2495 16.6268 29.2495ZM4.58835 24.8742C4.67142 24.8853 4.76069 24.9027 4.85119 24.9077C6.02653 24.9734 7.20558 24.9882 8.37471 25.111C11.3081 25.4197 14.1373 26.1003 16.6913 27.6613C17.2306 27.9911 17.7761 27.9836 18.3155 27.6563C21.1397 25.9392 24.2764 25.2982 27.5111 25.0192C28.4781 24.9362 29.4501 24.9188 30.4159 24.8717C30.5387 24.015 30.4556 23.8786 29.651 23.9146C28.2289 23.979 26.7994 24.0224 25.3898 24.1985C23.0218 24.4936 20.7529 25.1321 18.7184 26.4537C17.915 26.9757 17.0905 26.9397 16.2636 26.4562C15.6635 26.1053 15.0622 25.7445 14.425 25.4718C11.5226 24.2282 8.45158 23.922 5.33471 23.9121C4.53628 23.9071 4.43958 24.0373 4.58835 24.8742ZM9.90587 22.6661C9.91083 22.7082 9.91703 22.7504 9.92199 22.7926C9.99142 22.8161 10.0584 22.8496 10.129 22.8607C12.5814 23.2389 14.932 23.9034 17.0323 25.2833C17.3484 25.4916 17.6782 25.4742 17.9919 25.2672C19.7921 24.0807 21.7968 23.4348 23.8933 23.0306C24.2876 22.955 24.6831 22.8781 25.0774 22.8025C25.0798 22.7541 25.0811 22.7058 25.0836 22.6574C24.2603 22.464 23.4346 22.278 22.6151 22.071C22.294 21.9904 22.0448 22.045 21.7572 22.2322C19.2751 23.8439 16.7025 23.9902 14.1472 22.4752C13.4406 22.0561 12.8529 21.8726 12.0755 22.128C11.3701 22.3586 10.6312 22.49 9.90587 22.6661ZM2.20049 33.5007C1.70085 33.7933 1.41817 34.1727 1.40826 34.7145C1.39586 35.3803 1.3909 36.0461 1.40826 36.7118C1.43057 37.5586 2.06287 38.1959 2.9171 38.2294C3.55064 38.2541 4.18666 38.2306 4.82144 38.243C5.13883 38.2492 5.27396 38.1079 5.27148 37.7991C5.26777 37.2722 5.27272 36.7465 5.27148 36.2196C5.26901 35.2563 4.99501 34.986 4.02424 34.9798C2.97413 34.9724 2.45961 34.567 2.20049 33.5007ZM32.7939 33.5082C32.541 34.5558 32.0227 34.9711 31.0111 34.9798C30.9032 34.9811 30.7941 34.9761 30.6862 34.9823C30.0961 35.0133 29.7576 35.322 29.7365 35.906C29.713 36.5395 29.7303 37.1755 29.7279 37.8103C29.7266 38.0893 29.8382 38.2467 30.1407 38.2417C30.8065 38.2331 31.4735 38.2566 32.138 38.2256C32.9377 38.1884 33.5613 37.5487 33.5886 36.7478C33.6109 36.0671 33.6084 35.3852 33.5886 34.7046C33.5712 34.169 33.3084 33.7723 32.7939 33.5082ZM20.6897 21.2403C20.3599 20.6254 20.0499 20.0476 19.7226 19.4376C18.2411 19.8815 16.7248 19.8319 15.2866 19.2789C15.0151 19.8765 14.756 20.4468 14.4907 21.0308C15.9797 22.3685 18.9899 22.4739 20.6897 21.2403Z"  />
	<path d="M29.6983 31.036C29.707 31.4526 29.4615 31.6993 28.9556 31.7514C27.9105 31.8592 26.8542 31.9002 25.8202 32.0737C24.6349 32.2746 23.467 32.5808 22.2954 32.8585C21.6929 33.0011 21.1982 32.6874 21.3222 32.1531C21.3767 31.9175 21.6309 31.6249 21.8578 31.5505C24.1502 30.798 26.5182 30.462 28.9234 30.364C29.397 30.3467 29.6896 30.617 29.6983 31.036Z"  />
</svg>
