<svg viewBox="0 0 35 37" xmlns="http://www.w3.org/2000/svg">
	<path d="M19.9051 36.2059C19.5892 36.0861 19.2564 35.9966 18.9594 35.841C17.9496 35.313 17.3339 34.1543 17.449 33.054C17.5753 31.8453 18.3654 30.8713 19.5062 30.5215C20.6131 30.1812 21.8388 30.5394 22.5686 31.4398C22.71 31.6143 22.8439 31.6888 23.0673 31.6831C23.7038 31.668 24.3402 31.6793 24.9766 31.6774C25.861 31.6746 26.504 31.2447 26.8415 30.4244C27.1187 29.7503 27.3874 29.0714 27.658 28.3945C27.6656 28.3747 27.6618 28.3502 27.6665 28.2842C27.5939 28.3492 27.5392 28.3935 27.4902 28.4435C26.6973 29.2591 25.5545 29.4203 24.6192 28.8461C23.6953 28.2795 23.3002 27.166 23.6802 26.1024C24.3769 24.1527 25.0935 22.2104 25.8016 20.2653C26.1514 19.3036 26.4946 18.3391 26.8528 17.3812C27.2573 16.2969 28.252 15.6916 29.3513 15.8472C30.4318 15.9999 31.2069 16.8853 31.3011 18.0402C31.3134 18.1892 31.4482 18.3278 31.5623 18.4504C32.6343 12.2135 28.7498 5.35909 21.6804 3.62804C14.2 1.79705 7.86503 6.47729 5.97464 12.1456C6.12361 12.1456 6.25749 12.1456 6.39138 12.1456C10.5276 12.1456 14.6648 12.1419 18.801 12.1475C20.7376 12.1503 22.265 13.3298 22.6921 15.1561C22.7713 15.4965 22.7967 15.8557 22.7977 16.2064C22.8062 19.117 22.8033 22.0275 22.8015 24.938C22.7996 27.347 21.1609 28.9998 18.7482 29.0224C17.9487 29.03 17.1491 29.0234 16.2987 29.0234C16.2987 29.2704 16.2987 29.4891 16.2987 29.7079C16.2987 30.3792 16.2959 31.0514 16.2997 31.7227C16.3034 32.4025 16.0168 32.9126 15.3917 33.1879C14.7798 33.4575 14.2235 33.3189 13.7219 32.888C12.418 31.7661 11.0914 30.6686 9.81105 29.5212C9.39243 29.1459 8.97758 28.9564 8.42413 29.0186C8.15637 29.0488 7.882 29.0318 7.61141 29.0177C7.27293 28.9998 7.06079 28.7876 7.06079 28.4944C7.06079 28.2021 7.27764 27.9777 7.61141 27.9702C8.20068 27.957 8.7909 27.9495 9.37829 27.9768C9.548 27.9853 9.73751 28.0918 9.87233 28.2059C11.3469 29.4542 12.813 30.7129 14.282 31.9688C14.3357 32.015 14.3819 32.0866 14.4441 32.1027C14.6252 32.1489 14.842 32.245 14.9863 32.1837C15.1107 32.1309 15.222 31.8915 15.2258 31.7312C15.2474 30.7657 15.2371 29.7993 15.2371 28.8329C15.2371 28.0767 15.353 27.9636 16.1243 27.9627C16.9842 27.9627 17.845 27.9664 18.7048 27.9617C20.5726 27.9523 21.7389 26.7756 21.7389 24.9022C21.7398 21.9558 21.7445 19.0104 21.737 16.0641C21.7332 14.6753 20.8338 13.5589 19.4959 13.2667C19.2573 13.2148 19.0047 13.2073 18.7586 13.2073C13.8558 13.2044 8.95307 13.2035 4.05031 13.2054C2.24289 13.2063 1.06718 14.3792 1.0634 16.1923C1.05775 19.1151 1.05775 22.0369 1.0634 24.9597C1.06623 26.7709 2.23535 27.941 4.04371 27.9608C4.39728 27.9645 4.75178 27.9523 5.10346 27.9749C5.38726 27.9928 5.55979 28.1757 5.57677 28.4577C5.59374 28.7358 5.45797 28.9743 5.17323 28.9922C4.02863 29.063 2.88119 29.1073 1.85539 28.4435C0.735297 27.7185 0.0564543 26.6993 0.0281692 25.3548C-0.0180298 23.1872 0.00742679 21.0187 0.00365544 18.8501C0.00176977 17.9431 -0.00294442 17.0352 0.00459828 16.1282C0.0187408 14.448 0.788096 13.2384 2.28626 12.4794C2.40318 12.42 2.5182 12.2805 2.55497 12.1541C3.93623 7.37393 6.86562 3.87695 11.3007 1.64714C13.1289 0.728813 15.0815 0.221567 17.1237 0.0622272C17.2265 0.0546845 17.3273 0.0216853 17.4292 0C18.1363 0 18.8434 0 19.5506 0C19.8749 0.0443133 20.1983 0.0886267 20.5226 0.131997C25.5847 0.808954 29.5324 3.29993 32.3373 7.53893C34.635 11.0114 35.4147 14.8695 34.7943 18.9737C34.5935 20.3021 34.1494 21.5947 33.7931 22.8977C33.695 23.256 33.4065 23.389 33.117 23.29C32.8012 23.1825 32.6852 22.91 32.8021 22.5404C32.8625 22.35 32.9379 22.1642 32.9964 21.9738C33.1397 21.5108 33.0888 21.0404 32.7456 20.7198C32.21 20.221 31.6038 19.7996 30.9938 19.3197C30.0208 21.9926 29.077 24.5864 28.12 27.2169C28.7196 27.2593 29.2806 27.2961 29.8407 27.3404C30.5968 27.3988 31.1446 27.0623 31.4124 26.3551C31.5708 25.9374 31.7122 25.5132 31.8687 25.0946C32.0139 24.707 32.2845 24.5581 32.5994 24.6778C32.8926 24.7891 32.9973 25.0748 32.8662 25.4472C32.7069 25.9026 32.5381 26.3542 32.3713 26.8058C32.1949 27.2848 31.8829 27.6553 31.4803 27.9655C31.3492 28.0664 31.2285 28.2125 31.1654 28.3643C30.6798 29.5372 30.2499 30.7365 29.7238 31.8905C28.9374 33.6159 27.5722 34.6408 25.6799 34.8576C24.8069 34.9576 23.9159 34.9019 23.0334 34.9255C22.9137 34.9283 22.743 34.9453 22.6855 35.0226C22.2131 35.66 21.5531 35.9881 20.8196 36.2031C20.5179 36.2059 20.2115 36.2059 19.9051 36.2059ZM33.579 19.9608C34.6086 14.4103 33.3999 9.49625 29.3438 5.56745C24.5533 0.927752 18.8444 -0.166882 12.6424 2.24018C8.08943 4.008 5.177 7.4503 3.64395 12.1456C3.93906 12.1456 4.15308 12.1221 4.35956 12.1503C4.70936 12.1984 4.86304 12.0693 4.98184 11.727C7.23899 5.23275 13.9803 1.15592 20.7555 2.37029C26.7435 3.44418 30.6176 7.03545 32.3496 12.8726C32.9379 14.8544 32.9643 16.889 32.6334 18.9293C32.6145 19.0444 32.6494 19.2169 32.7267 19.2886C32.9747 19.5177 33.2556 19.7119 33.579 19.9608ZM30.2442 18.144C30.2254 18.011 30.2188 17.9167 30.1971 17.8262C30.0688 17.3039 29.6427 16.9371 29.1251 16.8975C28.5292 16.8532 28.0672 17.1483 27.8475 17.7451C27.1998 19.5101 26.5605 21.2789 25.9185 23.0458C25.5093 24.1725 25.0954 25.2973 24.6928 26.4268C24.4269 27.1726 24.7786 27.8863 25.4904 28.0786C26.141 28.254 26.7293 27.9287 26.9839 27.2329C28.0323 24.3629 29.077 21.492 30.1198 18.6201C30.1792 18.4551 30.2093 18.2807 30.2442 18.144ZM20.3595 31.4606C19.3412 31.4549 18.5068 32.2733 18.4983 33.2859C18.4899 34.2948 19.3214 35.1377 20.3322 35.1443C21.3504 35.1509 22.1782 34.3334 22.1839 33.3133C22.1896 32.2846 21.3834 31.4662 20.3595 31.4606ZM30.0198 28.4162C29.6606 28.3917 29.3806 28.3841 29.1024 28.3502C28.8922 28.3247 28.7904 28.3973 28.714 28.5981C28.4472 29.3015 28.1605 29.9973 27.8796 30.695C27.3205 32.081 26.3484 32.7381 24.8597 32.7391C24.3213 32.7391 23.7839 32.7391 23.2399 32.7391C23.2399 33.1285 23.2399 33.4764 23.2399 33.8592C23.9215 33.8592 24.591 33.895 25.2566 33.8516C26.7369 33.7564 27.9182 33.0879 28.599 31.7623C29.1383 30.711 29.5314 29.5834 30.0198 28.4162Z"  />
	<path d="M11.3668 19.1773C9.00966 19.1773 6.65351 19.1773 4.29642 19.1773C4.17856 19.1773 4.05882 19.1848 3.94379 19.1669C3.67603 19.1254 3.48463 18.9454 3.51669 18.6927C3.54026 18.506 3.70054 18.3127 3.84857 18.1769C3.93248 18.1006 4.11728 18.1194 4.25682 18.1194C9.0172 18.1166 13.7776 18.1175 18.5389 18.1185C18.6671 18.1185 18.801 18.1213 18.9226 18.1571C19.197 18.2382 19.3243 18.44 19.2904 18.7219C19.2583 18.9887 19.0952 19.1434 18.8255 19.1707C18.7086 19.183 18.5898 19.1773 18.472 19.1773C16.1045 19.1773 13.7352 19.1773 11.3668 19.1773Z"  />
	<path d="M11.4176 20.7141C13.7747 20.7141 16.1318 20.7141 18.488 20.7141C18.5936 20.7141 18.701 20.7085 18.8057 20.7198C19.1074 20.7509 19.2828 20.9253 19.2941 21.2251C19.3054 21.5268 19.13 21.7079 18.8396 21.7644C18.7255 21.7861 18.6049 21.7748 18.487 21.7748C13.7615 21.7748 9.03601 21.7748 4.31051 21.7748C3.74952 21.7748 3.48647 21.5966 3.49779 21.2251C3.5091 20.8706 3.75707 20.7151 4.31051 20.7151C6.6808 20.7141 9.04921 20.7141 11.4176 20.7141Z"  />
	<path d="M10.1825 24.3572C8.22804 24.3572 6.27353 24.3572 4.31903 24.3572C4.20118 24.3572 4.08238 24.361 3.96641 24.3459C3.68168 24.3092 3.51574 24.1357 3.50442 23.8547C3.49216 23.5558 3.65716 23.3701 3.95416 23.3163C4.04561 23.2994 4.14178 23.2984 4.23512 23.2984C8.20258 23.2975 12.171 23.2975 16.1384 23.2984C16.2554 23.2984 16.376 23.3013 16.4892 23.3286C16.7532 23.3918 16.8861 23.5737 16.8805 23.8425C16.8748 24.1102 16.7362 24.2875 16.4684 24.3374C16.3421 24.361 16.211 24.3572 16.0819 24.3572C14.1151 24.3572 12.1484 24.3572 10.1825 24.3572Z"  />
</svg>
