<svg viewBox="0 0 35 35" xmlns="http://www.w3.org/2000/svg">
	<path d="M35 18.8672C34.7193 19.7723 34.032 20.084 33.1598 20.1651C32.5938 20.218 32.035 20.3383 31.4699 20.4039C31.2402 20.4303 31.1372 20.5187 31.0962 20.7457C31.0461 21.0246 30.9641 21.299 30.8811 21.5706C30.7799 21.8996 30.5174 22.0637 30.2413 21.9862C29.9405 21.9014 29.8083 21.6298 29.8958 21.2762C30.0043 20.835 30.1164 20.3939 30.2212 19.9518C30.2905 19.6602 30.4673 19.5161 30.7663 19.4742C31.6449 19.3503 32.5217 19.2099 33.3995 19.0768C33.8279 19.0112 33.9701 18.8535 33.9728 18.4233C33.9755 17.7971 33.9773 17.1701 33.9719 16.5439C33.9691 16.1547 33.8188 15.987 33.4341 15.9277C32.5454 15.7919 31.6577 15.6516 30.7672 15.5258C30.4518 15.4811 30.2759 15.3234 30.2158 15.0145C29.8831 13.3064 29.2323 11.7277 28.2589 10.2849C28.0738 10.0105 28.082 9.76901 28.2816 9.50469C28.8103 8.80469 29.328 8.0974 29.8466 7.3901C30.1173 7.02096 30.1036 6.81406 29.7874 6.49414C29.3544 6.05664 28.9197 5.62187 28.4822 5.18984C28.1896 4.90182 27.9727 4.88815 27.64 5.13151C26.9327 5.65013 26.2245 6.16602 25.5254 6.69648C25.2401 6.9125 24.9867 6.92617 24.6869 6.72292C23.2641 5.76133 21.7055 5.12057 20.0211 4.79062C19.682 4.72409 19.5161 4.54727 19.4688 4.20091C19.3512 3.33229 19.2081 2.46823 19.0759 1.60143C19.0103 1.1694 18.8553 1.02812 18.4251 1.02539C17.8099 1.02174 17.1947 1.02174 16.5794 1.02539C16.1447 1.02812 15.9879 1.16758 15.9232 1.59505C15.791 2.46094 15.6488 3.32591 15.5303 4.19453C15.4839 4.53815 15.3234 4.72227 14.9835 4.78971C13.2991 5.12057 11.7396 5.76042 10.3168 6.72109C10.0005 6.93437 9.74258 6.90521 9.45 6.68099C8.80833 6.1888 8.15299 5.71484 7.50313 5.23542C6.98086 4.84987 6.84961 4.85898 6.40026 5.30742C5.9974 5.70937 5.59271 6.11133 5.19258 6.51693C4.90273 6.81133 4.88542 7.02461 5.12878 7.3582C5.64648 8.06549 6.16328 8.77461 6.69375 9.47279C6.90977 9.75716 6.92708 10.0096 6.72383 10.3113C5.76315 11.7341 5.12148 13.2936 4.79063 14.9771C4.72409 15.3152 4.54909 15.4848 4.20365 15.5322C3.32409 15.6516 2.44818 15.7947 1.57044 15.9286C1.18125 15.9879 1.02995 16.152 1.02721 16.5393C1.02174 17.1773 1.02266 17.8154 1.02721 18.4534C1.02995 18.8572 1.17943 19.0158 1.59323 19.0786C2.47096 19.2126 3.34688 19.3539 4.22643 19.476C4.55911 19.5225 4.72591 19.6948 4.7888 20.0156C5.11966 21.7 5.75859 23.2595 6.71927 24.6823C6.93164 24.9977 6.90612 25.2556 6.6819 25.5491C6.16328 26.2272 5.66198 26.919 5.15612 27.6072C4.87539 27.99 4.8918 28.1841 5.23177 28.5268C5.65742 28.9552 6.08398 29.3827 6.51328 29.8065C6.80768 30.0973 7.02188 30.1173 7.35365 29.8721C8.33438 29.1484 9.31055 28.4202 10.2876 27.6919C10.3596 27.6382 10.4298 27.5762 10.4818 27.5042C10.7525 27.1259 11.0168 26.7422 11.293 26.3484C10.953 26.065 10.5583 25.8043 10.2512 25.4652C9.60313 24.7507 8.98698 24.006 8.38724 23.2513C8.11562 22.9095 8.16758 22.6042 8.44557 22.4201C8.71719 22.2396 9.00977 22.3335 9.23854 22.6935C9.98958 23.872 10.9439 24.8509 12.0449 25.5883C12.8853 25.2027 13.6846 24.8354 14.484 24.469C14.3773 24.377 14.2178 24.2448 14.0647 24.1053C13.5178 23.6077 13.094 23.0198 12.8124 22.3362C12.7395 22.1594 12.6529 22.0764 12.4569 22.0391C11.1243 21.7884 10.4444 20.6318 10.8309 19.3238C10.871 19.1889 10.8409 19.0112 10.788 18.8754C10.1336 17.2038 9.94583 15.5021 10.4599 13.7612C10.7288 12.8497 11.2447 12.0732 11.8809 11.375C12.1242 11.1079 12.3977 11.0742 12.6319 11.2674C12.8716 11.4643 12.888 11.7779 12.6465 12.0522C12.0121 12.7723 11.5053 13.5607 11.3194 14.5168C11.0715 15.7883 11.2164 17.0279 11.6594 18.2611C11.8754 18.1845 12.0823 18.1289 12.271 18.0359C12.3357 18.004 12.3858 17.881 12.3895 17.798C12.4031 17.4909 12.3895 17.1828 12.3977 16.8756C12.4077 16.481 12.5453 16.3297 12.94 16.2631C14.4284 16.0098 15.8712 15.6124 17.2074 14.8868C17.8737 14.525 18.468 14.0738 18.9547 13.4841C19.3138 13.0503 19.7331 13.1168 19.9482 13.64C20.434 14.8221 21.1549 15.7965 22.3107 16.4154C22.451 16.4901 22.534 16.7098 22.5969 16.8802C22.6415 17.0005 22.6078 17.1509 22.6078 17.2867C22.6078 17.9949 22.6078 17.9949 23.3561 18.2656C23.4227 17.86 23.4974 17.4645 23.5493 17.0671C23.6806 16.0681 23.7134 15.0701 23.4536 14.082C23.069 12.6173 22.0391 11.8025 20.5197 11.8344C20.0138 11.8453 19.6948 11.715 19.3831 11.293C18.4206 9.99049 16.9057 9.6487 15.2077 10.2967C14.8376 10.438 14.4922 10.6431 14.1312 10.8099C13.8615 10.9348 13.5862 10.8473 13.4595 10.5975C13.3264 10.3359 13.3784 10.0862 13.6227 9.93854C14.9826 9.11367 16.4236 8.67708 18.0177 9.12825C18.8891 9.37526 19.5827 9.89297 20.1615 10.5829C20.249 10.6868 20.413 10.7807 20.5452 10.7853C22.8539 10.8646 24.3596 12.2956 24.613 14.6271C24.7744 16.1118 24.5583 17.5547 24.2484 18.9966C24.2092 19.178 24.201 19.3822 24.2393 19.5626C24.4854 20.702 23.7818 21.8066 22.6361 22.019C22.3827 22.0664 22.2523 22.1658 22.153 22.4055C21.7966 23.2659 21.2014 23.9467 20.5023 24.4699C21.299 24.8318 22.0992 25.1964 22.9633 25.5892C24.9876 24.2001 26.3986 22.2605 26.9883 19.7695C28.2935 14.2634 24.706 8.85391 19.127 7.87773C13.7885 6.94167 8.5832 10.7352 7.84766 16.0827C7.63438 17.634 7.75833 19.147 8.26055 20.6299C8.26419 20.6409 8.26602 20.6518 8.26966 20.6628C8.40182 21.0702 8.30521 21.36 8.00443 21.4612C7.68542 21.5678 7.44479 21.412 7.3026 21.0027C6.86328 19.7413 6.65547 18.4397 6.72565 17.1081C6.9125 13.578 8.42734 10.7406 11.3057 8.68893C17.5365 4.24831 26.4132 7.65352 28.0046 15.143C28.9516 19.5973 27.5087 23.2805 23.9568 26.1333C23.8857 26.1908 23.8118 26.2436 23.7408 26.3001C23.7234 26.3138 23.7116 26.3348 23.6997 26.3484C24.222 27.0913 24.7461 27.8168 25.5391 28.3227C26.2664 28.7866 26.9345 29.3453 27.63 29.8594C27.9745 30.1137 28.1896 30.0982 28.4986 29.7937C28.9279 29.3699 29.3544 28.9424 29.7801 28.5131C30.1109 28.1796 30.1219 27.9827 29.8339 27.5917C29.328 26.9035 28.8276 26.2108 28.309 25.5327C28.0811 25.2346 28.0839 24.9776 28.288 24.6641C28.5797 24.2174 28.8376 23.7471 29.0974 23.2796C29.3079 22.9004 29.5613 22.7673 29.853 22.9086C30.1538 23.0535 30.2167 23.3579 30.0061 23.7581C29.7737 24.2001 29.5249 24.634 29.2706 25.0943C29.7345 25.7232 30.2085 26.3621 30.6788 27.0047C31.2594 27.7967 31.2029 28.5396 30.5092 29.2387C30.0681 29.6835 29.627 30.1283 29.1794 30.5676C28.5569 31.1783 27.7767 31.2375 27.0749 30.7271C26.5499 30.3452 26.0331 29.9533 25.5108 29.5668C25.4315 29.5076 25.3458 29.4565 25.3258 29.4428C25.3331 31.0826 25.3522 32.7432 25.3331 34.403C25.3313 34.6026 25.1289 34.8004 25.0186 34.9982C20.0056 34.9982 14.9926 34.9982 9.97956 34.9982C9.87018 34.8113 9.66784 34.6263 9.66602 34.4385C9.6487 32.7687 9.66784 31.098 9.67604 29.441C9.64505 29.462 9.55208 29.5203 9.46458 29.585C8.95326 29.966 8.44557 30.3516 7.92969 30.7243C7.22057 31.2375 6.4513 31.1819 5.82695 30.573C5.41133 30.1684 5.00482 29.7536 4.59466 29.3426C3.7543 28.5013 3.70599 27.8387 4.41419 26.878C4.85807 26.2755 5.30195 25.673 5.74219 25.076C4.86536 23.6952 4.23281 22.2432 3.88555 20.6737C3.84727 20.5023 3.76432 20.4404 3.59115 20.4167C2.93854 20.3273 2.29049 20.1842 1.63516 20.125C0.805729 20.0512 0.263411 19.6538 0 18.8672C0 17.9557 0 17.0443 0 16.1328C0.259766 15.3408 0.810286 14.9488 1.6388 14.8714C2.2832 14.8112 2.92031 14.6717 3.5638 14.5888C3.76888 14.5624 3.83724 14.474 3.89831 14.288C4.18542 13.403 4.45885 12.5107 4.80794 11.6484C5.05313 11.0432 5.41042 10.4827 5.71758 9.90208C5.71302 9.89206 5.70938 9.88021 5.70299 9.872C5.23086 9.22943 4.7569 8.58958 4.2875 7.94518C3.75977 7.22057 3.81445 6.45221 4.43971 5.8151C4.87813 5.36758 5.32292 4.92643 5.76862 4.48529C6.46406 3.79531 7.2069 3.74336 8.00352 4.3276C8.64518 4.79792 9.28411 5.27096 9.87839 5.70937C10.6331 5.33112 11.3249 4.93008 12.0595 4.63112C12.8042 4.3276 13.5917 4.13164 14.3546 3.87279C14.4448 3.8418 14.5505 3.7224 14.5669 3.62943C14.6836 2.96862 14.8103 2.3069 14.8741 1.63971C14.9497 0.811198 15.3408 0.259766 16.1328 0C17.0443 0 17.9557 0 18.8672 0C19.6574 0.261589 20.053 0.809375 20.1277 1.6388C20.1852 2.27227 20.3246 2.89753 20.4021 3.53008C20.4303 3.76159 20.5342 3.83724 20.7448 3.90469C21.5988 4.17812 22.4574 4.44427 23.2869 4.78242C23.913 5.03763 24.4964 5.39857 25.1116 5.7194C25.7533 5.24544 26.4013 4.76328 27.0539 4.28659C27.7785 3.75794 28.5432 3.81172 29.184 4.43789C29.6315 4.87539 30.0727 5.32109 30.5138 5.76588C31.2029 6.46224 31.2557 7.20234 30.6724 8.00078C30.203 8.64245 29.729 9.28138 29.2915 9.87474C29.6698 10.6303 30.0708 11.323 30.3698 12.0568C30.6733 12.8014 30.8711 13.588 31.1299 14.3509C31.1609 14.4411 31.2794 14.5478 31.3715 14.5642C32.0323 14.6809 32.694 14.8085 33.3612 14.8714C34.1897 14.9497 34.7375 15.3426 34.9991 16.1328C35 17.0443 35 17.9557 35 18.8672ZM24.3059 33.9555C24.3113 33.8607 24.3214 33.7832 24.3204 33.7066C24.3022 32.4206 24.366 31.1263 24.2457 29.8503C24.0352 27.6208 22.0245 25.7095 19.8169 25.4835C19.5544 25.457 19.4551 25.5372 19.3803 25.7669C19.2746 26.0905 19.1151 26.3977 19.0203 26.724C18.9565 26.9427 18.9146 27.1906 18.952 27.4112C19.1525 28.5997 19.3758 29.7846 19.6018 30.9695C19.6665 31.3095 19.6173 31.5802 19.3484 31.8309C18.89 32.2574 18.4625 32.7168 18.0204 33.1607C17.613 33.5699 17.3915 33.5717 16.9932 33.1716C16.543 32.7195 16.1055 32.2547 15.6415 31.8172C15.3973 31.5866 15.3289 31.3368 15.39 31.0197C15.5431 30.2267 15.6798 29.431 15.8348 28.638C16.1392 27.0758 16.1355 27.0794 15.6023 25.7186C15.5167 25.4999 15.4128 25.4652 15.2004 25.4853C13.1122 25.6867 11.1362 27.3857 10.8345 29.5021C10.6285 30.944 10.727 32.4297 10.6914 33.8953C10.6914 33.9135 10.7142 33.9327 10.7306 33.9573C11.3258 33.9573 11.9237 33.9573 12.559 33.9573C12.559 33.8169 12.559 33.6939 12.559 33.5717C12.5599 32.8198 12.5544 32.0678 12.5635 31.3168C12.5672 30.9923 12.7732 30.7781 13.0539 30.7708C13.3328 30.7626 13.5516 30.9714 13.5816 31.2885C13.5944 31.4243 13.5871 31.562 13.5871 31.6987C13.5871 32.447 13.5871 33.1953 13.5871 33.9546C16.2139 33.9546 18.8034 33.9546 21.4156 33.9546C21.4156 33.8078 21.4156 33.6848 21.4156 33.5608C21.4156 32.8316 21.4111 32.1025 21.4184 31.3742C21.422 31.0033 21.6298 30.7736 21.9315 30.7717C22.2332 30.7699 22.4365 31.0005 22.441 31.3706C22.4474 31.8828 22.4428 32.396 22.4428 32.9082C22.4428 33.2573 22.4428 33.6073 22.4428 33.9591C23.0891 33.9555 23.6879 33.9555 24.3059 33.9555ZM19.2591 14.8021C18.529 15.2341 17.8063 15.7764 16.9987 16.11C15.9441 16.5466 14.8221 16.8201 13.7275 17.1582C13.578 17.2047 13.4148 17.1901 13.4185 17.4298C13.4376 18.5454 13.3857 19.6656 13.4677 20.7767C13.619 22.8275 15.4292 24.4171 17.5155 24.4116C19.5818 24.4061 21.3773 22.8129 21.5332 20.7794C21.6089 19.7941 21.5441 18.7979 21.5888 17.809C21.6089 17.3642 21.5177 17.0488 21.0957 16.8474C20.9262 16.7663 20.7749 16.6241 20.6509 16.4783C20.166 15.9104 19.6957 15.3307 19.2591 14.8021ZM17.4891 32.2237C17.8099 31.9047 18.1189 31.6203 18.396 31.3086C18.4835 31.2102 18.5454 31.0288 18.5236 30.9012C18.3513 29.8585 18.1544 28.8194 17.973 27.7785C17.943 27.6044 17.8792 27.5115 17.6878 27.5297C17.5529 27.5424 17.4079 27.506 17.2803 27.5415C17.1865 27.5671 17.0579 27.6628 17.0415 27.7448C16.8355 28.8167 16.6432 29.8904 16.4582 30.9659C16.4436 31.0516 16.4701 31.1755 16.5266 31.2357C16.8346 31.5674 17.1573 31.8855 17.4891 32.2237ZM16.6013 25.4379C16.6624 25.6056 16.7016 25.7223 16.7462 25.8371C17.0315 26.579 17.0315 26.5818 17.8227 26.4961C17.8992 26.4879 18.0095 26.4387 18.0359 26.3776C18.1672 26.0805 18.2757 25.7724 18.4042 25.4379C18.241 25.4379 18.128 25.4379 18.015 25.4379C17.5592 25.4379 17.1044 25.4379 16.6013 25.4379ZM12.3913 19.1279C11.9419 19.2865 11.7277 19.621 11.7487 20.0858C11.7678 20.5142 12.0285 20.8423 12.3913 20.9262C12.3913 20.3355 12.3913 19.7376 12.3913 19.1279ZM22.606 20.9426C23.0608 20.7721 23.2878 20.4148 23.2486 19.9227C23.2167 19.5271 22.9688 19.2208 22.606 19.1543C22.606 19.4523 22.606 19.7467 22.606 20.0411C22.606 20.3355 22.606 20.6309 22.606 20.9426Z"  />
	<path d="M17.4845 22.8348C16.9048 22.8147 16.4181 22.6133 16.0936 22.1111C15.8977 21.8076 15.9469 21.4885 16.1939 21.3236C16.4464 21.1549 16.728 21.2324 16.9477 21.5332C17.2193 21.9051 17.7798 21.906 18.0515 21.535C18.2757 21.2297 18.5473 21.1522 18.8043 21.3217C19.0531 21.4858 19.1033 21.8048 18.9082 22.1083C18.5765 22.6251 18.0761 22.8211 17.4845 22.8348Z"  />
	<path d="M15.7874 19.4168C15.7874 19.61 15.8011 19.8051 15.7837 19.9965C15.7582 20.2872 15.5322 20.4859 15.256 20.4659C14.9662 20.4449 14.7866 20.2781 14.7711 19.9892C14.752 19.6264 14.7511 19.26 14.772 18.8973C14.7884 18.6083 14.9744 18.4452 15.2633 18.427C15.5377 18.4096 15.7591 18.612 15.7847 18.9046C15.8001 19.0741 15.7874 19.2464 15.7874 19.4168Z"  />
	<path d="M20.2317 19.4642C20.2317 19.6465 20.249 19.8306 20.228 20.0102C20.1934 20.2982 20.012 20.465 19.724 20.465C19.4341 20.4659 19.2409 20.2963 19.2209 20.0102C19.1953 19.6365 19.1953 19.2582 19.2209 18.8845C19.24 18.5974 19.436 18.4288 19.724 18.4288C20.0111 18.4288 20.1952 18.5956 20.2289 18.8845C20.2499 19.075 20.2317 19.271 20.2317 19.4642Z"  />
</svg>
