<svg viewBox="0 0 35 32" xmlns="http://www.w3.org/2000/svg">
	<path d="M35 3.70589C34.773 4.00859 34.5405 4.30217 34.1028 4.27117C33.9898 4.26296 33.9725 4.33317 33.9752 4.42252C33.977 4.50184 33.9752 4.58207 33.9752 4.66139C33.9752 8.00932 33.9752 11.3581 33.9752 14.7061C33.9752 15.4874 33.667 15.792 32.8738 15.792C30.8698 15.7929 28.8649 15.7901 26.8609 15.7974C26.7296 15.7983 26.4843 15.6835 26.4807 15.9187C26.477 16.153 26.3111 16.4429 26.6749 16.6244C27.3049 16.938 27.6049 17.4814 27.5501 18.1871C27.4982 18.8509 27.1317 19.3095 26.5217 19.552C25.7403 19.8629 24.835 19.4772 24.4894 18.7086C24.143 17.9391 24.4539 17.0365 25.2061 16.6289C25.3866 16.5314 25.537 16.0108 25.4331 15.8421C25.3875 15.7692 25.3127 15.791 25.248 15.791C23.5968 15.7901 21.9457 15.792 20.2936 15.7874C20.1596 15.7874 20.0921 15.8521 20.0201 15.9488C19.3654 16.8231 18.7117 17.6975 18.0461 18.5646C17.9376 18.7068 17.9595 18.7861 18.0644 18.9092C18.585 19.5155 18.7929 20.2294 18.7919 21.0199C18.7883 23.9812 18.791 26.9426 18.7901 29.903C18.7901 30.4783 18.6351 30.6351 18.0653 30.6351C13.7263 30.6351 9.38731 30.637 5.04832 30.6315C4.81127 30.6315 4.60795 30.6762 4.4101 30.8084C3.81473 31.2086 3.16101 31.3727 2.438 31.3299C1.39953 31.2688 0.490518 30.6096 0.140408 29.6249C0.10485 29.5246 0.123085 29.3942 0 29.3359C0 26.3053 0 23.2755 0 20.2449C0.0738512 20.2349 0.0738512 20.1711 0.0911743 20.12C0.630015 18.5463 1.62837 17.8306 3.28228 17.8297C4.42104 17.8297 5.56072 17.8251 6.69949 17.8343C6.91284 17.8361 7.00036 17.7951 6.99125 17.5553C6.9721 17.0091 6.97666 16.4621 6.98942 15.915C6.99398 15.7208 6.92834 15.6169 6.76514 15.5093C5.88895 14.9331 5.27991 14.1453 4.96718 13.1397C4.88421 12.8716 4.90518 12.4787 4.73012 12.3574C4.52863 12.217 4.1612 12.3255 3.86762 12.3045C3.09628 12.2507 2.52006 11.8824 2.22921 11.1612C1.94019 10.4446 2.06966 9.77263 2.60303 9.2037C2.7252 9.07332 2.76623 8.94932 2.76349 8.78156C2.7562 8.36034 2.75438 7.9382 2.76349 7.51697C2.7717 7.1541 2.98961 6.91978 3.28775 6.92708C3.57768 6.93437 3.77279 7.15684 3.78556 7.50512C3.79194 7.66468 3.78738 7.82423 3.78738 7.98379C3.78738 8.63386 3.78829 8.61654 4.44384 8.63751C4.73012 8.64662 4.77571 8.54542 4.77206 8.29196C4.75839 7.34648 4.7593 6.401 4.76933 5.45552C4.77753 4.72704 5.20241 4.10614 5.87619 3.9475C6.55635 3.78703 7.25839 3.76059 7.91028 4.09429C9.48304 4.90118 11.1479 5.26679 12.9139 5.1975C13.5987 5.17106 14.0135 5.59867 14.0181 6.29433C14.0217 6.82952 14.019 7.36471 14.019 7.90082C14.019 8.65209 14.019 8.6448 14.7675 8.63204C14.9489 8.6293 14.9945 8.58007 14.9936 8.40319C14.9854 6.91066 15.0119 5.41814 14.9781 3.92653C14.9407 2.2781 13.6543 1.0436 12.0067 1.03083C10.8105 1.02172 9.61433 1.02536 8.41904 1.02992C7.69603 1.03266 7.12983 1.3545 6.80616 1.98908C6.60649 2.38113 6.34938 2.52153 5.94092 2.47686C5.81692 2.46318 5.69019 2.47412 5.56528 2.47503C4.48031 2.47777 3.80197 3.15155 3.78829 4.24199C3.78465 4.51552 3.79741 4.78904 3.78009 5.06165C3.76094 5.37073 3.56218 5.55764 3.27772 5.55217C2.9814 5.5467 2.79449 5.38349 2.77717 5.09721C2.74526 4.56384 2.71426 4.025 2.84373 3.49983C3.14369 2.27719 4.18764 1.45115 5.45131 1.45662C5.77407 1.45844 5.96736 1.36818 6.16977 1.0983C6.71317 0.376202 7.46809 0.00968162 8.37892 0.00421116C9.60886 -0.00308278 10.8397 0.000564188 12.0697 0.00421116C12.2511 0.0051229 12.4353 0.0115051 12.614 0.0425044C14.6517 0.402643 16.0038 2.00458 16.0148 4.08153C16.023 5.61964 16.0193 7.15684 16.0129 8.69495C16.012 8.90921 16.0576 9.07058 16.2135 9.23926C16.694 9.75713 16.8189 10.3826 16.5974 11.0472C16.3758 11.7128 15.8981 12.1185 15.2042 12.2653C14.8869 12.3328 14.5678 12.3118 14.2515 12.3C14.0436 12.2927 13.9825 12.3665 13.9497 12.5598C13.7381 13.8162 13.0817 14.7918 12.0295 15.4984C11.8581 15.6133 11.7834 15.7245 11.7898 15.9333C11.8043 16.4457 11.8098 16.959 11.7888 17.4705C11.777 17.7458 11.8445 17.8397 12.1399 17.8352C13.2558 17.8169 14.3727 17.8324 15.4887 17.8251C15.9829 17.8215 16.467 17.858 16.9229 18.0649C17.0314 18.1142 17.0979 18.1205 17.1791 18.012C17.7206 17.2845 18.2686 16.5633 18.8239 15.8275C17.9577 15.6561 17.7863 15.4428 17.7863 14.5748C17.7863 11.2487 17.7845 7.9227 17.7908 4.59666C17.7918 4.3669 17.7635 4.25932 17.4909 4.24473C17.0806 4.22193 16.798 3.87821 16.767 3.42872C16.7496 3.1789 16.7606 2.92817 16.7615 2.67744C16.7642 1.91614 17.076 1.60614 17.8465 1.60614C23.2002 1.60523 28.554 1.60888 33.9068 1.60067C34.4283 1.59976 34.8012 1.76935 34.9954 2.26716C35 2.74856 35 3.22722 35 3.70589ZM20.9263 14.7562C21.0357 14.7617 21.0768 14.7662 21.1178 14.7662C24.9772 14.7662 28.8375 14.7644 32.6969 14.7717C32.9212 14.7717 32.9531 14.6951 32.9531 14.4982C32.9477 11.1731 32.9468 7.84885 32.954 4.52372C32.955 4.30308 32.8829 4.2657 32.6824 4.2657C28.151 4.27117 23.6196 4.27208 19.0873 4.26479C18.8466 4.26479 18.8084 4.35231 18.812 4.56201C18.8239 5.19932 18.8166 5.83754 18.8166 6.47485C18.8166 9.12802 18.8156 11.7812 18.8193 14.4335C18.8193 14.5401 18.7637 14.6705 18.8767 14.7517C19.029 14.8611 19.6572 14.7289 19.7784 14.5684C20.2042 14.0058 20.6245 13.4397 21.054 12.8808C21.2856 12.5799 21.6092 12.5361 21.849 12.7577C22.0578 12.9501 22.0733 13.2181 21.8718 13.4944C21.5746 13.9019 21.2664 14.3031 20.9263 14.7562ZM9.39551 19.3459C9.13476 19.7817 8.89223 20.192 8.64606 20.5996C8.26495 21.2296 7.72702 21.3116 7.17268 20.8248C6.48797 20.2248 5.80325 19.624 5.11944 19.0223C5.01641 18.932 4.92159 18.8518 4.76477 18.8545C4.15026 18.8654 3.53392 18.8426 2.92031 18.8682C1.88275 18.9119 1.04212 19.7589 1.03665 20.7947C1.02206 23.4716 1.02662 26.1484 1.03392 28.8244C1.03574 29.4927 1.47429 30.0607 2.11889 30.2358C2.6632 30.3835 3.19201 30.3352 3.69712 30.0398C5.1477 29.19 6.60649 28.354 8.06437 27.5151C8.40263 27.3209 8.71535 27.382 8.86488 27.6592C9.00894 27.9245 8.90864 28.2044 8.58771 28.3968C8.21754 28.6184 7.8419 28.8317 7.46809 29.0478C7.1736 29.2183 6.8791 29.3879 6.58461 29.5574C9.2077 29.6112 11.8034 29.6094 14.4001 29.6149C14.5879 29.6149 14.6253 29.5511 14.6235 29.3787C14.6152 28.5244 14.6162 27.6701 14.6216 26.8158C14.6244 26.4092 14.897 26.1712 15.2507 26.2615C15.5562 26.3399 15.6464 26.5733 15.6455 26.8614C15.6446 27.6929 15.6537 28.5244 15.6391 29.356C15.6355 29.572 15.6975 29.6222 15.9044 29.6158C16.4396 29.6003 16.9748 29.5994 17.51 29.6158C17.7252 29.6222 17.7717 29.5556 17.7717 29.3487C17.7644 26.535 17.7671 23.7223 17.7662 20.9087C17.7662 20.5257 17.6668 20.1692 17.4799 19.8337C17.3687 19.6331 17.2885 19.5602 17.1143 19.8C16.6156 20.492 16.0987 21.1721 15.578 21.8478C15.4741 21.9827 15.4595 22.0793 15.527 22.2389C15.9509 23.2391 15.6346 24.2985 14.7092 24.8529C13.4327 25.6178 12.1362 26.349 10.8443 27.0885C10.5425 27.2608 10.2516 27.1887 10.103 26.9335C9.94621 26.6645 10.041 26.3809 10.3583 26.1922C10.641 26.0235 10.9236 25.853 11.2163 25.7026C11.3941 25.6105 11.3959 25.5275 11.2965 25.3662C11.0403 24.9504 10.7841 24.5328 10.5671 24.0961C10.4176 23.7961 10.2972 23.7588 9.99453 23.9366C8.01696 25.1009 6.02662 26.2424 4.0372 27.3875C3.53848 27.6747 3.15372 27.4504 3.15098 26.8769C3.14643 26.1475 3.14643 25.4191 3.1519 24.6897C3.15463 24.3259 3.36889 24.0934 3.67341 24.0988C3.97794 24.1043 4.17214 24.3341 4.17487 24.7061C4.17852 25.1565 4.17578 25.6069 4.17578 26.1202C4.6271 25.8612 5.02735 25.6333 5.42578 25.4026C7.76714 24.0505 10.1103 22.7011 12.4489 21.3436C13.1255 20.9506 13.8156 20.8612 14.5286 21.2086C14.7 21.2925 14.7611 21.2332 14.8523 21.1092C15.3063 20.4965 15.7704 19.8911 16.2263 19.2803C16.2919 19.1918 16.4351 19.0988 16.3913 19.0031C16.3357 18.8791 16.1625 18.8809 16.0321 18.8782C15.3948 18.8664 14.7566 18.8691 14.1193 18.8536C13.9351 18.849 13.7974 18.9028 13.6616 19.025C13.0078 19.6094 12.345 20.1838 11.6885 20.7646C11.0467 21.3326 10.5379 21.2588 10.1039 20.5321C9.87874 20.1528 9.6508 19.7726 9.39551 19.3459ZM5.79686 8.808C5.79686 9.76442 5.79686 10.7199 5.79686 11.6763C5.79686 12.041 5.82057 12.4021 5.92451 12.7558C6.38129 14.3186 7.69147 15.2139 9.51222 15.2002C11.5491 15.1856 12.9887 13.7497 12.9951 11.7156C13.0005 9.98506 12.9896 8.25549 13.0033 6.525C13.0051 6.25968 12.9322 6.215 12.6823 6.2223C10.971 6.27062 9.33534 5.92872 7.79996 5.17288C7.37509 4.96409 6.95751 4.86471 6.49252 4.8866C5.98377 4.9103 5.79869 5.08171 5.79778 5.59684C5.79504 6.66814 5.79686 7.73762 5.79686 8.808ZM25.8789 3.24363C28.4637 3.24363 31.0485 3.24181 33.6324 3.24728C33.8658 3.24819 33.9852 3.23452 33.9889 2.93455C33.9934 2.60724 33.8311 2.63368 33.616 2.63368C28.4692 2.63641 23.3233 2.63641 18.1765 2.63368C17.9504 2.63368 17.7781 2.60268 17.7763 2.94914C17.7753 3.32204 17.9905 3.24272 18.1929 3.24272C20.7549 3.24363 23.3169 3.24363 25.8789 3.24363ZM13.5895 22.0237C13.4674 22.0091 13.3297 22.0392 13.2121 22.1049C12.5994 22.4477 11.9931 22.8014 11.3813 23.1461C11.2555 23.2172 11.2728 23.2837 11.3348 23.3886C11.6338 23.8964 11.9283 24.4061 12.2183 24.9185C12.283 25.0334 12.3386 25.0534 12.4562 24.9832C13.0498 24.6304 13.6597 24.3031 14.2423 23.9329C14.6472 23.6758 14.7794 23.1835 14.628 22.7285C14.4858 22.3064 14.0709 22.0201 13.5895 22.0237ZM9.38457 17.8315C9.76021 17.8315 10.1358 17.8242 10.5115 17.8343C10.6902 17.8388 10.7832 17.8078 10.7768 17.5963C10.7622 17.1641 10.7677 16.731 10.775 16.2989C10.7777 16.1339 10.7476 16.0928 10.5644 16.1275C9.78665 16.2752 9.00164 16.2843 8.22575 16.1229C7.99872 16.0755 8.01149 16.1649 8.01331 16.318C8.01787 16.7393 8.02334 17.1605 8.01058 17.5808C8.00511 17.7723 8.05981 17.8425 8.25766 17.8352C8.6333 17.8215 9.00893 17.8315 9.38457 17.8315ZM4.77024 10.4583C4.77024 10.2531 4.76659 10.0489 4.77206 9.84374C4.7748 9.7243 4.75292 9.64772 4.60795 9.65319C4.34719 9.66322 4.08279 9.64133 3.82385 9.6696C3.45915 9.70972 3.19201 9.98233 3.1364 10.3261C3.05525 10.8293 3.38621 11.2378 3.91138 11.2816C4.77115 11.3527 4.77115 11.3527 4.77115 10.5941C4.77024 10.5494 4.77024 10.5038 4.77024 10.4583ZM14.0226 10.4747C14.0226 10.6798 14.0244 10.884 14.0217 11.0892C14.0199 11.2013 14.0263 11.2916 14.1794 11.2852C14.4411 11.2752 14.7046 11.2989 14.9635 11.2688C15.3547 11.2241 15.6346 10.9178 15.6637 10.5467C15.7039 10.0389 15.3574 9.67598 14.814 9.65501C14.0226 9.62492 14.0226 9.62492 14.0226 10.3379C14.0226 10.3844 14.0226 10.4291 14.0226 10.4747ZM10.3146 18.8736C10.5224 19.2256 10.7048 19.5356 10.888 19.8447C10.94 19.9322 10.9765 20.0316 11.1078 19.913C11.4798 19.5757 11.86 19.2484 12.2867 18.8736C11.5937 18.8736 10.9765 18.8736 10.3146 18.8736ZM6.50529 18.8736C6.9329 19.2493 7.29668 19.5711 7.6632 19.8893C7.71608 19.9349 7.78264 20.0389 7.85193 19.9249C8.05981 19.5866 8.25584 19.242 8.47283 18.8736C7.79905 18.8736 7.19274 18.8736 6.50529 18.8736ZM26.5317 18.0513C26.5317 17.7285 26.2655 17.4614 25.9491 17.4668C25.6355 17.4723 25.3647 17.7558 25.3738 18.0668C25.3838 18.3722 25.6391 18.6211 25.9473 18.6257C26.2792 18.6293 26.5317 18.3813 26.5317 18.0513Z"  />
	<path d="M9.3827 13.6375C8.88124 13.6539 8.44178 13.4971 8.06979 13.1643C7.81815 12.94 7.78441 12.6346 7.97679 12.4121C8.16279 12.1969 8.44087 12.1796 8.70892 12.3665C9.19306 12.7048 9.60243 12.7048 10.082 12.3693C10.361 12.1742 10.6537 12.2006 10.8351 12.4376C11.0092 12.6656 10.9719 12.9446 10.7266 13.1634C10.3428 13.5044 9.89145 13.6585 9.3827 13.6375Z"  />
</svg>
