<svg width="161" height="329" viewBox="0 0 161 329" fill="none" xmlns="http://www.w3.org/2000/svg">
<path d="M113.881 146.178C113.881 146.178 141.602 138.126 151.339 123.992L144.031 121.279C144.031 121.279 134.142 127.449 119.417 131.256C104.692 135.063 113.881 146.178 113.881 146.178Z" fill="#FFBFA1"/>
<path d="M155.583 91.6984C155.583 91.6984 158.449 124.364 152.389 136.463L128.322 137.426C128.322 137.426 130.882 108.261 129.284 95.199L155.583 91.6984Z" fill="white"/>
<path d="M58.1113 302.702L55.1795 320.314H48.3313L50.6286 301.17L58.1113 302.702Z" fill="#16333C"/>
<path d="M46.2745 311.978C46.2745 311.978 42.38 317.054 36.4507 318.827C30.5214 320.599 25.1829 322.874 25.6205 326.44C25.6205 326.44 34.4378 330.751 48.7249 325.959V327.469L58.1111 327.053V314.582L50.3221 315.129L50.891 313.904L46.2745 311.978Z" fill="#333030"/>
<path d="M42.4894 326.134C29.6682 329.438 26.4301 325.762 25.6643 325.521C25.5768 325.828 25.5549 326.134 25.5987 326.44C25.5987 326.44 34.416 330.751 48.7031 325.959V327.469L58.0893 327.053V324.559C54.7637 324.756 51.9412 323.705 42.4894 326.134Z" fill="#1C1918"/>
<path d="M47.5652 319.242C47.4339 319.242 47.3027 319.177 47.2151 319.067C45.2898 316.201 43.1456 315.392 43.1237 315.392C42.9049 315.304 42.7955 315.085 42.8831 314.867C42.9706 314.648 43.1894 314.538 43.4082 314.626C43.5176 314.67 45.8367 315.523 47.9153 318.63C48.0466 318.827 47.9809 319.067 47.8059 319.199C47.7184 319.22 47.6527 319.242 47.5652 319.242Z" fill="#1C1918"/>
<path d="M45.4213 320.205C45.2901 320.205 45.1588 320.139 45.0713 320.03C43.1459 317.164 41.0017 316.354 40.9799 316.354C40.7611 316.267 40.6517 316.048 40.7392 315.829C40.8267 315.61 41.0455 315.501 41.2643 315.588C41.3737 315.632 43.6929 316.485 45.7714 319.592C45.9027 319.789 45.8371 320.03 45.662 320.161C45.5745 320.183 45.487 320.205 45.4213 320.205Z" fill="#1C1918"/>
<path d="M43.2772 321.168C43.1459 321.168 43.0146 321.102 42.9271 320.993C41.0236 318.148 38.8576 317.317 38.8357 317.317C38.6169 317.229 38.5075 317.011 38.595 316.792C38.6825 316.573 38.9013 316.464 39.1201 316.551C39.2295 316.595 41.5487 317.448 43.6273 320.555C43.7585 320.752 43.6929 320.993 43.5179 321.124C43.4303 321.146 43.3428 321.168 43.2772 321.168Z" fill="#1C1918"/>
<path d="M90.0557 302.702L92.9875 320.314H99.8357L97.5384 301.17L90.0557 302.702Z" fill="#16333C"/>
<path d="M101.892 311.978C101.892 311.978 105.786 317.054 111.715 318.827C117.645 320.599 123.639 322.874 123.202 326.44C123.202 326.44 113.728 330.751 99.4411 325.959V327.469L90.0549 327.053V314.582L97.8439 315.129L97.275 313.904L101.892 311.978Z" fill="#333030"/>
<path d="M107.602 326.769C116.594 328.191 122.371 325.762 123.114 325.5C123.202 325.806 123.224 326.112 123.18 326.419C123.18 326.419 113.706 330.729 99.4192 325.937V327.447L90.033 327.031V323.903C93.4024 324.121 98.9816 325.412 107.602 326.769Z" fill="#1C1918"/>
<path d="M100.601 319.242C100.732 319.242 100.863 319.177 100.951 319.067C102.876 316.201 105.02 315.392 105.042 315.392C105.261 315.304 105.37 315.085 105.283 314.867C105.195 314.648 104.976 314.538 104.758 314.626C104.648 314.67 102.329 315.523 100.251 318.63C100.119 318.827 100.185 319.067 100.36 319.199C100.447 319.22 100.513 319.242 100.601 319.242Z" fill="#1C1918"/>
<path d="M102.745 320.205C102.876 320.205 103.007 320.139 103.095 320.03C105.02 317.164 107.165 316.354 107.186 316.354C107.405 316.267 107.515 316.048 107.427 315.829C107.34 315.61 107.121 315.501 106.902 315.588C106.814 315.632 104.473 316.485 102.395 319.592C102.264 319.789 102.329 320.03 102.504 320.161C102.592 320.183 102.657 320.205 102.745 320.205Z" fill="#1C1918"/>
<path d="M104.889 321.168C105.02 321.168 105.151 321.102 105.239 320.993C107.142 318.148 109.309 317.317 109.33 317.317C109.549 317.229 109.659 317.011 109.571 316.792C109.484 316.573 109.265 316.464 109.046 316.551C108.958 316.595 106.617 317.448 104.539 320.555C104.408 320.752 104.473 320.993 104.648 321.124C104.736 321.146 104.823 321.168 104.889 321.168Z" fill="#1C1918"/>
<path d="M59.7739 161.953L52.6413 247.019L45.5087 309.331C45.5087 309.331 48.9656 314.101 61.94 311.935L71.6762 250.935L79.4652 192.955H83.7973L87.473 311.935C87.473 311.935 93.096 316.267 103.489 312.372L102.198 159.218L59.7739 161.953Z" fill="#6D6D6D"/>
<path d="M83.7973 77.827L83.2284 101.982L68.6569 95.4835L69.1163 70.6068L83.7973 77.827Z" fill="#D69F8A"/>
<path d="M107.252 95.7461C107.252 95.7461 105.852 138.979 103.051 160.924C103.051 160.924 92.3524 165.716 75.2866 165.016C63.2311 164.534 59.7742 161.953 59.7742 161.953L40.1048 88.9417C40.1048 88.9417 51.1976 86.6444 69.5542 86.6662L78.0652 94.5646C78.0652 94.5646 80.3844 88.4384 84.9353 87.2132C91.8491 87.6946 99.4194 88.526 107.471 89.8387L107.252 95.7461Z" fill="#E6F9FF"/>
<path d="M123.989 129.746L107.186 90.0573L92.9646 96.7524L113.925 143.618L123.989 129.746Z" fill="#E6F9FF"/>
<path d="M96.7062 165.081C100.36 164.294 102.154 163.243 102.198 163.243C103.27 162.893 103.139 163.922 103.248 165.038C103.401 166.482 103.161 167.269 102.198 167.576C102.023 167.619 101.17 168.516 97.5376 169.391C97.2532 167.947 96.9687 166.503 96.7062 165.081Z" fill="#1C1918"/>
<path d="M70.4511 166.241C74.5206 166.635 78.984 166.7 83.8193 166.591C87.5388 166.503 90.8863 166.109 93.6868 165.65C93.5993 167.138 93.7962 168.626 94.0369 170.092C91.1707 170.617 87.7576 171.01 83.9068 171.12C82.3315 171.164 80.8 171.164 79.2903 171.142C75.9209 171.076 72.8141 170.901 69.9041 170.551C70.2323 169.129 70.4292 167.707 70.4511 166.241Z" fill="#1C1918"/>
<path d="M58.5051 165.891C58.702 164.797 58.8333 163.834 59.9054 164.184C62.3121 164.994 64.9376 165.563 67.7819 165.956C67.6944 167.379 67.4756 168.779 67.2568 170.201C64.3031 169.742 61.5682 169.063 59.0083 168.123C58.2644 167.838 58.2863 166.985 58.5051 165.891Z" fill="#1C1918"/>
<path d="M77.1461 165.957L77.0367 171.733L86.5104 171.251L86.6198 165.891L77.1461 165.957ZM78.7214 166.919L84.9789 166.875L84.9133 170.42L78.6558 170.726L78.7214 166.919Z" fill="#ADADAD"/>
<path d="M78.0651 94.5427L75.8553 86.8631L70.9543 89.1167L78.0651 94.5427Z" fill="#D8CAC7"/>
<path d="M78.6995 87.5413L78.065 94.5427L82.0689 89.5761L78.6995 87.5413Z" fill="#D8CAC7"/>
<path d="M74.4111 89.5542C74.4111 89.5542 76.9054 90.1449 80.1654 89.773L82.8784 92.9892L80.4936 96.4024L89.7703 150.422L82.6377 157.599L73.9079 151.363L75.9208 96.7962L72.9671 92.5735L74.4111 89.5542Z" fill="#16333C"/>
<path d="M89.7485 87.0818L83.7536 95.1771L78.6995 87.5412L86.6417 82.2465L89.7485 87.0818Z" fill="#D8EAEF"/>
<path d="M64.0187 86.0096L71.6326 94.7176L75.8553 86.8629L67.0818 81.1743L64.0187 86.0096Z" fill="#D8EAEF"/>
<path d="M124.93 127.93L109.44 138.301L112.459 145.784L125.893 129.112L124.93 127.93Z" fill="#D8EAEF"/>
<path d="M44.2398 182.869C44.2398 182.869 45.6401 178.449 38.5074 176.196C31.3748 173.964 27.2834 177.027 25.9269 182.388" stroke="#141212" stroke-miterlimit="10"/>
<path d="M64.675 185.495L9.36431 177.093L0 216.476C0 216.476 19.9101 226.956 59.6428 225.534L64.675 185.495Z" fill="#333030"/>
<path d="M51.9631 205.623C51.9631 205.623 20.8071 202.889 4.46332 197.703L4.96654 195.581C4.96654 195.581 19.3412 201.116 52.3351 203.851L51.9631 205.623Z" fill="#141212"/>
<path d="M44.9617 201.948L44.0428 207.177L36.9977 205.974L37.7853 201.51L44.9617 201.948Z" fill="#ADADAD"/>
<path d="M19.7788 198.36L18.5317 202.407L11.4866 201.226L12.2742 196.762L19.7788 198.36Z" fill="#ADADAD"/>
<path d="M30.4121 177.421C30.3902 177.377 30.3902 177.334 30.3684 177.29C29.1431 171.492 32.4688 170.004 32.4688 170.004L35.7069 130.425L47.456 140.664L46.012 140.139L41.3736 169.392C41.3736 169.392 46.6246 172.345 43.6272 177.793L40.8704 176.043C40.8704 176.043 39.667 177.115 40.5859 178.362C40.5859 178.362 41.5705 178.099 42.0956 179.522C42.0956 179.522 40.761 181.644 38.5512 179.894C38.5512 179.894 36.8008 181.447 35.1818 179.872C35.1818 179.872 32.2937 181.053 30.6528 178.034C30.6528 178.034 30.6528 178.034 30.6528 178.012C30.5653 177.859 30.4996 177.706 30.4559 177.531C30.4121 177.465 30.4121 177.443 30.4121 177.421Z" fill="#FFBFA1"/>
<path d="M56.5358 184.247L64.6748 185.495L59.6426 225.534C55.4199 225.687 51.4598 225.687 47.6747 225.599L56.5358 184.247Z" fill="#141212"/>
<path d="M34.241 131.672L40.0608 88.9852L55.5513 91.7201L47.5873 142.436L34.241 131.672Z" fill="#E6F9FF"/>
<path d="M32.8407 130.162L50.5191 136.135L48.2655 143.749L31.7249 135.216L32.8407 130.162Z" fill="#D8EAEF"/>
<path d="M72.9453 17.6371C59.1177 20.7877 59.4896 30.3052 59.4896 30.3052C59.4896 30.3052 59.9272 37.6347 60.1898 46.3864C58.9208 44.6142 56.7328 43.8921 54.523 44.833C49.819 46.8458 53.2978 61.68 60.4523 60.411C60.7586 64.5461 61.1743 67.7843 61.6994 68.9001C63.7123 73.1228 72.5515 79.5553 80.3843 80.5617C88.217 81.5682 98.0627 76.339 98.0627 67.106C98.0627 57.8511 98.2596 27.7015 98.2596 27.7015C98.2596 27.7015 95.8529 12.4298 72.9453 17.6371Z" fill="#FFBFA1"/>
<path d="M84.4321 44.3735C85.3948 46.9333 86.3356 49.4495 87.3639 51.9437C88.4578 54.3723 89.5299 56.8884 91.3021 58.7919L91.5866 59.0982L91.3021 59.317C90.1863 60.214 89.0486 61.0673 87.8452 61.8769C88.8079 60.8048 89.7925 59.7983 90.8208 58.7919V59.317C89.705 58.4199 88.9173 57.2166 88.2172 56.0351C87.4952 54.8536 86.9263 53.5846 86.4668 52.2938C85.4823 49.7558 84.804 47.0865 84.4321 44.3735Z" fill="#D69F8A"/>
<path d="M76.0522 45.6864C76.0522 47.6993 75.1552 49.3402 74.0393 49.3402C72.9235 49.3402 72.0264 47.6993 72.0264 45.6864C72.0264 43.6735 72.9235 42.0325 74.0393 42.0325C75.1552 42.0325 76.0522 43.6735 76.0522 45.6864Z" fill="#222228"/>
<path d="M92.921 46.496C92.921 48.5089 92.024 50.1498 90.9081 50.1498C89.7923 50.1498 88.8953 48.5089 88.8953 46.496C88.8953 44.4831 89.7923 42.8422 90.9081 42.8422C92.024 42.8422 92.921 44.4831 92.921 46.496Z" fill="#222228"/>
<path d="M79.3124 34.878C77.1463 34.5936 75.2647 34.1998 73.4925 34.2654C72.6173 34.2873 71.7859 34.4842 70.9545 34.7905C70.1012 35.0968 69.3792 35.6876 68.4165 36.3221C68.6134 35.2719 69.1385 34.156 70.1012 33.434C71.0201 32.6682 72.2235 32.2744 73.405 32.2088C74.5864 32.1869 75.7023 32.4276 76.7087 32.9089C77.7152 33.3684 78.6341 33.981 79.3124 34.878Z" fill="#664032"/>
<path d="M87.5605 37.3503C88.0419 36.5407 88.7858 35.9281 89.6172 35.4905C90.4486 35.0529 91.455 34.8123 92.4834 34.8998C93.5117 34.9873 94.5619 35.5343 95.1745 36.3219C95.8528 37.0658 96.1372 38.0285 96.181 38.9474C95.4371 38.3348 94.8682 37.7441 94.2118 37.394C93.5773 37.0221 92.9647 36.7814 92.2865 36.7376C90.9081 36.5845 89.3765 36.9783 87.5605 37.3503Z" fill="#664032"/>
<path d="M54.6979 44.3736C54.6979 44.3736 53.9978 28.2924 53.3852 26.6952C52.7726 25.098 48.7687 25.2949 48.7687 25.2949C48.7687 25.2949 50.1689 8.01033 67.0597 7.2008C67.0597 7.2008 61.021 5.38482 55.3981 10.417C55.3981 10.417 64.0404 -2.84177 81.5219 1.77475C81.5219 1.77475 92.177 4.37838 93.5773 10.417C93.5773 10.417 92.177 4.18146 85.7446 1.38092C85.7446 1.38092 99.8129 5.80053 99.8129 16.6526C99.8129 25.2949 96.7936 26.914 96.7936 26.914C96.7936 26.914 93.7742 28.9269 86.5322 25.0105C79.2902 21.0941 69.4445 21.0941 66.4252 23.3039C63.4059 25.5137 64.106 32.0556 64.106 32.0556C64.106 32.0556 64.3029 34.9655 61.7868 36.2783L61.6774 52.4689L59.1613 52.3595L58.855 47.8305C58.9206 47.7868 58.4174 44.5705 54.6979 44.3736Z" fill="#664032"/>
<path d="M53.8886 47.3929C56.339 46.1458 58.527 50.1059 58.6145 54.3286C56.6016 54.0223 56.2734 56.3634 57.3892 58.0262C53.3853 58.8576 51.2849 48.7057 53.8886 47.3929Z" fill="#D69F8A"/>
<path d="M74.5425 64.3711C74.5425 64.3711 82.5503 71.9632 90.208 65.9026L74.5425 64.3711Z" fill="white"/>
<path d="M155.649 112.987C155.649 112.987 143.572 110.536 156.524 111.083C154.927 110.799 152.433 110.208 152.542 109.224C152.695 107.78 158.843 109.727 158.843 109.727C158.843 109.727 162.913 111.28 159.872 116.553H159.697C159.39 116.969 158.778 117.341 157.749 117.56C157.749 117.56 146.328 120.163 155.758 115.459C155.758 115.459 143.353 115.481 155.649 112.987Z" fill="#FFBFA1"/>
</svg>
