<svg viewBox="0 0 232 65" xmlns="http://www.w3.org/2000/svg">
	<path d="M13.5547 28.0516C13.5547 19.5606 21.1835 13.1336 32.4749 13.1336C41.249 13.1336 47.4266 16.8062 50.9362 20.8599L44.529 28.5094C42.0881 25.9084 38.502 23.4609 33.6966 23.4609C29.2714 23.4609 27.1365 25.5273 27.1365 27.4378C27.1365 33.9391 50.9386 34.9339 50.9386 49.9286C50.9386 58.573 43.0803 64.9975 31.4853 64.9975C21.7191 64.9975 15.3119 61.1715 11.2692 57.6549L17.4493 49.0872C20.1198 51.5347 25.0016 54.6703 30.4955 54.6703C35.3009 54.6703 37.3617 52.2227 37.3617 50.233C37.3568 43.123 13.5547 43.0463 13.5547 28.0516Z" fill="#E63946" />
	<path d="M70.7228 65H58.0591V11.3766H70.7228V30.6526C74.0794 27.5938 77.5125 26.1386 81.8612 26.1386C90.3292 26.1386 94.5249 31.6474 94.5249 40.1384V65H81.8612V43.1997C81.8612 39.7573 80.5655 36.8494 76.7498 36.8494C74.3089 36.8494 72.4776 38.0744 70.7228 40.2151V65Z" fill="#E63946" />
	<path d="M113.978 65C105.51 65 101.695 59.4911 101.695 51.0769V26.1411H114.358V48.0181C114.358 51.4605 115.274 54.2916 119.087 54.2916C121.528 54.2916 123.283 53.0666 125.038 50.9259V26.1411H137.701V64.3887H125.038V60.4885C121.76 63.5473 118.327 65 113.978 65Z" fill="#E63946" />
	<path d="M145.639 11.3766H158.302V65H145.639V11.3766V11.3766Z" fill="#E63946" />
	<path d="M178.136 48.5526C178.136 53.1433 182.408 55.8953 186.604 55.8953C189.427 55.8953 192.401 54.9004 194.539 52.8365L200.033 59.1867C197.515 62.6292 191.335 65 184.928 65C173.943 65 165.016 58.0385 165.016 45.4171C165.016 33.7139 172.644 25.5273 184.089 25.5273C196.143 25.5273 201.711 34.6295 201.711 44.8801V48.5526H178.136V48.5526ZM190.649 40.9798C190.649 36.7727 187.673 34.6295 184.393 34.6295C181.112 34.6295 178.136 36.7702 178.136 40.9798H190.649Z" fill="#E63946" />
	<path d="M220.128 43.3358C226.476 43.3358 231.602 48.2309 231.602 54.106C231.602 60.1024 226.476 65 220.128 65C213.903 65 208.775 60.1049 208.775 54.106C208.775 48.2334 213.903 43.3358 220.128 43.3358Z" fill="#E63946" />
	<path d="M50.951 1.41805L23.116 0L0 15.4624L0.182638 16.1133L2.2805 15.5342L27.6795 16.3286L49.0333 2.64554L51.1312 2.06644L50.951 1.41805Z" fill="#133C6D" />
	<path d="M23.2987 0.650879L0.182678 16.1133L27.8622 16.9795L51.1312 2.06645L23.2987 0.650879Z" fill="#1D3557" />
	<path d="M23.2987 0.650879L27.8622 16.9795L51.1312 2.06645L23.2987 0.650879Z" fill="#1D3557" />
	<path d="M28.109 17.863L28.6692 19.865C28.6692 19.865 22.6693 18.7885 15.2108 21.6246L15.0331 19.479C22.3114 16.8211 28.109 17.863 28.109 17.863Z" fill="#F1B430" />
	<path d="M40.1507 12.5545C32.5342 14.0023 28.1065 17.8629 28.1065 17.8629C28.1065 17.8629 22.309 16.8211 15.0306 19.479L14.5864 14.1013C14.5864 14.1013 16.1511 8.31525 25.4237 8.26328C33.3956 3.55873 37.7394 7.71883 37.7394 7.71883L40.1507 12.5545Z" fill="#1D3557" />
	<path d="M41.1132 14.4824C33.2499 15.8683 28.6667 19.8651 28.6667 19.8651L28.1064 17.863C28.1064 17.863 32.5342 14.0023 40.1507 12.5546L41.1132 14.4824Z" fill="#F1B430" />
	<path d="M40.1507 12.5546C32.5342 14.0023 28.1064 17.863 28.1064 17.863L25.4236 8.26578C33.3955 3.56123 37.7394 7.72133 37.7394 7.72133L40.1507 12.5546Z" fill="#1D3557" />
	<path d="M25.0189 6.80563C18.6266 8.56767 13.683 10.8544 13.9767 11.9111L14.5888 14.1013C14.2926 13.0445 19.2362 10.7578 25.631 8.9958C32.0233 7.23376 37.4457 6.66209 37.7419 7.71882L37.1298 5.52864C36.8336 4.47191 31.4112 5.04359 25.0189 6.80563Z" fill="#133C6D" />
	<path d="M9.06033 26.2722C8.98382 26.2747 8.92212 26.2128 8.92212 26.1386L8.83821 21.5603C8.83574 21.486 8.89744 21.4241 8.97148 21.4217C9.04799 21.4192 9.10969 21.4811 9.10969 21.5553L9.19361 26.1336C9.19608 26.2079 9.13684 26.2698 9.06033 26.2722Z" fill="#E3A015" />
	<path d="M8.61109 26.146C8.53705 26.1485 8.47535 26.0891 8.47288 26.0149C8.43339 24.8195 8.43833 23.6069 8.48275 22.4116C8.48769 22.2582 8.4951 22.0651 8.54692 21.8894C8.60863 21.6741 8.72956 21.5157 8.88011 21.4539C8.94922 21.4242 9.03067 21.4588 9.06028 21.5281C9.0899 21.5974 9.05535 21.6766 8.98624 21.7063C8.91714 21.736 8.84803 21.8374 8.81101 21.9661C8.76905 22.1097 8.76412 22.278 8.75671 22.424C8.71229 23.6119 8.70735 24.8171 8.74684 26.0074C8.74931 26.0792 8.69007 26.1436 8.61109 26.146C8.61356 26.146 8.61356 26.146 8.61109 26.146Z" fill="#F1B430" />
	<path d="M8.06073 26.047C8.05332 26.047 8.04839 26.047 8.04098 26.047C7.96694 26.0371 7.91264 25.9703 7.92005 25.8961C7.97435 25.4531 7.96201 24.9903 7.95213 24.5399L7.9472 24.3246C7.93732 23.8272 7.93732 23.2505 8.06073 22.716C8.19894 22.1196 8.4803 21.6568 8.8357 21.4489C8.89987 21.4118 8.98379 21.4316 9.02328 21.4984C9.06277 21.5627 9.04056 21.6469 8.97392 21.684C8.68762 21.8498 8.44575 22.2582 8.32728 22.7754C8.21128 23.2802 8.21128 23.8371 8.21869 24.3172L8.22362 24.5325C8.23349 24.9903 8.24337 25.463 8.18907 25.9258C8.18413 25.9951 8.12737 26.0446 8.06073 26.047Z" fill="#E3A015" />
	<path d="M7.62879 25.3863C7.55475 25.3887 7.49058 25.3293 7.49058 25.2551C7.47577 24.7453 7.46343 24.2157 7.51279 23.6985C7.56956 23.107 7.7053 22.6096 7.91756 22.2235C8.17918 21.7434 8.55926 21.4464 8.95909 21.4068C9.03313 21.4019 9.10224 21.4538 9.10717 21.5306C9.11458 21.6048 9.05781 21.6716 8.98377 21.679C8.68266 21.7063 8.37168 21.9587 8.15696 22.3522C7.96445 22.7061 7.83858 23.1664 7.78428 23.7232C7.73492 24.2256 7.74973 24.7453 7.76454 25.2477C7.76454 25.3219 7.7053 25.3838 7.62879 25.3863Z" fill="#F1B430" />
	<path d="M9.49719 26.1287C9.42068 26.1287 9.35898 26.0693 9.35651 25.9926C9.35158 24.8022 9.30221 23.597 9.21336 22.4116C9.20349 22.2656 9.18868 22.0973 9.14179 21.9562C9.09983 21.8275 9.02826 21.7285 8.95668 21.7038C8.88511 21.6766 8.85056 21.5998 8.87524 21.5281C8.90238 21.4588 8.98136 21.4217 9.05047 21.4489C9.20349 21.5058 9.32936 21.6592 9.40094 21.8721C9.4577 22.0453 9.47251 22.2284 9.48485 22.3918C9.5737 23.5821 9.62306 24.7948 9.628 25.9901C9.63294 26.0668 9.57123 26.1262 9.49719 26.1287Z" fill="#F1B430" />
	<path d="M10.0451 26.0099C9.97845 26.0099 9.91921 25.9629 9.90687 25.8961C9.8353 25.4382 9.82789 24.9655 9.82049 24.5077L9.81802 24.2924C9.80815 23.8098 9.7884 23.2555 9.65266 22.7556C9.51445 22.2433 9.25777 21.8449 8.96406 21.6889C8.89743 21.6543 8.87275 21.5702 8.9073 21.5058C8.94185 21.439 9.02577 21.4142 9.09241 21.4514C9.45521 21.6444 9.75632 22.0948 9.91427 22.6888C10.0574 23.2184 10.0796 23.795 10.087 24.2924L10.0895 24.5102C10.0969 24.9581 10.1043 25.4209 10.1734 25.8614C10.1858 25.9357 10.1339 26.005 10.0599 26.0173C10.0574 26.0099 10.0525 26.0099 10.0451 26.0099Z" fill="#E3A015" />
	<path d="M10.4523 25.3343C10.3758 25.3343 10.3141 25.2749 10.3141 25.2006C10.3092 24.6983 10.3043 24.1786 10.2376 23.6787C10.1636 23.1243 10.0204 22.669 9.81558 22.3225C9.58604 21.9364 9.26766 21.6964 8.96409 21.679C8.88758 21.6741 8.83081 21.6097 8.83575 21.5355C8.84068 21.4613 8.90485 21.4043 8.98136 21.4068C9.38119 21.4291 9.77115 21.7112 10.0525 22.1839C10.2771 22.5625 10.4326 23.0525 10.5116 23.644C10.5807 24.1612 10.5856 24.6884 10.5906 25.2006C10.5881 25.2724 10.5264 25.3343 10.4523 25.3343Z" fill="#F1B430" />
	<path d="M8.97144 21.4266C8.87025 21.4291 8.78634 21.3499 8.78634 21.2484L8.56915 9.57492C8.56668 9.47593 8.64812 9.39178 8.74932 9.38931C8.85051 9.38683 8.93442 9.46603 8.93442 9.56749L9.15161 21.241C9.15161 21.3425 9.07263 21.4241 8.97144 21.4266Z" fill="#F1B430" />
	<path d="M9.46506 21.2955C9.46753 21.4687 9.25034 21.6122 8.97638 21.6172C8.70243 21.6221 8.47783 21.486 8.47536 21.3128C8.47289 21.1396 8.69009 20.996 8.96404 20.9911C9.23553 20.9861 9.46013 21.1222 9.46506 21.2955Z" fill="#EB1A33" />
</svg>
