<svg width="292" height="332" viewBox="0 0 292 332" fill="none" xmlns="http://www.w3.org/2000/svg">
<path opacity="0.1" d="M292 323.675C292 328.271 226.644 332 146 332C65.3559 332 0 328.271 0 323.675C0 319.079 65.3559 315.35 146 315.35C226.644 315.35 292 319.079 292 323.675Z" fill="#1C1918"/>
<path d="M263.735 301.589H253.307V319.815H263.735V301.589Z" fill="#4C5C5C"/>
<path d="M263.735 301.011H253.307V311.253H263.735V301.011Z" fill="#2D3838"/>
<path d="M214.876 301.589H204.447V319.815H214.876V301.589Z" fill="#4C5C5C"/>
<path d="M214.876 301.011H204.447V311.253H214.876V301.011Z" fill="#2D3838"/>
<path d="M46.8629 301.589H36.4343V319.815H46.8629V301.589Z" fill="#4C5C5C"/>
<path d="M46.8629 301.011H36.4343V311.253H46.8629V301.011Z" fill="#2D3838"/>
<path d="M117.84 301.589H107.412V319.815H117.84V301.589Z" fill="#4C5C5C"/>
<path d="M117.84 301.011H107.412V311.253H117.84V301.011Z" fill="#2D3838"/>
<path d="M113.926 181.783H61.8359V236.486H113.926V181.783Z" fill="#AF5860"/>
<path d="M259.821 122.589H103.524V240.373H259.821V122.589Z" fill="#CC6272"/>
<path d="M259.821 122.589H227.248V240.373H259.821V122.589Z" fill="#AF5860"/>
<path d="M61.8359 181.783V227.216H189.474V185.696H272.85V306.789H26.6625V181.783H61.8359Z" fill="#EF757C"/>
<path d="M189.474 226.244H61.8359V258.809H189.474V226.244Z" fill="#DD6672"/>
<path d="M272.85 185.696H222.047V306.789H272.85V185.696Z" fill="#AF5860"/>
<path d="M120.073 281.998L120.651 311.568L110.984 312.225L112.376 284.913L120.073 281.998Z" fill="#16333C"/>
<path d="M107.254 300.617C107.254 300.617 102.237 308.154 94.041 311.253C85.8453 314.352 77.5707 318.108 78.5426 323.124C78.5426 323.124 92.3336 328.297 112.087 320.156L112.245 322.283L125.484 320.813L124.276 303.191L113.296 304.714L114.005 302.928L107.254 300.617Z" fill="#333030"/>
<path d="M100.582 322.073C87.9993 324.936 79.5934 322.073 78.5164 321.784C78.4376 322.231 78.4113 322.677 78.4901 323.097C78.4901 323.097 92.281 328.271 112.035 320.13L112.193 322.257L125.432 320.786L125.143 316.348C120.415 316.952 112.665 319.342 100.582 322.073Z" fill="#1C1918"/>
<path d="M109.776 310.754C109.592 310.754 109.408 310.702 109.277 310.518C106.282 306.657 103.156 305.712 103.13 305.712C102.815 305.633 102.631 305.292 102.736 304.977C102.815 304.662 103.156 304.478 103.445 304.583C103.576 304.635 106.965 305.633 110.196 309.783C110.406 310.045 110.354 310.413 110.091 310.597C110.012 310.702 109.907 310.754 109.776 310.754Z" fill="#1C1918"/>
<path d="M106.834 312.33C106.65 312.33 106.466 312.277 106.335 312.094C103.34 308.233 100.214 307.288 100.188 307.288C99.8726 307.209 99.6887 306.868 99.7938 306.552C99.8726 306.237 100.214 306.053 100.503 306.159C100.634 306.211 104.023 307.209 107.254 311.358C107.464 311.621 107.412 311.989 107.149 312.172C107.07 312.277 106.965 312.33 106.834 312.33Z" fill="#1C1918"/>
<path d="M103.892 313.879C103.708 313.879 103.524 313.827 103.393 313.643C100.424 309.809 97.272 308.837 97.2458 308.837C96.9306 308.758 96.7467 308.417 96.8517 308.102C96.9305 307.787 97.272 307.603 97.561 307.708C97.6923 307.76 101.081 308.758 104.312 312.908C104.522 313.17 104.47 313.538 104.207 313.722C104.128 313.827 103.997 313.879 103.892 313.879Z" fill="#1C1918"/>
<path d="M63.018 246.623L45.3393 264.718L37.38 259.176L55.5578 238.771L63.018 246.623Z" fill="#16333C"/>
<path d="M41.7406 247.805C41.7406 247.805 33.0982 250.536 24.7711 247.831C16.444 245.1 7.64412 242.894 5.25369 247.385C5.25369 247.385 12.7665 260.069 33.2821 266.057L32.0738 267.816L43.3167 274.933L53.4037 260.437L43.8946 254.738L45.5757 253.766L41.7406 247.805Z" fill="#333030"/>
<path d="M23.1162 260.384C11.5056 254.738 6.75099 247.254 6.09428 246.361C5.75279 246.65 5.46384 246.991 5.25369 247.385C5.25369 247.385 12.7665 260.069 33.2821 266.057L32.0738 267.816L43.3167 274.933L45.8647 271.283C41.7931 268.788 34.2541 265.794 23.1162 260.384Z" fill="#1C1918"/>
<path d="M37.38 257.312C37.2224 257.207 37.1173 257.023 37.1173 256.813C37.1961 251.928 35.3573 249.249 35.3311 249.223C35.1472 248.961 35.1997 248.593 35.4624 248.409C35.7251 248.225 36.0928 248.278 36.2767 248.54C36.3555 248.672 38.3782 251.56 38.2731 256.813C38.2731 257.128 38.0104 257.391 37.669 257.391C37.5639 257.417 37.4588 257.364 37.38 257.312Z" fill="#1C1918"/>
<path d="M34.0964 256.682C33.9388 256.576 33.8338 256.393 33.8338 256.183C33.9126 251.298 32.0738 248.619 32.0475 248.593C31.8636 248.33 31.9162 247.963 32.1788 247.779C32.4415 247.595 32.8093 247.648 32.9932 247.91C33.072 248.041 35.0946 250.93 34.9896 256.183C34.9896 256.498 34.7269 256.76 34.3854 256.76C34.2803 256.787 34.1752 256.76 34.0964 256.682Z" fill="#1C1918"/>
<path d="M30.8129 256.051C30.6553 255.946 30.5502 255.762 30.5502 255.552C30.629 250.694 28.7902 247.989 28.764 247.963C28.5801 247.7 28.6326 247.332 28.8953 247.149C29.158 246.965 29.5257 247.017 29.7096 247.28C29.7884 247.411 31.8111 250.3 31.706 255.552C31.706 255.867 31.4433 256.13 31.1018 256.13C31.023 256.156 30.918 256.13 30.8129 256.051Z" fill="#1C1918"/>
<path d="M126.272 205.13C126.272 205.13 109.933 198.486 105.862 210.225C101.79 221.964 103.314 296.993 103.314 296.993C103.314 296.993 120.677 300.066 130.37 294.446L128.847 222.489C128.847 222.489 167.645 237.799 185.508 226.06C203.37 214.321 126.272 205.13 126.272 205.13Z" fill="#5A5E5E"/>
<path d="M199.798 181.127C199.798 181.127 202.346 217.867 190.105 226.034C166.489 241.765 113.138 204.106 113.138 204.106L59.892 257.18C59.892 257.18 47.1256 255.657 43.5531 241.87C43.5531 241.87 100.739 182.151 108.909 181.127C117.078 180.103 175.788 191.342 175.788 191.342L199.798 181.127Z" fill="#6D6D6D"/>
<path d="M171.297 89.9725L170.85 118.335L188.266 111.376L188.87 82.1727L171.297 89.9725Z" fill="#D69F8A"/>
<path d="M142.953 109.905C142.953 109.905 142.611 160.695 144.897 186.563C144.897 186.563 157.243 192.682 177.286 192.656C191.444 192.629 195.647 189.767 195.647 189.767L222.073 105.02C222.073 105.02 209.176 101.816 187.609 101.002L177.259 109.879C177.259 109.879 174.816 102.578 169.537 100.95C161.393 101.186 152.488 101.816 142.953 102.998V109.905Z" fill="#E6F9FF"/>
<path d="M177.259 109.853L180.202 100.95L185.849 103.812L177.259 109.853Z" fill="#D8CAC7"/>
<path d="M176.839 101.606L177.259 109.853L172.768 103.839L176.839 101.606Z" fill="#D8CAC7"/>
<path d="M181.778 104.154C181.778 104.154 178.809 104.732 175 104.128L171.664 107.778L174.317 111.901L160.947 174.85L168.985 183.595L179.519 176.688L179.676 112.557L183.354 107.725L181.778 104.154Z" fill="#16333C"/>
<path d="M163.889 100.556L170.561 110.325L176.839 101.606L167.75 95.0147L163.889 100.556Z" fill="#D8EAEF"/>
<path d="M194.15 100.477L184.798 110.352L180.202 100.95L190.761 94.6733L194.15 100.477Z" fill="#D8EAEF"/>
<path d="M188.292 19.9326C204.395 24.2658 203.502 35.4007 203.502 35.4007C203.502 35.4007 202.661 43.9883 201.926 54.2303C203.502 52.2344 206.076 51.4466 208.65 52.6809C214.088 55.2545 209.333 72.5084 200.98 70.6701C200.428 75.5285 199.798 79.284 199.141 80.5708C196.593 85.4292 185.928 92.5724 176.682 93.3865C167.435 94.2006 156.113 87.6352 156.534 76.7891C156.954 65.943 158.11 30.5686 158.11 30.5686C158.11 30.5686 161.63 12.7369 188.292 19.9326Z" fill="#FFBFA1"/>
<path d="M172.085 50.685C171.533 53.8364 170.614 56.9353 169.326 59.8766C168.722 61.3735 167.987 62.8179 167.094 64.1835C166.227 65.5491 165.255 66.9147 163.889 67.9127L163.915 67.3086C165.071 68.5167 166.2 69.751 167.277 71.0641C165.911 70.0661 164.624 69.0157 163.363 67.9127L163.048 67.65L163.39 67.3086C165.544 65.1552 166.936 62.2664 168.328 59.4564C169.615 56.5676 170.85 53.6526 172.085 50.685Z" fill="#D69F8A"/>
<path d="M178.415 42.6752C179.256 41.6773 180.385 40.9944 181.594 40.5217C182.802 40.049 184.142 39.8127 185.508 39.9177C186.874 40.0753 188.266 40.6005 189.29 41.5459C190.367 42.4388 190.893 43.8044 191.077 45.0387C190 44.2509 189.185 43.4893 188.213 43.0954C187.268 42.6752 186.322 42.4126 185.271 42.3075C183.196 42.15 180.99 42.4914 178.415 42.6752Z" fill="#664032"/>
<path d="M168.748 42.3075C166.647 41.8086 164.834 41.2571 163.206 41.3621C161.603 41.3884 160.237 42.3601 158.53 43.7782C158.661 42.7015 158.977 41.5722 159.843 40.7318C160.605 39.8389 161.866 39.2612 163.074 39.1824C165.544 39.1299 167.645 40.4167 168.748 42.3075Z" fill="#664032"/>
<path d="M186.532 74.0579L164.073 74.373C164.073 74.3468 169.09 84.9565 186.532 74.0579Z" fill="white"/>
<path d="M206.995 52.0506C206.995 52.0506 208.571 33.221 209.333 31.3564C210.121 29.4918 214.823 29.912 214.823 29.912C214.823 29.912 213.956 9.5855 194.176 7.87849C194.176 7.87849 201.348 6.04017 207.705 12.1854C207.705 12.1854 198.169 -3.78169 177.443 0.840361C177.443 0.840361 164.834 3.414 162.891 10.4259C162.891 10.4259 164.834 3.17765 172.505 0.18382C172.505 0.18382 155.798 4.72709 155.299 17.464C154.905 27.601 158.372 29.6231 158.372 29.6231C158.372 29.6231 161.814 32.118 170.482 27.8636C179.151 23.6092 190.709 24.0557 194.15 26.7869C197.591 29.5181 196.462 37.1602 196.462 37.1602C196.462 37.1602 196.094 40.5743 198.983 42.2288L198.353 61.2159H201.295L201.847 55.9111C201.873 55.8848 202.609 52.1294 206.995 52.0506Z" fill="#664032"/>
<path d="M207.81 55.6485C204.973 54.0728 202.267 58.616 201.952 63.5532C204.316 63.2906 204.605 66.0481 203.213 67.9389C207.862 69.1207 210.804 57.3029 207.81 55.6485Z" fill="#D69F8A"/>
<path d="M229.14 190.056C229.14 190.056 192.364 195.912 170.692 195.15L166.095 184.935C166.095 184.935 187.793 182.886 205.918 175.48C209.491 174.01 212.59 172.565 214.85 169.598C232.712 146.172 229.14 190.056 229.14 190.056Z" fill="#FFBFA1"/>
<path d="M209.202 175.664L201.059 118.598L222.073 105.02L229.402 176.531L209.202 175.664Z" fill="#E6F9FF"/>
<path d="M207.626 168.311L231.005 171.436L230.427 178.054L205.918 175.507L207.626 168.311Z" fill="#D8EAEF"/>
<path d="M93.7521 147.118C93.7521 147.118 76.8352 113.949 70.8723 93.0976L79.1731 85.5868C79.1731 85.5868 87.7891 105.598 100.424 120.541C102.92 123.509 105.258 126.003 108.751 127.238C136.648 137.007 93.7521 147.118 93.7521 147.118Z" fill="#FFBFA1"/>
<path d="M101.317 123.719L142.953 102.972L161.104 120.909L106.702 143.205L101.317 123.719Z" fill="#E6F9FF"/>
<path d="M107.858 119.963L112.061 143.152L105.573 144.649L100.451 120.541L107.858 119.963Z" fill="#D8EAEF"/>
<path d="M153.592 189.031C154.091 180.864 178.363 186.747 178.363 186.747C178.363 186.747 184.641 191.08 174.186 194.389C173.083 194.73 172.216 194.993 171.48 195.177C171.901 210.802 165.859 193.391 165.859 193.391C163.81 219.154 161.525 194.153 161.525 194.153C156.665 222.489 157.453 192.629 157.453 192.629C152.567 215.083 153.066 197.199 153.592 189.031Z" fill="#FFBFA1"/>
<path d="M74.471 103.523C74.471 103.523 70.1105 92.8875 66.9057 86.8211C63.701 80.7809 60.9428 65.9956 62.5189 66.6784C64.1213 67.3874 66.538 76.9729 66.538 76.9729C66.538 76.9729 64.489 62.8704 66.4592 62.0563C68.4293 61.2422 70.1105 75.4498 70.1105 75.4498C70.1105 75.4498 68.9547 61.6361 70.7146 61.5836C72.5009 61.5311 73.8669 73.165 73.8669 73.165C73.8669 73.165 75.9158 65.4441 81.0907 70.4075C85.0047 74.1367 82.5617 77.8658 81.905 76.579C81.2483 75.2922 77.8859 70.4338 76.3361 76.1326C74.8125 81.8576 79.1205 82.2253 80.6967 77.9709C81.5635 75.6073 83.5336 74.8195 84.0853 77.183C84.6369 79.5466 85.136 84.7989 81.1169 87.5301L82.2728 94.043L74.471 103.523Z" fill="#FFBFA1"/>
<path d="M168.092 56.9615C167.724 55.5959 167.277 54.2566 166.778 53.0748C166.2 51.9193 165.465 50.9739 164.546 51.1315C163.521 51.1052 162.654 51.8405 162.076 52.9698C161.498 54.099 161.131 55.4384 160.842 56.8302C160.474 55.4384 160.369 53.9415 160.815 52.4708C161.026 51.7355 161.446 51.0001 162.076 50.3699C162.733 49.7396 163.6 49.4507 164.493 49.3982C165.412 49.3457 166.437 49.7921 166.962 50.4749C167.514 51.1577 167.829 51.893 168.039 52.6284C168.407 54.099 168.381 55.5697 168.092 56.9615Z" fill="#222228"/>
<path d="M187.215 56.9615C186.952 55.5434 186.664 54.2041 186.243 52.9698C185.77 51.7617 185.14 50.7638 184.194 50.8163C183.17 50.7113 182.25 51.3415 181.567 52.4183C180.911 53.495 180.412 54.8081 179.991 56.1474C179.755 54.7293 179.781 53.2324 180.359 51.788C180.648 51.0527 181.121 50.3699 181.778 49.8184C182.487 49.2669 183.38 49.0305 184.273 49.0568C185.193 49.083 186.164 49.6345 186.637 50.3699C187.136 51.1052 187.399 51.8405 187.504 52.6021C187.793 54.1253 187.635 55.5697 187.215 56.9615Z" fill="#222228"/>
<path d="M103.288 296.993C103.288 296.993 97.6398 194.809 112.429 203.213C112.429 203.213 125.694 212.903 130.528 215.188L103.288 296.993Z" fill="#5A5E5E"/>
<path d="M170.272 227.216H189.501V185.696H272.85V306.789H170.85C169.51 280.265 168.46 253.714 170.272 227.216Z" fill="#EF757C"/>
<path d="M139.039 226.244H189.501V258.809H136.333C136.254 247.936 136.99 237.09 139.039 226.244Z" fill="#DD6672"/>
<path d="M272.85 185.696H222.047V306.789H272.85V185.696Z" fill="#AF5860"/>
</svg>
