<svg width="225" height="106" viewBox="0 0 225 106" fill="none" xmlns="http://www.w3.org/2000/svg">
<path d="M18.675 42H3.87C3.24 42 2.925 41.685 2.925 41.055V14.01C2.925 13.38 3.24 13.065 3.87 13.065H7.695C8.325 13.065 8.64 13.38 8.64 14.01V36.51C8.64 36.84 8.82 37.005 9.18 37.005H18.675C19.275 37.005 19.575 37.335 19.575 37.995V41.055C19.575 41.685 19.275 42 18.675 42ZM39.6098 42H29.6648C27.2948 42 25.4648 41.37 24.1748 40.11C22.8848 38.85 22.2398 37.035 22.2398 34.665V26.385C22.2398 24.015 22.8848 22.2 24.1748 20.94C25.4648 19.68 27.2948 19.05 29.6648 19.05H33.2198C35.5898 19.05 37.4198 19.68 38.7098 20.94C39.9998 22.2 40.6448 24.015 40.6448 26.385V32.1C40.6448 32.73 40.3298 33.045 39.6998 33.045H28.4048C28.0448 33.045 27.8648 33.21 27.8648 33.54V34.53C27.8648 35.46 28.0598 36.135 28.4498 36.555C28.8698 36.945 29.5598 37.14 30.5198 37.14H39.6098C40.2398 37.14 40.5548 37.47 40.5548 38.13V41.1C40.5548 41.43 40.4798 41.67 40.3298 41.82C40.2098 41.94 39.9698 42 39.6098 42ZM28.4048 29.22H34.5248C34.8548 29.22 35.0198 29.055 35.0198 28.725V26.565C35.0198 25.605 34.8248 24.93 34.4348 24.54C34.0448 24.15 33.3698 23.955 32.4098 23.955H30.5198C29.5598 23.955 28.8848 24.15 28.4948 24.54C28.1048 24.93 27.9098 25.605 27.9098 26.565V28.725C27.9098 29.055 28.0748 29.22 28.4048 29.22ZM45.4212 24H43.6212C43.2612 24 43.0062 23.94 42.8562 23.82C42.7362 23.7 42.6762 23.46 42.6762 23.1V19.995C42.6762 19.365 42.9912 19.05 43.6212 19.05H45.4212C45.7512 19.05 45.9162 18.885 45.9162 18.555V14.28C45.9162 13.65 46.2462 13.335 46.9062 13.335H50.6862C51.3162 13.335 51.6312 13.65 51.6312 14.28V18.555C51.6312 18.885 51.8112 19.05 52.1712 19.05H55.6812C56.3112 19.05 56.6262 19.365 56.6262 19.995V23.1C56.6262 23.43 56.5512 23.67 56.4012 23.82C56.2812 23.94 56.0412 24 55.6812 24H52.1712C51.8112 24 51.6312 24.165 51.6312 24.495V34.44C51.6312 35.37 51.8412 36.045 52.2612 36.465C52.6812 36.855 53.3712 37.05 54.3312 37.05H56.1312C56.7612 37.05 57.0762 37.365 57.0762 37.995V41.1C57.0762 41.43 57.0012 41.67 56.8512 41.82C56.7312 41.94 56.4912 42 56.1312 42H53.3862C51.0162 42 49.1712 41.37 47.8512 40.11C46.5612 38.85 45.9162 37.05 45.9162 34.71V24.495C45.9162 24.165 45.7512 24 45.4212 24ZM65.0204 13.92V15.27C65.0204 16.2 64.6754 17.385 63.9854 18.825L61.6004 23.37C61.3904 23.67 61.1054 23.82 60.7454 23.82C60.2354 23.82 59.9804 23.52 59.9804 22.92V13.965C59.9804 13.365 60.2804 13.065 60.8804 13.065H64.1204C64.7204 13.065 65.0204 13.35 65.0204 13.92ZM77.7811 42H69.2311C68.6311 42 68.3311 41.685 68.3311 41.055V38.175C68.3311 37.845 68.3911 37.62 68.5111 37.5C68.6311 37.35 68.8711 37.275 69.2311 37.275H76.7461C78.2161 37.275 78.9511 36.825 78.9511 35.925V35.7C78.9511 34.98 78.3361 34.29 77.1061 33.63L72.6511 31.155C71.1211 30.375 69.9961 29.535 69.2761 28.635C68.5561 27.735 68.1961 26.58 68.1961 25.17C68.1961 23.07 68.7511 21.525 69.8611 20.535C70.9711 19.545 72.7111 19.05 75.0811 19.05H82.5961C83.1961 19.05 83.4961 19.365 83.4961 19.995V22.92C83.4961 23.25 83.4361 23.49 83.3161 23.64C83.1961 23.76 82.9561 23.82 82.5961 23.82H76.3411C74.8711 23.82 74.1361 24.195 74.1361 24.945V25.17C74.1361 25.83 74.7811 26.505 76.0711 27.195L80.6161 29.895C82.1761 30.735 83.2711 31.605 83.9011 32.505C84.5311 33.375 84.8461 34.53 84.8461 35.97C84.8461 39.99 82.4911 42 77.7811 42Z" fill="#1D3557"/>
<path d="M14.9 89C13.4667 89 12.05 88.8667 10.65 88.6C9.28333 88.3667 7.95 88.0167 6.65 87.55C5.38333 87.05 4.18333 86.4833 3.05 85.85C1.91667 85.1833 0.9 84.45 0 83.65L7.25 75.75C8.08333 76.65 9.18333 77.45 10.55 78.15C11.95 78.85 13.3833 79.2 14.85 79.2C15.5167 79.2 16.1167 79.0833 16.65 78.85C17.2167 78.6167 17.5 78.1833 17.5 77.55C17.5 77.2167 17.4 76.9333 17.2 76.7C17.0333 76.4667 16.7167 76.2333 16.25 76C15.7833 75.7333 15.1333 75.45 14.3 75.15C13.5 74.85 12.4833 74.5 11.25 74.1C10.05 73.7 8.9 73.2333 7.8 72.7C6.7 72.1333 5.71667 71.45 4.85 70.65C4.01667 69.85 3.35 68.9 2.85 67.8C2.35 66.6667 2.1 65.3167 2.1 63.75C2.1 61.55 2.55 59.6833 3.45 58.15C4.35 56.6167 5.5 55.3667 6.9 54.4C8.33333 53.4 9.93333 52.6833 11.7 52.25C13.4667 51.8167 15.2167 51.6 16.95 51.6C19.2833 51.6 21.65 52.05 24.05 52.95C26.4833 53.85 28.6167 55.15 30.45 56.85L23.05 64.4C22.25 63.4 21.2667 62.65 20.1 62.15C18.9333 61.6167 17.8833 61.35 16.95 61.35C16.0833 61.35 15.3833 61.4833 14.85 61.75C14.3167 61.9833 14.05 62.3833 14.05 62.95C14.05 63.4833 14.3167 63.8833 14.85 64.15C15.4167 64.4167 16.3167 64.75 17.55 65.15C18.8167 65.55 20.15 66.0167 21.55 66.55C22.95 67.0833 24.2333 67.7833 25.4 68.65C26.6 69.4833 27.5833 70.5167 28.35 71.75C29.1167 72.9833 29.5 74.5167 29.5 76.35C29.5 78.4833 29.0667 80.35 28.2 81.95C27.3667 83.5167 26.25 84.8333 24.85 85.9C23.4833 86.9333 21.9333 87.7 20.2 88.2C18.4667 88.7333 16.7 89 14.9 89ZM33.5594 61.7H45.1094V88H33.5594V61.7ZM33.3594 54.1C33.3594 53.3 33.5094 52.55 33.8094 51.85C34.1427 51.1167 34.576 50.4833 35.1094 49.95C35.676 49.4167 36.326 49 37.0594 48.7C37.7927 48.3667 38.576 48.2 39.4094 48.2C40.2094 48.2 40.9594 48.3667 41.6594 48.7C42.3594 49 42.976 49.4167 43.5094 49.95C44.076 50.4833 44.5094 51.1167 44.8094 51.85C45.1427 52.55 45.3094 53.3 45.3094 54.1C45.3094 54.9333 45.1427 55.7167 44.8094 56.45C44.5094 57.15 44.076 57.7667 43.5094 58.3C42.976 58.8 42.3594 59.2 41.6594 59.5C40.9594 59.8 40.2094 59.95 39.4094 59.95C38.576 59.95 37.7927 59.8 37.0594 59.5C36.326 59.2 35.676 58.8 35.1094 58.3C34.576 57.7667 34.1427 57.15 33.8094 56.45C33.5094 55.7167 33.3594 54.9333 33.3594 54.1ZM49.4027 74.75C49.4027 73.05 49.6527 71.3833 50.1527 69.75C50.6861 68.1167 51.4527 66.65 52.4527 65.35C53.4527 64.05 54.7027 63 56.2027 62.2C57.7027 61.4 59.4361 61 61.4027 61C62.8027 61 64.1694 61.2667 65.5027 61.8C66.8694 62.3333 67.9861 63.1833 68.8527 64.35H69.0027V61.7H79.8527V85.3C79.8527 88.1667 79.3861 90.55 78.4527 92.45C77.5194 94.35 76.2694 95.85 74.7027 96.95C73.1694 98.0833 71.4194 98.8667 69.4527 99.3C67.4861 99.7667 65.4861 100 63.4527 100C60.9527 100 58.4527 99.6667 55.9527 99C53.4527 98.3667 51.2694 97.4167 49.4027 96.15L54.4527 88.5C55.7194 89.4667 57.0527 90.1667 58.4527 90.6C59.8527 91.0667 61.1861 91.3 62.4527 91.3C63.2861 91.3 64.0694 91.1833 64.8027 90.95C65.5694 90.75 66.2361 90.4333 66.8027 90C67.3694 89.6 67.8194 89.0833 68.1527 88.45C68.4861 87.85 68.6527 87.15 68.6527 86.35V85.2H68.5027C67.8694 85.9333 66.9194 86.5833 65.6527 87.15C64.4194 87.7167 63.0027 88 61.4027 88C59.3694 88 57.6027 87.65 56.1027 86.95C54.6027 86.2167 53.3527 85.25 52.3527 84.05C51.3527 82.8167 50.6027 81.4 50.1027 79.8C49.6361 78.2 49.4027 76.5167 49.4027 74.75ZM60.1027 74.75C60.1027 76.0167 60.4694 77.0833 61.2027 77.95C61.9361 78.7833 63.0027 79.2 64.4027 79.2C65.7694 79.2 66.8527 78.7667 67.6527 77.9C68.4861 77.0333 68.9027 75.9833 68.9027 74.75C68.9027 73.5833 68.4861 72.5667 67.6527 71.7C66.8527 70.8333 65.7694 70.4 64.4027 70.4C63.0027 70.4 61.9361 70.8333 61.2027 71.7C60.4694 72.5667 60.1027 73.5833 60.1027 74.75ZM85.316 61.7H96.566V64.6H96.666C97.3327 63.6333 98.316 62.8 99.616 62.1C100.949 61.3667 102.466 61 104.166 61C105.999 61 107.516 61.3333 108.716 62C109.949 62.6667 110.916 63.5333 111.616 64.6C112.349 65.6333 112.849 66.8 113.116 68.1C113.416 69.4 113.566 70.7 113.566 72V88H101.966V74C101.966 72.6667 101.749 71.7333 101.316 71.2C100.916 70.6667 100.299 70.4 99.466 70.4C98.6994 70.4 98.066 70.7167 97.566 71.35C97.0993 71.95 96.866 72.8333 96.866 74V88H85.316V61.7ZM147.667 89C144.9 89 142.483 88.6167 140.417 87.85C138.383 87.0833 136.683 86.0333 135.317 84.7C133.95 83.3667 132.933 81.8 132.267 80C131.6 78.1667 131.267 76.2 131.267 74.1V52.6H143.167V72.8C143.167 74.5 143.567 75.8333 144.367 76.8C145.2 77.7333 146.367 78.2 147.867 78.2C149.367 78.2 150.517 77.7333 151.317 76.8C152.15 75.8333 152.567 74.5 152.567 72.8V52.6H164.417V74.1C164.417 76.2 164.05 78.1667 163.317 80C162.617 81.8 161.567 83.3667 160.167 84.7C158.767 86.0333 157.017 87.0833 154.917 87.85C152.85 88.6167 150.433 89 147.667 89ZM188.386 88.7C187.086 88.7 185.803 88.4667 184.536 88C183.27 87.5 182.236 86.8167 181.436 85.95H181.336V100H169.886V61.7H180.736V64.35H180.836C181.803 63.25 182.97 62.4167 184.336 61.85C185.703 61.2833 187.036 61 188.336 61C190.303 61 192.036 61.4 193.536 62.2C195.036 63 196.286 64.05 197.286 65.35C198.286 66.65 199.036 68.1167 199.536 69.75C200.07 71.3833 200.336 73.05 200.336 74.75C200.336 76.4833 200.07 78.1833 199.536 79.85C199.036 81.5167 198.286 83.0167 197.286 84.35C196.286 85.65 195.036 86.7 193.536 87.5C192.07 88.3 190.353 88.7 188.386 88.7ZM189.636 74.75C189.636 73.5833 189.27 72.5667 188.536 71.7C187.803 70.8333 186.736 70.4 185.336 70.4C183.97 70.4 182.87 70.8333 182.036 71.7C181.236 72.5667 180.836 73.5833 180.836 74.75C180.836 75.9833 181.236 77.0333 182.036 77.9C182.87 78.7667 183.97 79.2 185.336 79.2C186.736 79.2 187.803 78.7833 188.536 77.95C189.27 77.0833 189.636 76.0167 189.636 74.75ZM213.153 88.8C212.286 88.8 211.47 88.6333 210.703 88.3C209.97 88 209.32 87.5833 208.753 87.05C208.186 86.5167 207.736 85.8833 207.403 85.15C207.103 84.4167 206.953 83.6167 206.953 82.75C206.953 81.9167 207.103 81.1333 207.403 80.4C207.736 79.6667 208.186 79.0333 208.753 78.5C209.32 77.9333 209.97 77.5 210.703 77.2C211.47 76.8667 212.286 76.7 213.153 76.7C214.02 76.7 214.82 76.8667 215.553 77.2C216.32 77.5 216.986 77.9333 217.553 78.5C218.12 79.0333 218.553 79.6667 218.853 80.4C219.186 81.1333 219.353 81.9167 219.353 82.75C219.353 83.6167 219.186 84.4167 218.853 85.15C218.553 85.8833 218.12 86.5167 217.553 87.05C216.986 87.5833 216.32 88 215.553 88.3C214.82 88.6333 214.02 88.8 213.153 88.8ZM207.153 52.6H219.153V75H207.153V52.6Z" fill="#E63946"/>
</svg>
