<svg viewBox="0 0 48 60" xmlns="http://www.w3.org/2000/svg">
	<path d="M11.611 60C11.1879 59.6672 11.099 59.2219 11.1005 58.7016C11.113 53.0392 11.099 47.3769 11.1208 41.713C11.1239 41.0958 10.9413 40.863 10.3262 40.7911C8.2545 40.5474 6.45291 39.774 5.25549 37.9459C4.57638 36.91 4.20326 35.785 4.20639 34.5304C4.21731 30.1961 4.19858 25.8603 4.222 21.526C4.22512 20.9323 4.06432 20.7182 3.46795 20.7729C2.92779 20.8213 2.37826 20.7916 1.83341 20.7791C0.773373 20.7557 0.0458679 20.0354 0.0115222 18.9683C-0.00565069 18.4214 -0.000967176 17.8745 0.00839985 17.3277C0.0286951 16.1496 0.739027 15.4293 1.91147 15.4246C4.69659 15.4168 7.48016 15.4215 10.2653 15.4215C11.1068 15.4215 11.1068 15.4199 11.1083 14.6027C11.1083 12.1028 11.1068 9.60444 11.1083 7.1045C11.1114 3.54209 13.041 1.02497 16.4787 0.0937476C16.5724 0.0687482 16.6614 0.0312492 16.7535 0C21.117 0 25.4789 0 29.8424 0C30.164 0.356241 30.4668 0.717169 30.2217 1.24841C29.9954 1.73745 29.5785 1.80464 29.1008 1.80308C25.4976 1.79683 21.8944 1.81558 18.2913 1.79527C14.9644 1.77652 12.8818 4.3077 12.9927 7.07638C13.0926 9.59194 13.0129 12.1137 13.0145 14.634C13.0145 15.4199 13.0176 15.4215 13.7873 15.4215C17.5263 15.423 21.2669 15.4183 25.0059 15.4246C26.208 15.4262 26.923 16.1496 26.948 17.3589C26.9558 17.7683 26.9511 18.1792 26.9495 18.5886C26.9448 20.087 26.2626 20.7791 24.781 20.7807C21.1201 20.7823 17.4576 20.7807 13.7967 20.7854C13.6296 20.7854 13.4017 20.6963 13.308 20.8651C13.1987 21.062 13.3954 21.2244 13.5078 21.3744C14.1542 22.2463 15.0784 22.4541 16.0931 22.4541C23.6695 22.451 31.2459 22.4541 38.8222 22.4494C39.1329 22.4494 39.4451 22.4197 39.7527 22.376C41.0922 22.19 41.9711 21.2244 41.9742 19.8698C41.9851 15.4371 41.9961 11.0028 41.968 6.57014C41.9539 4.22177 40.0852 2.18901 37.7653 1.89526C36.1932 1.69527 34.6149 1.83901 33.0381 1.80308C32.5916 1.7937 32.2341 1.67652 32.0342 1.24684C31.7876 0.717169 32.092 0.354678 32.4152 0C34.3635 0 36.3103 0 38.2586 0C38.3492 0.0328116 38.4397 0.0703107 38.5318 0.0968725C41.9961 1.06716 43.8945 3.57334 43.8945 7.18263C43.896 11.2825 43.896 15.3808 43.8945 19.4807C43.8929 21.776 42.9172 23.24 40.8065 24.0837C40.5083 24.2025 40.3834 24.3556 40.3849 24.6806C40.3943 27.1212 40.3959 29.5602 40.3849 32.0007C40.3834 32.4507 40.5317 32.582 40.9798 32.5007C41.9945 32.3163 43.0062 32.1288 44.01 31.8945C45.145 31.6289 46.3018 32.1382 46.8872 33.1007C47.5039 34.1147 47.4102 35.3319 46.6546 36.2694C46.1425 36.9053 45.4275 37.1647 44.6735 37.2912C44.049 37.3959 43.8788 37.6771 43.8804 38.3053C43.9038 45.0785 43.8913 51.8533 43.9023 58.6266C43.9038 59.1625 43.818 59.6328 43.4011 59.9984C41.9602 59.9984 40.5192 59.9984 39.0767 59.9984C38.5865 59.7266 38.471 59.2828 38.4725 58.7594C38.4803 56.6907 38.4585 54.622 38.4866 52.5549C38.4944 51.994 38.3258 51.8237 37.7606 51.8252C30.9305 51.8424 24.1004 51.844 17.2718 51.8237C16.6801 51.8221 16.5006 51.994 16.51 52.5861C16.5412 54.5955 16.5225 56.6048 16.5209 58.6157C16.5209 59.1578 16.4585 59.675 15.9386 59.9984C14.4929 60 13.052 60 11.611 60ZM28.1985 49.9987C31.7813 49.9987 35.3658 49.9987 38.9487 49.9987C40.1367 49.9987 40.3849 50.2471 40.3865 51.4377C40.3881 53.4877 40.3849 55.5392 40.3912 57.5891C40.3912 57.7907 40.3069 58.0797 40.5692 58.1516C40.9626 58.2579 41.3981 58.2797 41.7775 58.1485C42.1288 58.0282 41.9711 57.636 41.9711 57.3657C41.9789 51.1362 41.9773 44.9066 41.9773 38.6771C41.9773 38.5209 41.9758 38.3646 41.968 38.2084C41.9617 38.0881 41.9336 37.949 41.8009 37.9287C41.3903 37.8678 40.9797 37.9537 40.6019 38.0803C40.2725 38.1896 40.3912 38.549 40.3912 38.8068C40.3834 41.4817 40.3865 44.1582 40.3865 46.8332C40.3865 47.0285 40.3959 47.2253 40.3725 47.4191C40.3084 47.9613 39.9525 48.305 39.4654 48.3144C38.9455 48.3253 38.5677 47.9863 38.4912 47.4206C38.4663 47.2285 38.4741 47.0316 38.4741 46.8363C38.4725 44.2395 38.4585 41.6411 38.485 39.0443C38.4912 38.4662 38.2961 38.2553 37.7403 38.3474C37.6061 38.3693 37.4687 38.3568 37.3329 38.3693C35.2003 38.5662 33.0631 38.6615 30.9227 38.6974C30.1484 38.7099 29.7019 38.349 29.7019 37.7506C29.7019 37.1865 30.1296 36.799 30.8712 36.7912C33.3253 36.7662 35.7717 36.635 38.2134 36.4053C40.3444 36.2053 42.4691 35.9475 44.5408 35.3803C45.2183 35.196 45.4728 34.835 45.3495 34.31C45.2386 33.8366 44.8343 33.6507 44.1599 33.8038C39.7324 34.8085 35.2284 35.071 30.7135 35.171C27.4054 35.2444 24.0926 35.2553 20.786 35.0522C18.2819 34.8991 15.7793 34.7132 13.3033 34.2804C12.3838 34.1194 11.4705 33.9226 10.551 33.7663C10.1217 33.6929 9.76415 33.8444 9.63926 34.2991C9.50812 34.7757 9.75635 35.0881 10.1654 35.2835C10.3387 35.3663 10.5322 35.4131 10.7211 35.46C12.3292 35.8569 13.9668 36.0928 15.6092 36.285C19.4231 36.7303 23.2589 36.7647 27.09 36.8647C27.9971 36.8881 28.4389 37.1897 28.4217 37.81C28.4061 38.4256 27.9721 38.7021 27.0463 38.7099C23.7741 38.7396 20.5081 38.6224 17.2484 38.3396C16.6786 38.2896 16.5053 38.4912 16.5084 39.0552C16.5287 42.4536 16.5318 45.8519 16.5053 49.2487C16.5006 49.8471 16.6879 50.0096 17.2734 50.0065C20.914 49.9862 24.5562 49.9987 28.1985 49.9987ZM34.9646 28.7524C34.9646 27.4633 34.9552 26.1743 34.9708 24.8869C34.9755 24.4759 34.8615 24.2916 34.4103 24.2931C29.7955 24.3056 25.1807 24.3041 20.5659 24.2947C20.1569 24.2931 20.0179 24.454 20.0195 24.8494C20.0273 27.4274 20.0273 30.0039 20.0195 32.582C20.0179 32.9773 20.1631 33.1179 20.5643 33.146C22.7016 33.3007 24.8435 33.3116 26.9823 33.3351C29.4708 33.3616 31.9624 33.2819 34.4509 33.146C34.8771 33.1226 34.9724 32.9366 34.9692 32.5617C34.9583 31.2898 34.9646 30.0211 34.9646 28.7524ZM9.55027 26.3087C9.55027 27.9493 9.56432 29.5899 9.54247 31.2289C9.53622 31.696 9.58306 31.9804 10.1607 31.8523C10.4401 31.7914 10.7399 31.8398 11.0287 31.9117C12.0107 32.1585 13.0067 32.3273 14.0043 32.5038C14.4867 32.5898 14.6256 32.4429 14.6225 31.971C14.6069 29.5695 14.6069 27.168 14.6241 24.7665C14.6272 24.3619 14.4851 24.1884 14.112 24.0587C12.8896 23.6384 11.956 22.8338 11.5049 21.626C11.2457 20.9307 10.9054 20.7166 10.1966 20.762C9.67829 20.7948 9.53622 20.9448 9.54403 21.4479C9.56745 23.0666 9.55027 24.6884 9.55027 26.3087ZM13.4204 18.9386C14.3743 18.9386 15.3266 18.9386 16.2805 18.9386C18.9657 18.9386 21.6509 18.9401 24.3361 18.9339C24.5562 18.9339 24.8747 19.0417 24.9653 18.7729C25.1089 18.348 25.1167 17.8683 24.97 17.4511C24.8497 17.1089 24.4532 17.273 24.1831 17.273C17.723 17.2652 11.2644 17.2667 4.80431 17.2667C4.02529 17.2667 3.24783 17.2652 2.4688 17.2683C2.29864 17.2699 2.06446 17.2167 1.99421 17.4042C1.83185 17.8323 1.85214 18.3011 1.96455 18.7276C2.05509 19.0683 2.42821 18.9323 2.68112 18.9339C6.26089 18.9417 9.84065 18.9386 13.4204 18.9386ZM7.71277 28.0102C7.71277 25.8056 7.70809 23.6009 7.71746 21.3963C7.71902 21.0151 7.67687 20.7276 7.19291 20.7823C7.03991 20.7995 6.87911 20.8026 6.72612 20.7807C6.18907 20.7057 6.02983 20.926 6.03139 21.4666C6.05169 25.6806 6.04232 29.8961 6.04388 34.11C6.04388 34.6772 6.10633 35.2397 6.27806 35.7834C6.86506 37.6443 8.90395 39.0724 10.8039 38.9677C10.999 38.9568 11.0662 38.8693 11.1021 38.6881C11.28 37.7975 11.1083 37.5162 10.2294 37.2912C10.0982 37.2568 9.9671 37.2193 9.83597 37.1803C8.43716 36.7615 7.7159 35.8006 7.71277 34.3319C7.71121 32.2242 7.71434 30.1164 7.71277 28.0102ZM13.0114 47.9878C13.0114 50.9346 13.0114 53.883 13.0114 56.8298C13.0114 56.947 13.0114 57.0641 13.0114 57.1813C13.0114 58.2188 13.0114 58.1969 14.0183 58.2094C14.4789 58.2157 14.621 58.061 14.621 57.6032C14.61 51.2987 14.6147 44.9926 14.6116 38.6881C14.6116 38.0521 14.3915 37.9084 13.4267 37.9037C12.8194 37.9006 13.0208 38.3802 13.0208 38.6771C13.0051 41.7802 13.0114 44.8848 13.0114 47.9878ZM18.118 28.6571C18.118 27.4102 18.0992 26.1618 18.1273 24.915C18.1383 24.4181 17.9556 24.24 17.4841 24.2962C17.3499 24.3119 17.2109 24.3087 17.0767 24.2978C16.6848 24.2619 16.5115 24.4181 16.5131 24.829C16.5225 27.304 16.5225 29.7805 16.5131 32.2554C16.5115 32.671 16.6833 32.8741 17.0907 32.8866C17.1875 32.8898 17.2874 32.8804 17.3811 32.9023C17.9572 33.032 18.1617 32.8491 18.1336 32.2226C18.0805 31.0367 18.118 29.8461 18.118 28.6571ZM36.8817 28.5743C36.8817 29.8398 36.891 31.107 36.877 32.3726C36.8723 32.7726 37.0113 32.957 37.4218 32.907C37.6139 32.8835 37.8106 32.8945 38.0026 32.8741C38.2867 32.8429 38.4694 32.7148 38.4694 32.3913C38.4663 29.8398 38.4663 27.2868 38.4709 24.7353C38.4709 24.4072 38.3164 24.2806 38.0026 24.2978C37.8277 24.3072 37.6513 24.315 37.478 24.2947C37.0222 24.2431 36.8629 24.4322 36.8707 24.8915C36.8957 26.1196 36.8801 27.3477 36.8817 28.5743Z" />
</svg>
