<svg viewBox="0 0 110 100" xmlns="http://www.w3.org/2000/svg">
	<path d="M0 44.8874C0.979713 42.0291 3.01648 40.921 6.01292 41.0233C9.61952 41.1455 13.2347 41.0517 16.9187 41.0517C16.9187 39.5544 16.9187 38.1224 16.9187 36.5768C15.4405 36.5768 13.9824 36.5825 12.5243 36.5768C8.09839 36.5569 4.91002 33.494 4.88138 29.0958C4.83268 21.9217 4.83841 14.7476 4.87851 7.57344C4.90429 3.10418 8.00958 0.0811013 12.5673 0.0214354C15.7184 -0.0211832 18.8695 0.0129117 22.0206 0.0129117C30.7922 0.0129117 39.5667 0.00154671 48.3382 0.0185941C52.1597 0.0271178 55.01 2.04155 55.9267 5.39705C56.1559 6.2409 56.2304 7.14726 56.239 8.0252C56.2733 11.25 56.2533 14.4748 56.2533 17.8218C57.4077 17.8218 58.4705 17.8189 59.5333 17.8218C65.8728 17.8417 70.4591 21.7285 71.5477 27.9394C72.3097 32.2723 73.1404 36.5938 73.9511 40.9835C77.9617 40.9835 81.9607 40.9835 86.1345 40.9835C86.1345 40.6341 86.1345 40.2619 86.1345 39.8925C86.1345 37.2644 86.1603 34.6362 86.1231 32.0081C86.103 30.5278 86.59 29.3231 87.6814 28.3059C87.9335 28.073 88.0825 27.5672 88.0395 27.2149C87.7703 24.9249 87.4322 22.6405 87.1171 20.3562C87.0799 20.0749 87.0283 19.7936 87.014 19.5123C86.9596 18.4383 87.5296 17.7024 88.4606 17.6257C89.3344 17.5547 90.0591 18.1542 90.2052 19.1486C90.4516 20.7994 90.6521 22.4558 90.8784 24.1066C91.0216 25.1579 91.1735 26.2091 91.3138 27.2177C91.4513 27.2803 91.5144 27.3314 91.5803 27.3342C93.5168 27.4507 93.5339 27.4536 93.8061 25.5784C94.1069 23.5071 94.3504 21.4245 94.6569 19.3532C94.8431 18.1031 95.565 17.4808 96.5304 17.6343C97.5101 17.7905 97.9799 18.5918 97.8166 19.8305C97.4872 22.328 97.1405 24.8254 96.8484 27.3286C96.8111 27.6439 96.9572 28.0985 97.1864 28.3031C98.3065 29.3032 98.782 30.5392 98.7791 31.9995C98.7763 34.5936 98.7791 37.1848 98.7791 39.7788C98.7791 40.1624 98.7791 40.546 98.7791 41.0574C100.572 41.0574 102.285 41.1398 103.987 41.0404C106.981 40.8614 109.02 42.0376 110 44.8959C110 46.2455 110 47.5951 110 48.9447C109.396 50.7659 108.344 52.1666 106.376 52.6667C105.832 52.8031 105.256 52.8201 104.54 52.9139C104.54 54.0447 104.569 55.167 104.526 56.2893C104.508 56.7723 104.497 57.4172 104.205 57.6843C103.792 58.0622 103.056 58.4145 102.569 58.3009C102.091 58.1901 101.509 57.5366 101.403 57.0308C101.208 56.1103 101.326 55.1244 101.317 54.1669C101.314 53.752 101.317 53.3344 101.317 52.8713C70.3904 52.8713 39.6125 52.8713 8.67705 52.8713C8.67705 53.323 8.67705 53.7378 8.67705 54.1527C8.67705 59.3038 8.67991 64.4521 8.67418 69.6033C8.67418 70.0266 8.78591 70.5693 8.57106 70.8506C8.20438 71.3365 7.63145 71.953 7.1244 71.9701C6.61736 71.9871 5.98427 71.4217 5.60614 70.9529C5.3655 70.6546 5.46004 70.0664 5.46004 69.609C5.45144 64.4948 5.45431 59.3805 5.45431 54.2663C5.45431 53.843 5.45431 53.4225 5.45431 52.8826C2.61543 52.8968 0.830751 51.5387 0 48.9362C0 47.5866 0 46.237 0 44.8874ZM30.5172 33.3775C36.4957 33.3775 42.4714 33.3832 48.45 33.3747C51.2631 33.3719 53.0191 31.6586 53.0248 28.8713C53.0391 21.8421 53.0391 14.8101 53.0248 7.78085C53.0191 4.95666 51.3289 3.22351 48.5044 3.21783C36.5502 3.19794 24.5931 3.20078 12.6389 3.21498C9.76275 3.21783 8.10125 4.88279 8.09552 7.72403C8.0812 14.7532 8.0812 21.7853 8.09552 28.8145C8.10125 31.7211 9.78281 33.3747 12.6933 33.3747C18.6317 33.3804 24.5759 33.3775 30.5172 33.3775ZM54.9499 49.6124C71.3099 49.6124 87.67 49.6124 104.03 49.6124C104.388 49.6124 104.746 49.6266 105.104 49.6038C106.161 49.5442 106.72 48.9816 106.774 47.9161C106.792 47.561 106.78 47.2058 106.78 46.8507C106.78 44.6118 106.413 44.2453 104.188 44.2453C71.3959 44.2453 38.6013 44.2453 5.80953 44.2453C5.48868 44.2453 5.16498 44.2282 4.84414 44.2538C3.85583 44.3305 3.29149 44.9044 3.23133 45.8989C3.20842 46.2881 3.2256 46.6802 3.2256 47.0695C3.2256 49.2515 3.58082 49.6095 5.76369 49.6095C22.1581 49.6124 38.5526 49.6124 54.9499 49.6124ZM44.1215 40.9381C52.9962 40.9381 61.8107 40.9381 70.6682 40.9381C70.2471 38.6992 69.8432 36.5768 69.4508 34.4515C69.0583 32.3263 68.7088 30.1925 68.2848 28.0701C67.583 24.547 65.5233 22.1263 61.9826 21.3137C60.1779 20.8988 58.2442 21.0352 56.2504 20.913C56.2504 23.5639 56.2533 26.0045 56.2504 28.4423C56.2476 33.5565 53.2024 36.5739 48.0518 36.5768C46.7426 36.5768 45.4363 36.5768 44.1215 36.5768C44.1215 38.1338 44.1215 39.5373 44.1215 40.9381ZM20.2474 40.9864C27.1426 40.9864 33.9491 40.9864 40.7669 40.9864C40.7669 39.4947 40.7669 38.0656 40.7669 36.6563C33.886 36.6563 27.0825 36.6563 20.2474 36.6563C20.2474 38.1167 20.2474 39.4947 20.2474 40.9864ZM95.5507 41.0176C95.5507 37.8383 95.5679 34.7612 95.5392 31.6842C95.5306 30.9284 95.0436 30.5505 94.2673 30.5534C93.1587 30.559 92.0501 30.5448 90.9414 30.5562C89.6036 30.5676 89.3601 30.8005 89.3573 32.1047C89.3487 34.801 89.3515 37.4945 89.3573 40.1908C89.3573 40.4607 89.4088 40.7278 89.4375 41.0205C91.4714 41.0176 93.4308 41.0176 95.5507 41.0176Z" />
	<path d="M98.0945 91.3729C98.0945 92.6145 98.1117 93.7482 98.0916 94.879C98.0343 97.9901 96.1064 99.9193 92.9896 99.9847C92.2019 100.002 91.4112 100.013 90.6292 99.9478C87.9822 99.7233 86.1775 97.7884 86.1374 95.1517C86.1173 93.9187 86.1345 92.6827 86.1345 91.3843C65.3572 91.3843 44.6858 91.3843 23.8712 91.3843C23.8712 92.5605 23.8769 93.7198 23.8712 94.879C23.8483 97.9759 21.9261 99.9137 18.7893 99.9847C18.0387 100.002 17.2825 100.016 16.5348 99.962C13.8621 99.7631 12.0602 97.939 11.9284 95.2569C11.8654 93.9897 11.917 92.7168 11.917 91.3189C11.3469 91.3189 10.8943 91.3274 10.4388 91.3189C7.63144 91.2593 5.58321 89.3869 5.49154 86.611C5.39701 83.7726 5.4457 80.9314 5.47435 78.0901C5.48581 76.982 6.13609 76.3513 7.09575 76.3627C8.05541 76.3712 8.65699 76.9991 8.67131 78.1271C8.69996 80.7183 8.67417 83.3123 8.68563 85.9035C8.69136 87.6111 9.21559 88.1225 10.9401 88.1225C40.2943 88.1254 69.6455 88.1254 98.9997 88.1225C100.839 88.1225 101.323 87.6338 101.323 85.7558C101.326 78.9027 101.323 72.0497 101.326 65.1966C101.326 64.8074 101.317 64.4096 101.377 64.0289C101.509 63.2191 102.028 62.773 102.844 62.7389C103.709 62.702 104.288 63.1225 104.465 63.9749C104.551 64.3868 104.543 64.8216 104.543 65.2449C104.546 71.99 104.546 78.7379 104.546 85.483C104.546 89.5233 102.873 91.2081 98.7677 91.3189C98.5901 91.3274 98.4182 91.3473 98.0945 91.3729ZM15.1798 91.3672C15.1798 92.7537 15.0939 94.1005 15.2056 95.4302C15.2973 96.5326 16.191 96.8537 17.1736 96.7826C18.4111 96.6917 19.9294 97.3168 20.5997 95.595C20.6112 95.5637 20.6169 95.5268 20.6169 95.4899C20.6169 94.1204 20.6169 92.7509 20.6169 91.3701C18.7463 91.3672 17.0046 91.3672 15.1798 91.3672ZM89.3573 91.3701C89.3573 92.6998 89.3343 93.9073 89.3659 95.1091C89.3945 96.1632 89.9502 96.6889 91.0474 96.7855C93.574 97.0071 94.654 96.6889 94.7772 95.487C94.9176 94.1346 94.8087 92.7566 94.8087 91.3701C92.961 91.3701 91.2193 91.3701 89.3573 91.3701Z" />
	<path d="M55.0502 60.5852C64.6067 60.5852 74.1632 60.6647 83.7168 60.5454C87.3778 60.4999 89.5349 63.0059 89.3831 66.2336C89.2484 69.1032 89.3573 71.9842 89.3544 74.8596C89.3516 78.4452 87.4179 80.3801 83.777 80.3829C70.6797 80.3914 57.5797 80.3858 44.4824 80.3858C38.4695 80.3858 32.4566 80.3886 26.4466 80.3858C22.5105 80.3829 20.6514 78.539 20.6514 74.655C20.6514 71.7427 20.6456 68.8333 20.6514 65.921C20.6599 62.5286 22.6222 60.5909 26.0627 60.5909C35.7252 60.5823 45.3877 60.5852 55.0502 60.5852ZM54.99 63.7816C45.3648 63.7816 35.7395 63.7787 26.1143 63.7844C24.3983 63.7844 23.877 64.3044 23.8741 66.0063C23.8684 68.8816 23.8712 71.7569 23.8741 74.6323C23.8741 76.749 24.3152 77.1865 26.458 77.1865C34.3673 77.1894 42.2738 77.1865 50.1831 77.1865C61.3123 77.1865 72.4386 77.1865 83.5678 77.1865C85.6963 77.1865 86.1317 76.7433 86.1317 74.6124C86.1317 71.8081 86.1346 69.0038 86.1317 66.1995C86.1317 64.2276 85.6762 63.7844 83.6538 63.7844C74.0973 63.7816 64.5436 63.7816 54.99 63.7816Z" />
	<path d="M30.5086 27.1979C28.6494 27.1979 26.7874 27.2064 24.9282 27.195C23.7652 27.1865 23.0347 26.5671 23.0203 25.6238C23.006 24.6777 23.7394 24.0129 24.8852 24.0072C28.6408 23.993 32.3964 23.9958 36.1519 24.0072C37.3322 24.01 38.0283 24.6152 38.0397 25.5812C38.0512 26.587 37.3408 27.1894 36.0861 27.195C34.2269 27.2036 32.3677 27.1979 30.5086 27.1979Z" />
	<path d="M30.5774 20.6289C28.7182 20.6289 26.859 20.6374 24.9999 20.6261C23.7595 20.6175 23.0089 19.9982 23.0204 19.0293C23.0319 18.0917 23.7623 17.4439 24.9254 17.441C28.681 17.424 32.4337 17.4212 36.1892 17.4439C37.3666 17.4496 38.0455 18.0917 38.0369 19.0662C38.0283 20.0436 37.3551 20.6175 36.1548 20.6289C34.2957 20.6403 32.4365 20.6289 30.5774 20.6289Z" />
</svg>
